<svg xmlns="http://www.w3.org/2000/svg" viewBox="0 0 152.01 122.76"><defs><style>.cls-1{opacity:0.28;}.cls-2{fill:#0aa;}.cls-13,.cls-3,.cls-5,.cls-6,.cls-8,.cls-9{fill:#fff;}.cls-3{opacity:0.9;}.cls-13,.cls-3,.cls-6,.cls-8,.cls-9{isolation:isolate;}.cls-4{fill:#f4f4f4;}.cls-6{opacity:0.5;}.cls-7{fill:#263238;}.cls-8{opacity:0.3;}.cls-9{opacity:0.8;}.cls-10{opacity:0.2;}.cls-11{fill:#69a326;}.cls-12{opacity:0.38;}.cls-13{opacity:0.4;}.cls-14{fill:#008480;}.cls-15{fill:#f8ad17;}</style></defs><g id="Layer_2" data-name="Layer 2"><g id="Layer_1-2" data-name="Layer 1"><g class="cls-1"><g id="freepik--background-simple--inject-56"><path class="cls-2" d="M101.71,44.71c-8.88-19.19-24.25-1.29-35-15-6.51-8.29-6.28-16-15.4-20.13C44.93,6.68,37.91,7.77,31.12,4.29,19.53-1.65,4.92-4.32.81,16.14c-1.71,8.54-1.16,20.23,6,29.92C13,54.31,21.21,50.34,27.71,56.69c12.42,12.15,3.07,39.21,21.07,46.39,15.82,6.3,22.5-17,38.61-10,12.07,5.22,31.87,19.32,38.66-6.66,2.9-11.07-2-19.41-8.27-24.56C109.14,54.7,107.54,57.3,101.71,44.71Z"/><path class="cls-3" d="M101.71,44.71c-8.88-19.19-24.25-1.29-35-15-6.51-8.29-6.28-16-15.4-20.13C44.93,6.68,37.91,7.77,31.12,4.29,19.53-1.65,4.92-4.32.81,16.14c-1.71,8.54-1.16,20.23,6,29.92C13,54.31,21.21,50.34,27.71,56.69c12.42,12.15,3.07,39.21,21.07,46.39,15.82,6.3,22.5-17,38.61-10,12.07,5.22,31.87,19.32,38.66-6.66,2.9-11.07-2-19.41-8.27-24.56C109.14,54.7,107.54,57.3,101.71,44.71Z"/></g><g id="freepik--Shadow--inject-56"><ellipse id="freepik--path--inject-56" class="cls-4" cx="62.85" cy="114.53" rx="58.52" ry="3.42"/></g><g id="freepik--Shop--inject-56"><rect class="cls-2" x="16.94" y="21.22" width="91.81" height="92.42"/><rect class="cls-5" x="40.15" y="30.58" width="45.4" height="10.36" rx="0.98"/><rect class="cls-2" x="41.92" y="31.92" width="41.85" height="7.68" rx="0.49"/><path class="cls-5" d="M43.91,37.24l2.41-.15a1.83,1.83,0,0,0,.31.9,1.33,1.33,0,0,0,1.12.5,1.24,1.24,0,0,0,.83-.25.81.81,0,0,0,.31-.61.79.79,0,0,0-.28-.57,3.12,3.12,0,0,0-1.3-.47,5.51,5.51,0,0,1-2.38-1A2,2,0,0,1,44.21,34a2.13,2.13,0,0,1,.37-1.2,2.4,2.4,0,0,1,1.1-.89,5.16,5.16,0,0,1,2-.32,4.19,4.19,0,0,1,2.41.58,2.52,2.52,0,0,1,1,1.87l-2.4.14a1.1,1.1,0,0,0-1.16-1.07h-.08a1,1,0,0,0-.66.19.56.56,0,0,0-.23.45.45.45,0,0,0,.19.35,2,2,0,0,0,.85.31,10.38,10.38,0,0,1,2.38.72,2.5,2.5,0,0,1,1,.91,2.31,2.31,0,0,1,.33,1.2,2.61,2.61,0,0,1-.44,1.46,2.74,2.74,0,0,1-1.22,1,5,5,0,0,1-2,.34,4.12,4.12,0,0,1-2.9-.8A3.16,3.16,0,0,1,43.91,37.24Z"/><path class="cls-5" d="M53.68,31.75h2.53v2.87H59V31.75h2.55V40H59V36.63H56.21V40H53.68Z"/><path class="cls-5" d="M63.93,35.86a4.21,4.21,0,0,1,1.12-3.13,4.26,4.26,0,0,1,3.12-1.13,4.31,4.31,0,0,1,3.16,1.1,4.26,4.26,0,0,1,1.11,3.09A5.09,5.09,0,0,1,72,38.15a3.44,3.44,0,0,1-1.4,1.43,4.58,4.58,0,0,1-2.27.51A5.15,5.15,0,0,1,66,39.65a3.45,3.45,0,0,1-1.48-1.4A4.65,4.65,0,0,1,63.93,35.86Zm2.54,0a2.73,2.73,0,0,0,.46,1.78,1.75,1.75,0,0,0,2.48,0l0,0a3,3,0,0,0,.45-1.91A2.47,2.47,0,0,0,69.43,34a1.6,1.6,0,0,0-1.26-.54,1.54,1.54,0,0,0-1.24.54,2.91,2.91,0,0,0-.46,1.83Z"/><path class="cls-5" d="M74.83,31.75h4.22a2.89,2.89,0,0,1,2.07.65,2.47,2.47,0,0,1,.68,1.87,2.52,2.52,0,0,1-.75,1.94,3.27,3.27,0,0,1-2.28.7H77.38v3H74.84Zm2.54,3.5H78A1.6,1.6,0,0,0,79,35a.83.83,0,0,0,.31-.65,1,1,0,0,0-.26-.66,1.34,1.34,0,0,0-1-.27h-.72Z"/><path class="cls-6" d="M24,44.09h77.8a1.68,1.68,0,0,1,1.68,1.68v67.88H22.27V45.77a1.68,1.68,0,0,1,1.67-1.68Z"/><path class="cls-7" d="M16.94,113.65H13.67a1.36,1.36,0,0,1-1.36-1.36V21.22h4.63v92.43Z"/><path class="cls-7" d="M112,113.65h-3.27V21.22h4.63v91.07a1.36,1.36,0,0,1-1.35,1.36Z"/><polygon class="cls-8" points="83.92 44.09 73.52 44.09 55.45 113.65 65.85 113.65 83.92 44.09"/><polygon class="cls-8" points="91.58 44.09 87.15 44.09 69.07 113.65 73.51 113.65 91.58 44.09"/><polygon class="cls-8" points="55.01 44.09 50.58 44.09 32.5 113.65 36.94 113.65 55.01 44.09"/><rect class="cls-2" x="61.24" y="43.04" width="3.22" height="70.61"/><path class="cls-2" d="M119.52,24,106.85,7.21h-88L6.18,24c-1.45,2.16-.8,4,1.51,4a8.53,8.53,0,0,0,6.49-4h.1c-1.24,2.16-.42,4,1.9,4a7.56,7.56,0,0,0,6.1-4h.11c-1,2.16,0,4,2.27,4a6.73,6.73,0,0,0,5.74-4h.11c-.83,2.16.34,4,2.66,4a5.91,5.91,0,0,0,5.33-4h.11a3,3,0,0,0,3,4,5.27,5.27,0,0,0,5-4h.11a3.31,3.31,0,0,0,3.42,4,4.65,4.65,0,0,0,4.57-4h.11a3.68,3.68,0,0,0,3.81,4,4.12,4.12,0,0,0,4.18-4h.11a4.13,4.13,0,0,0,4.19,4,3.69,3.69,0,0,0,3.81-4H71a4.65,4.65,0,0,0,4.57,4A3.31,3.31,0,0,0,79,24h.11a5.26,5.26,0,0,0,5,4,3,3,0,0,0,3-4h.11a5.9,5.9,0,0,0,5.34,4c2.32,0,3.48-1.84,2.65-4h.11a6.7,6.7,0,0,0,5.74,4c2.32,0,3.32-1.84,2.27-4h.11a7.56,7.56,0,0,0,6.1,4c2.32,0,3.14-1.84,1.9-4h.1A8.53,8.53,0,0,0,118,28C120.33,28,121,26.14,119.52,24Z"/><path class="cls-9" d="M119.52,24,106.85,7.21h-88L6.18,24c-1.45,2.16-.8,4,1.51,4a8.53,8.53,0,0,0,6.49-4h.1c-1.24,2.16-.42,4,1.9,4a7.56,7.56,0,0,0,6.1-4h.11c-1,2.16,0,4,2.27,4a6.73,6.73,0,0,0,5.74-4h.11c-.83,2.16.34,4,2.66,4a5.91,5.91,0,0,0,5.33-4h.11a3,3,0,0,0,3,4,5.27,5.27,0,0,0,5-4h.11a3.31,3.31,0,0,0,3.42,4,4.65,4.65,0,0,0,4.57-4h.11a3.68,3.68,0,0,0,3.81,4,4.12,4.12,0,0,0,4.18-4h.11a4.13,4.13,0,0,0,4.19,4,3.69,3.69,0,0,0,3.81-4H71a4.65,4.65,0,0,0,4.57,4A3.31,3.31,0,0,0,79,24h.11a5.26,5.26,0,0,0,5,4,3,3,0,0,0,3-4h.11a5.9,5.9,0,0,0,5.34,4c2.32,0,3.48-1.84,2.65-4h.11a6.7,6.7,0,0,0,5.74,4c2.32,0,3.32-1.84,2.27-4h.11a7.56,7.56,0,0,0,6.1,4c2.32,0,3.14-1.84,1.9-4h.1A8.53,8.53,0,0,0,118,28C120.33,28,121,26.14,119.52,24Z"/><g class="cls-10"><polygon class="cls-2" points="18.86 7.21 25.07 7.21 14.17 23.98 6.18 23.98 18.86 7.21"/><polygon class="cls-2" points="31.44 7.21 37.65 7.21 30.38 23.98 22.39 23.98 31.44 7.21"/><polygon class="cls-2" points="44.02 7.21 50.23 7.21 46.59 23.98 38.59 23.98 44.02 7.21"/><polygon class="cls-2" points="56.6 7.21 62.81 7.21 62.8 23.98 54.8 23.98 56.6 7.21"/><polygon class="cls-2" points="69.18 7.21 75.39 7.21 79 23.98 71.01 23.98 69.18 7.21"/><polygon class="cls-2" points="81.77 7.21 87.97 7.21 95.21 23.98 87.22 23.98 81.77 7.21"/><polygon class="cls-2" points="94.35 7.21 100.55 7.21 111.42 23.98 103.42 23.98 94.35 7.21"/><path class="cls-2" d="M103.43,24a7.54,7.54,0,0,0,6.1,4c2.31,0,3.13-1.84,1.89-4"/><path class="cls-2" d="M87.22,24a5.9,5.9,0,0,0,5.33,4c2.33,0,3.49-1.84,2.66-4"/><path class="cls-2" d="M71,24a4.65,4.65,0,0,0,4.57,4A3.31,3.31,0,0,0,79,24"/><path class="cls-2" d="M54.8,24a3.69,3.69,0,0,0,3.81,4,4.13,4.13,0,0,0,4.19-4"/><path class="cls-2" d="M38.59,24a3,3,0,0,0,3,4,5.26,5.26,0,0,0,5-4"/><path class="cls-2" d="M22.38,24c-1,2.16,0,4,2.28,4a6.72,6.72,0,0,0,5.73-4"/><path class="cls-2" d="M6.18,24c-1.45,2.16-.81,4,1.51,4a8.5,8.5,0,0,0,6.48-4"/></g></g></g><g id="freepik--Smartphone--inject-89"><path class="cls-7" d="M88.58,90.31V70.38A2.43,2.43,0,0,1,91,67.94h.11l57.35,2.21A2.69,2.69,0,0,1,151,72.79V92.7a2.44,2.44,0,0,1-2.43,2.44h-.11L91.12,92.93A2.65,2.65,0,0,1,88.58,90.31Z"/><path class="cls-2" d="M145.07,68.15V68l3.4.13a3.34,3.34,0,0,1,3.19,3.3h-.19a3.16,3.16,0,0,0-3-3.11Z"/><rect class="cls-2" x="151.48" y="72.75" width="0.19" height="1.62"/><path class="cls-2" d="M88.58,88.9V69A2.43,2.43,0,0,1,91,66.55h.11l57.35,2.21A2.68,2.68,0,0,1,151,71.39V91.31a2.45,2.45,0,0,1-2.43,2.44h-.11L91.12,91.53A2.67,2.67,0,0,1,88.58,88.9Z"/><path class="cls-11" d="M95.17,89.53V68.86a1.38,1.38,0,0,1,1.35-1.38h.08l49.75,1.93a1.49,1.49,0,0,1,1.41,1.47V91.55a1.39,1.39,0,0,1-1.35,1.38h-.08L96.58,91A1.5,1.5,0,0,1,95.17,89.53Z"/><path class="cls-5" d="M90.36,79a1.24,1.24,0,0,1,.4-.9,2,2,0,0,1,1.49-.51,1.8,1.8,0,0,1,1.89,1.55,1.25,1.25,0,0,1-.4.89,2,2,0,0,1-1.49.52h0A1.8,1.8,0,0,1,90.36,79Zm3.57.14a1.6,1.6,0,0,0-1.7-1.34,1.84,1.84,0,0,0-1.36.46,1,1,0,0,0-.34.74,1.59,1.59,0,0,0,1.7,1.34,1.87,1.87,0,0,0,1.35-.46A.92.92,0,0,0,93.93,79.15Z"/><path class="cls-5" d="M148.64,81.26a.65.65,0,0,1,.19-.42.92.92,0,0,1,.67-.22.79.79,0,0,1,.84.68.61.61,0,0,1-.19.42.85.85,0,0,1-.67.23A.77.77,0,0,1,148.64,81.26Zm1.47.06c0-.27-.29-.48-.65-.49A.69.69,0,0,0,149,81a.35.35,0,0,0-.12.26c0,.27.29.48.65.5a.74.74,0,0,0,.52-.17A.34.34,0,0,0,150.11,81.32Z"/></g><path class="cls-5" d="M107.84,79.33h-.46l-1.77-3h0c0,.35,0,.66,0,.95l-.09,2h-.37l.15-3.52h.46l1.76,2.94h0v-.42c0-.23,0-.4,0-.5l.09-2H108Z"/><path class="cls-5" d="M110.73,79.33h-1.94l.16-3.51h1.94l0,.36h-1.53l0,1.13h1.44l0,.36h-1.44L109.21,79h1.53Z"/><path class="cls-5" d="M113.81,79.34h-.46l-.86-1.55-1,1.55H111l1.23-1.84-1-1.68h.45l.8,1.4.93-1.39h.43l-1.15,1.66Z"/><path class="cls-5" d="M115.37,79.35H115l.14-3.15H114l0-.36h2.6l0,.36h-1.1Z"/><path class="cls-5" d="M121.29,79.37h-.4l-.6-2.36c0-.1-.06-.24-.09-.39s0-.26,0-.29a6.29,6.29,0,0,1-.2.69l-.78,2.34h-.4L118,75.84h.43l.45,2.18c.06.3.1.58.13.82a5.2,5.2,0,0,1,.23-.86l.72-2.13h.42l.56,2.16a6,6,0,0,1,.15.84,6.72,6.72,0,0,1,.21-.83l.65-2.17h.42Z"/><path class="cls-5" d="M124.94,79.38l-.38-1.12h-1.39l-.48,1.12h-.41l1.53-3.52h.34l1.21,3.53Zm-.49-1.49-.35-1.09a3.63,3.63,0,0,1-.14-.51,3.14,3.14,0,0,1-.18.51l-.45,1.09Z"/><path class="cls-5" d="M125.84,79.38l.16-3.51h.4L126.26,79h1.53l0,.37Z"/><path class="cls-5" d="M130.87,79.4h-.48l-1.19-1.7-.37.32-.07,1.38h-.4l.16-3.52h.4l-.08,1.74,1.66-1.74H131l-1.46,1.52Z"/><path class="cls-5" d="M131.12,78.26l0-.37h1.16l0,.36Z"/><path class="cls-5" d="M132.91,79.4l.16-3.51h.4l-.16,3.51Z"/><path class="cls-5" d="M137,79.41h-.46l-1.77-3h0c0,.34,0,.66,0,1l-.09,2h-.37l.15-3.52h.46l1.76,3h0v-.42c0-.24,0-.4,0-.51l.09-2h.38Z"/><path class="cls-5" d="M103.9,82.8a1.11,1.11,0,0,1-.38.87,1.56,1.56,0,0,1-1,.3h-.32l-.06,1.25h-.73l.16-3.51h1.1a1.42,1.42,0,0,1,1,.28A1,1,0,0,1,103.9,82.8Zm-1.68.56h.24a.8.8,0,0,0,.51-.14.49.49,0,0,0,.19-.39.46.46,0,0,0-.12-.39.66.66,0,0,0-.44-.13h-.34Z"/><path class="cls-5" d="M104.45,85.22l.16-3.51h.74l-.14,2.9h1.41l0,.62Z"/><path class="cls-5" d="M109.2,85.24h-2l.16-3.51h2l0,.61h-1.26l0,.77h1.18l0,.61H108l0,.91h1.27Z"/><path class="cls-5" d="M112.05,85.24l-.22-.83h-1.26l-.29.84h-.79l1.38-3.53h.9l1.07,3.53Zm-.36-1.46-.34-1.29c0-.09,0-.17,0-.23-.06.2-.24.71-.52,1.52Z"/><path class="cls-5" d="M115.37,84.28A1,1,0,0,1,115,85a1.51,1.51,0,0,1-1,.27,2,2,0,0,1-1-.22l0-.69a4.34,4.34,0,0,0,.59.23,1.85,1.85,0,0,0,.44.06.69.69,0,0,0,.38-.09.36.36,0,0,0,.14-.28.35.35,0,0,0-.05-.18.8.8,0,0,0-.16-.16,4.12,4.12,0,0,0-.44-.24,1.66,1.66,0,0,1-.46-.29.82.82,0,0,1-.24-.32.89.89,0,0,1-.08-.44,1,1,0,0,1,.34-.73,1.34,1.34,0,0,1,.88-.26,2.1,2.1,0,0,1,.51.06,4,4,0,0,1,.51.19l-.26.58-.46-.17a1.39,1.39,0,0,0-.35,0,.48.48,0,0,0-.33.1.37.37,0,0,0-.12.25.29.29,0,0,0,0,.17.48.48,0,0,0,.14.15,3.48,3.48,0,0,0,.45.24,1.81,1.81,0,0,1,.65.48A.92.92,0,0,1,115.37,84.28Z"/><path class="cls-5" d="M118,85.26h-2l.15-3.52h2l0,.61h-1.27l0,.77H118l0,.61h-1.18l0,.9H118Z"/><path class="cls-5" d="M121.55,82.33a.78.78,0,0,0-.66.31,1.58,1.58,0,0,0-.27.88c0,.79.24,1.18.82,1.18a2.85,2.85,0,0,0,.9-.18l0,.62a2.49,2.49,0,0,1-1,.18,1.38,1.38,0,0,1-1.14-.47,1.9,1.9,0,0,1-.34-1.33,2.06,2.06,0,0,1,.24-1,1.44,1.44,0,0,1,.59-.63,1.72,1.72,0,0,1,.88-.22,2.15,2.15,0,0,1,1,.25l-.26.6-.39-.16A1,1,0,0,0,121.55,82.33Z"/><path class="cls-5" d="M126.27,83.53a2,2,0,0,1-.49,1.34,1.62,1.62,0,0,1-1.24.46,1.54,1.54,0,0,1-1.21-.47,1.86,1.86,0,0,1-.36-1.35,2,2,0,0,1,.49-1.34,1.68,1.68,0,0,1,1.25-.46,1.51,1.51,0,0,1,1.2.47A1.86,1.86,0,0,1,126.27,83.53Zm-2.53,0a1.43,1.43,0,0,0,.18.89.78.78,0,0,0,.65.3c.58,0,.9-.4.93-1.19s-.24-1.18-.82-1.19a.81.81,0,0,0-.68.3A1.54,1.54,0,0,0,123.74,83.52Z"/><path class="cls-5" d="M128.38,85.29l-.71-2.75h0c0,.56,0,.93,0,1.12l-.07,1.63h-.66l.16-3.51h1l.7,2.69h0l1-2.69h1l-.16,3.51h-.68l.07-1.66c0-.08,0-.17,0-.28s0-.37.07-.81h0l-1,2.75Z"/><path class="cls-5" d="M133.5,85.31h-2l.16-3.51h2l0,.61h-1.27l0,.77h1.18l0,.61H132.3l0,.9h1.27Z"/><path class="cls-5" d="M135.49,85.32l.15-3.52h.74l-.16,3.52Z"/><path class="cls-5" d="M140.17,85.33h-.93l-1.39-2.67h0c0,.47,0,.81,0,1l-.08,1.65h-.65l.15-3.51h.93l1.39,2.64h0c0-.46,0-.78,0-1l.07-1.67h.66Z"/><g class="cls-12"><polygon class="cls-13" points="95.17 80.75 95.17 75.59 147.76 84.3 147.76 89.45 95.17 80.75"/><polygon class="cls-13" points="95.17 74.7 95.17 72.12 147.76 80.81 147.76 83.38 95.17 74.7"/></g><g id="freepik--Smartphone--inject-89-2" data-name="freepik--Smartphone--inject-89"><path class="cls-7" d="M88.58,117.93V98A2.43,2.43,0,0,1,91,95.56h.11l57.35,2.21A2.68,2.68,0,0,1,151,100.4v19.92a2.45,2.45,0,0,1-2.43,2.44h-.11l-57.35-2.21A2.65,2.65,0,0,1,88.58,117.93Z"/><path class="cls-2" d="M145.07,95.77v-.19l3.4.13a3.34,3.34,0,0,1,3.19,3.3h-.19a3.16,3.16,0,0,0-3-3.11Z"/><rect class="cls-2" x="151.48" y="100.37" width="0.19" height="1.62"/><path class="cls-2" d="M88.58,116.52V96.61A2.44,2.44,0,0,1,91,94.16h.11l57.35,2.22A2.67,2.67,0,0,1,151,99v19.91a2.45,2.45,0,0,1-2.43,2.45h-.11l-57.35-2.22A2.67,2.67,0,0,1,88.58,116.52Z"/><path class="cls-14" d="M95.17,117.15V96.47a1.37,1.37,0,0,1,1.35-1.37h.08L146.35,97a1.47,1.47,0,0,1,1.41,1.47v20.67a1.39,1.39,0,0,1-1.35,1.38h-.08l-49.75-1.93A1.5,1.5,0,0,1,95.17,117.15Z"/><path class="cls-5" d="M90.36,106.63a1.22,1.22,0,0,1,.4-.9,2,2,0,0,1,1.49-.51,1.8,1.8,0,0,1,1.89,1.54,1.26,1.26,0,0,1-.4.9,2,2,0,0,1-1.49.51h0A1.78,1.78,0,0,1,90.36,106.63Zm3.57.13a1.59,1.59,0,0,0-1.7-1.33,1.87,1.87,0,0,0-1.36.45,1,1,0,0,0-.34.75,1.58,1.58,0,0,0,1.7,1.33,1.86,1.86,0,0,0,1.35-.45A.94.94,0,0,0,93.93,106.76Z"/><path class="cls-5" d="M148.64,108.88a.65.65,0,0,1,.19-.42.93.93,0,0,1,.67-.23.81.81,0,0,1,.84.69.65.65,0,0,1-.19.42.85.85,0,0,1-.67.23A.78.78,0,0,1,148.64,108.88Zm1.47.06c0-.27-.29-.48-.65-.5a.73.73,0,0,0-.51.17.39.39,0,0,0-.12.27c0,.27.29.48.65.5a.74.74,0,0,0,.52-.17A.35.35,0,0,0,150.11,108.94Z"/></g><path class="cls-5" d="M108.15,105a1.15,1.15,0,0,1-.39.86,1.56,1.56,0,0,1-1,.3h-.32l-.05,1.25h-.74l.16-3.52h1.11a1.41,1.41,0,0,1,.94.27A1,1,0,0,1,108.15,105Zm-1.69.55h.24a.85.85,0,0,0,.52-.14.52.52,0,0,0,.18-.39.46.46,0,0,0-.12-.39.66.66,0,0,0-.44-.12h-.33Z"/><path class="cls-5" d="M109.49,106.1l-.06,1.35h-.74l.16-3.52h1a1.7,1.7,0,0,1,1,.27.88.88,0,0,1,.3.79,1,1,0,0,1-.19.55,1.21,1.21,0,0,1-.5.38l1,1.53h-.82l-.77-1.35Zm0-.61h.23a1,1,0,0,0,.53-.11.46.46,0,0,0,.18-.37.37.37,0,0,0-.16-.36,1,1,0,0,0-.52-.1h-.22Z"/><path class="cls-5" d="M113.9,107.46h-2l.16-3.51h2l0,.61h-1.26l0,.78h1.17l0,.61h-1.17l0,.9h1.26Z"/><path class="cls-5" d="M114.38,106.44l0-.6h1.27l0,.6Z"/><path class="cls-5" d="M116.35,104h1.08a2,2,0,0,1,1.06.21.73.73,0,0,1,.31.68,1,1,0,0,1-.17.52.67.67,0,0,1-.4.24v0a.76.76,0,0,1,.46.28,1,1,0,0,1-.25,1.29,1.55,1.55,0,0,1-1,.27h-1.3Zm.65,2,0,.91h.48a.71.71,0,0,0,.45-.12.47.47,0,0,0,.16-.36c0-.29-.19-.44-.6-.44Zm0-.59h.43a.83.83,0,0,0,.44-.09A.4.4,0,0,0,118,105a.29.29,0,0,0-.14-.29.84.84,0,0,0-.45-.09h-.39Z"/><path class="cls-5" d="M122.69,105.73a2,2,0,0,1-.49,1.34,1.64,1.64,0,0,1-1.24.46,1.52,1.52,0,0,1-1.21-.47,1.86,1.86,0,0,1-.36-1.35,2,2,0,0,1,.48-1.34,1.66,1.66,0,0,1,1.25-.46,1.52,1.52,0,0,1,1.21.47A1.86,1.86,0,0,1,122.69,105.73Zm-2.53,0a1.43,1.43,0,0,0,.18.89.77.77,0,0,0,.64.3c.59,0,.9-.4.94-1.19s-.24-1.18-.82-1.19a.81.81,0,0,0-.68.3A1.47,1.47,0,0,0,120.16,105.72Z"/><path class="cls-5" d="M126.56,105.74a2,2,0,0,1-.49,1.34,1.64,1.64,0,0,1-1.24.46,1.52,1.52,0,0,1-1.21-.47,1.85,1.85,0,0,1-.36-1.35,2,2,0,0,1,.48-1.34,1.7,1.7,0,0,1,1.25-.46,1.52,1.52,0,0,1,1.21.48A1.82,1.82,0,0,1,126.56,105.74Zm-2.53,0a1.43,1.43,0,0,0,.18.89.72.72,0,0,0,.64.3c.59,0,.9-.4.94-1.19s-.24-1.18-.82-1.18a.78.78,0,0,0-.68.29A1.47,1.47,0,0,0,124,105.73Z"/><path class="cls-5" d="M130,107.51h-.83l-.85-1.49-.32.23,0,1.25h-.74l.16-3.51h.73L128,105.6l.31-.42,1-1.19h.81l-1.28,1.55Z"/><path class="cls-5" d="M132.43,107.52h-2l.16-3.51h2l0,.61H131.3l0,.77h1.18l0,.61h-1.18l0,.91h1.27Z"/><path class="cls-5" d="M136.12,105.74a1.8,1.8,0,0,1-.55,1.32,2,2,0,0,1-1.43.46h-1l.16-3.51h1.09a1.72,1.72,0,0,1,1.3.46A1.62,1.62,0,0,1,136.12,105.74Zm-.77,0c0-.75-.28-1.13-.94-1.13H134l-.1,2.29h.31C134.94,106.91,135.31,106.53,135.35,105.75Z"/><path class="cls-5" d="M116.47,111.35l-.14.55h.61l0,.49h-.7l-.23,1h-.52l.23-1h-.47l-.22,1h-.51l.22-1h-.57l0-.49h.65l.14-.56h-.6l0-.5h.68l.23-1h.52l-.23,1h.47l.23-1h.51l-.23,1h.57l0,.51Zm-1.12.55h.46l.14-.56h-.46Z"/><path class="cls-5" d="M119.15,113.38h-.73l.09-2,0-.34,0-.36-.26.24-.42.32-.33-.44,1.16-.9h.6Z"/><path class="cls-5" d="M122.53,110.66a.85.85,0,0,1-.22.56,1.07,1.07,0,0,1-.57.32h0a1.08,1.08,0,0,1,.62.26.72.72,0,0,1,.2.56,1,1,0,0,1-.4.79,1.77,1.77,0,0,1-1,.28,2.58,2.58,0,0,1-1-.2l0-.63a1.92,1.92,0,0,0,.44.17,1.58,1.58,0,0,0,.47.07.91.91,0,0,0,.55-.13.47.47,0,0,0,.19-.4.35.35,0,0,0-.19-.35,1.42,1.42,0,0,0-.63-.1h-.26l0-.57H121a1.31,1.31,0,0,0,.6-.11.4.4,0,0,0,.2-.36c0-.27-.15-.4-.48-.4a1.48,1.48,0,0,0-.35,0,2.12,2.12,0,0,0-.4.2l-.31-.51a1.93,1.93,0,0,1,1.14-.35,1.5,1.5,0,0,1,.85.23A.68.68,0,0,1,122.53,110.66Z"/><path class="cls-5" d="M125.38,111.64A2.62,2.62,0,0,1,125,113a1.07,1.07,0,0,1-.94.43,1,1,0,0,1-.88-.45,2.36,2.36,0,0,1-.25-1.35,2.59,2.59,0,0,1,.36-1.37,1.05,1.05,0,0,1,.93-.44,1,1,0,0,1,.89.46A2.36,2.36,0,0,1,125.38,111.64Zm-1.7,0a2.62,2.62,0,0,0,.07.93.36.36,0,0,0,.36.28.41.41,0,0,0,.38-.29,2.53,2.53,0,0,0,.16-.92,2.57,2.57,0,0,0-.08-.93.35.35,0,0,0-.35-.28.41.41,0,0,0-.39.28A3,3,0,0,0,123.68,111.64Z"/><path class="cls-5" d="M128.15,111.65a2.47,2.47,0,0,1-.35,1.36,1.08,1.08,0,0,1-.94.44A1,1,0,0,1,126,113a2.34,2.34,0,0,1-.24-1.35,2.49,2.49,0,0,1,.36-1.36,1.05,1.05,0,0,1,.93-.44,1,1,0,0,1,.89.46A2.37,2.37,0,0,1,128.15,111.65Zm-1.69,0a2.53,2.53,0,0,0,.07.92.37.37,0,0,0,.35.29.42.42,0,0,0,.39-.29,2.88,2.88,0,0,0,.15-.92,2.62,2.62,0,0,0-.07-.93.37.37,0,0,0-.36-.28.4.4,0,0,0-.38.28A3,3,0,0,0,126.46,111.65Z"/><g class="cls-12"><polygon class="cls-13" points="95.17 108.9 95.17 103.74 147.76 112.45 147.76 117.6 95.17 108.9"/><polygon class="cls-13" points="95.17 102.85 95.17 100.27 147.76 108.95 147.76 111.53 95.17 102.85"/></g><g id="freepik--Smartphone--inject-89-3" data-name="freepik--Smartphone--inject-89"><path class="cls-7" d="M88.92,62.61V42.68a2.43,2.43,0,0,1,2.42-2.45h.11l57.35,2.22a2.67,2.67,0,0,1,2.54,2.63V65a2.45,2.45,0,0,1-2.42,2.45h-.12L91.45,65.22A2.63,2.63,0,0,1,88.92,62.61Z"/><path class="cls-2" d="M145.4,40.44v-.19l3.4.14a3.32,3.32,0,0,1,3.19,3.3h-.19a3.15,3.15,0,0,0-3-3.11Z"/><rect class="cls-2" x="151.82" y="45.04" width="0.19" height="1.62"/><path class="cls-2" d="M88.92,61.19V41.28a2.43,2.43,0,0,1,2.42-2.44h.11l57.35,2.21a2.69,2.69,0,0,1,2.54,2.64V63.6A2.44,2.44,0,0,1,148.92,66h-.12L91.45,63.83A2.66,2.66,0,0,1,88.92,61.19Z"/><path class="cls-15" d="M95.5,61.82V41.15a1.38,1.38,0,0,1,1.36-1.38h.07l49.75,1.93a1.49,1.49,0,0,1,1.42,1.47V63.85a1.4,1.4,0,0,1-1.36,1.37h-.08L96.91,63.29A1.49,1.49,0,0,1,95.5,61.82Z"/><path class="cls-5" d="M90.69,51.31a1.22,1.22,0,0,1,.4-.9,2.05,2.05,0,0,1,1.49-.52,1.81,1.81,0,0,1,1.89,1.55,1.24,1.24,0,0,1-.4.9,2,2,0,0,1-1.49.51h0A1.79,1.79,0,0,1,90.69,51.31Zm3.57.13a1.59,1.59,0,0,0-1.7-1.34,1.87,1.87,0,0,0-1.35.46,1,1,0,0,0-.35.75,1.6,1.6,0,0,0,1.7,1.33,1.84,1.84,0,0,0,1.36-.46A.9.9,0,0,0,94.26,51.44Z"/><path class="cls-5" d="M149,53.56a.63.63,0,0,1,.19-.42,1,1,0,0,1,.67-.23.8.8,0,0,1,.84.69.6.6,0,0,1-.19.42.89.89,0,0,1-.67.23A.79.79,0,0,1,149,53.56Zm1.47.06c0-.27-.28-.48-.65-.5a.73.73,0,0,0-.51.17.37.37,0,0,0-.12.27c0,.27.29.48.65.49a.69.69,0,0,0,.52-.17A.29.29,0,0,0,150.44,53.62Z"/></g><path class="cls-5" d="M109.66,50.8a.89.89,0,0,1-.37.72,1.43,1.43,0,0,1-.91.26,2.27,2.27,0,0,1-.94-.16l0-.4a3,3,0,0,0,.45.15,2.92,2.92,0,0,0,.5.05,1.09,1.09,0,0,0,.62-.15.54.54,0,0,0,.22-.43.67.67,0,0,0-.06-.3.61.61,0,0,0-.23-.22,3.44,3.44,0,0,0-.51-.22,1.55,1.55,0,0,1-.67-.42.91.91,0,0,1-.18-.63.8.8,0,0,1,.33-.64,1.3,1.3,0,0,1,.81-.24,2.39,2.39,0,0,1,.94.19l-.14.36a2.11,2.11,0,0,0-.83-.18.88.88,0,0,0-.51.13.48.48,0,0,0-.19.39.56.56,0,0,0,0,.3.53.53,0,0,0,.21.21,2.48,2.48,0,0,0,.48.22,1.77,1.77,0,0,1,.73.42A.83.83,0,0,1,109.66,50.8Z"/><path class="cls-5" d="M111.4,51.74H111l.14-3.15H110l0-.37h2.6v.37h-1.1Z"/><path class="cls-5" d="M116.11,50a2.07,2.07,0,0,1-.48,1.33,1.54,1.54,0,0,1-1.19.48,1.43,1.43,0,0,1-1.17-.48,1.9,1.9,0,0,1-.35-1.34,2,2,0,0,1,.47-1.33,1.6,1.6,0,0,1,1.21-.47,1.42,1.42,0,0,1,1.15.49A1.82,1.82,0,0,1,116.11,50Zm-2.77,0a1.64,1.64,0,0,0,.26,1.08,1,1,0,0,0,.85.37,1.11,1.11,0,0,0,.89-.36,1.77,1.77,0,0,0,.34-1.09,1.66,1.66,0,0,0-.24-1.07,1,1,0,0,0-.85-.37,1.13,1.13,0,0,0-.9.36A1.76,1.76,0,0,0,113.34,50Z"/><path class="cls-5" d="M117.27,50.3l-.06,1.46h-.4l.15-3.52h1a1.42,1.42,0,0,1,.93.25.88.88,0,0,1,.27.74,1,1,0,0,1-.74.94l.87,1.59h-.48L118,50.3Zm0-.35h.55a1,1,0,0,0,.64-.17.68.68,0,0,0,.22-.52.56.56,0,0,0-.18-.5,1.08,1.08,0,0,0-.64-.15h-.53Z"/><path class="cls-5" d="M121.75,51.77h-1.94l.16-3.52h1.93v.36h-1.53l0,1.13h1.43v.36h-1.44l-.06,1.29h1.53Z"/><path class="cls-5" d="M123.94,48.27h1a1.78,1.78,0,0,1,1,.21.72.72,0,0,1,.28.66.83.83,0,0,1-.2.52.89.89,0,0,1-.51.26v0c.52.1.77.38.75.85a.92.92,0,0,1-.35.73,1.35,1.35,0,0,1-.89.26h-1.21Zm.32,1.85-.06,1.31h.72a1,1,0,0,0,.64-.16.63.63,0,0,0,.24-.51.52.52,0,0,0-.2-.48,1,1,0,0,0-.65-.16Zm0-.35h.67a1.12,1.12,0,0,0,.62-.13.55.55,0,0,0,.21-.46.47.47,0,0,0-.19-.43,1.37,1.37,0,0,0-.66-.13h-.6Z"/><path class="cls-5" d="M129.71,48.28l-.1,2.28a1.3,1.3,0,0,1-.4.94,1.43,1.43,0,0,1-1,.34,1.27,1.27,0,0,1-1-.35,1.23,1.23,0,0,1-.3-1l.1-2.26h.41l-.11,2.29a.87.87,0,0,0,.21.67.9.9,0,0,0,.69.24,1,1,0,0,0,.69-.23,1,1,0,0,0,.26-.68l.11-2.29Z"/><path class="cls-5" d="M132.47,50.87a.88.88,0,0,1-.36.72,1.46,1.46,0,0,1-.92.26,2.31,2.31,0,0,1-.94-.16l0-.4a2.76,2.76,0,0,0,.46.15,2.72,2.72,0,0,0,.49.05,1.07,1.07,0,0,0,.62-.15.54.54,0,0,0,.22-.43.48.48,0,0,0-.06-.3.61.61,0,0,0-.23-.22,3.44,3.44,0,0,0-.51-.22,1.61,1.61,0,0,1-.67-.42.91.91,0,0,1-.18-.63.8.8,0,0,1,.33-.64,1.3,1.3,0,0,1,.81-.24,2.19,2.19,0,0,1,.94.19l-.14.36a2.27,2.27,0,0,0-.83-.19.82.82,0,0,0-.5.14.47.47,0,0,0-.2.39.56.56,0,0,0,.05.3.5.5,0,0,0,.22.21,2.34,2.34,0,0,0,.47.22,1.77,1.77,0,0,1,.73.42A.82.82,0,0,1,132.47,50.87Z"/><path class="cls-5" d="M134.1,50.05l1-1.75h.43l-1.25,2.15-.06,1.36h-.41l.06-1.34-1.06-2.18h.44Z"/><path class="cls-5" d="M108.45,55.22a1.15,1.15,0,0,1-.39.87,1.48,1.48,0,0,1-1,.29h-.32l0,1.25h-.74l.16-3.51h1.11a1.45,1.45,0,0,1,1,.28A1,1,0,0,1,108.45,55.22Zm-1.69.55H107a.79.79,0,0,0,.52-.13.49.49,0,0,0,.18-.4.45.45,0,0,0-.12-.38.61.61,0,0,0-.44-.13h-.33Z"/><path class="cls-5" d="M109,57.64l.16-3.51h.74l-.13,2.9h1.41l0,.62Z"/><path class="cls-5" d="M113.74,57.65h-2l.16-3.51h2l0,.61h-1.26l0,.77h1.18l0,.61h-1.17l0,.91h1.26Z"/><path class="cls-5" d="M116.59,57.66l-.21-.83h-1.27l-.29.84H114l1.38-3.53h.9l1.07,3.54Zm-.36-1.46c-.2-.76-.31-1.19-.34-1.29s0-.17,0-.23c-.06.2-.23.71-.52,1.52Z"/><path class="cls-5" d="M119.91,56.7a1,1,0,0,1-.37.75,1.51,1.51,0,0,1-1,.27,2.18,2.18,0,0,1-1-.22l0-.69a4.29,4.29,0,0,0,.58.23,1.85,1.85,0,0,0,.44.06.69.69,0,0,0,.38-.09.32.32,0,0,0,.14-.28.27.27,0,0,0,0-.18.49.49,0,0,0-.16-.16,4.12,4.12,0,0,0-.44-.24,1.94,1.94,0,0,1-.46-.29,1.08,1.08,0,0,1-.24-.32,1,1,0,0,1-.08-.44,1,1,0,0,1,.35-.73,1.31,1.31,0,0,1,.87-.26,2.24,2.24,0,0,1,.52.06,3.9,3.9,0,0,1,.5.19l-.26.58a3,3,0,0,0-.45-.17,1.47,1.47,0,0,0-.36,0,.49.49,0,0,0-.32.09.38.38,0,0,0-.13.26.31.31,0,0,0,0,.17.48.48,0,0,0,.14.15l.45.24a1.73,1.73,0,0,1,.65.48A.92.92,0,0,1,119.91,56.7Z"/><path class="cls-5" d="M122.5,57.68h-2l.16-3.51h2l0,.61h-1.26l0,.77h1.18l0,.61H121.3l0,.9h1.27Z"/><path class="cls-5" d="M127.87,57.7H127l-.39-1.85c0-.07,0-.2-.07-.41a3.82,3.82,0,0,1,0-.41c0,.08,0,.22-.09.41s-.08.33-.11.41l-.55,1.84h-.83l-.73-3.52h.72l.36,1.91c.06.36.1.66.13.93,0-.1,0-.24.08-.43a2.87,2.87,0,0,1,.12-.44l.59-2h.7l.41,2c0,.09,0,.22.07.4s0,.34,0,.47c0-.12.06-.28.1-.47a4.64,4.64,0,0,1,.12-.45l.53-1.91h.72Z"/><path class="cls-5" d="M131.31,57.71l-.21-.84h-1.27l-.29.83h-.79l1.39-3.52h.9l1.07,3.53ZM131,56.25q-.3-1.14-.33-1.29a2.07,2.07,0,0,1-.06-.24c-.06.21-.23.72-.51,1.52Z"/><path class="cls-5" d="M132.54,57.71l.16-3.51h.74l-.16,3.51Z"/><path class="cls-5" d="M135.49,57.72h-.73l.13-2.89h-.95l0-.62h2.62l0,.62h-.95Z"/><g class="cls-12"><polygon class="cls-13" points="95.5 53.04 95.5 47.89 148.1 56.59 148.1 61.75 95.5 53.04"/><polygon class="cls-13" points="95.5 46.99 95.5 44.41 148.1 53.1 148.1 55.68 95.5 46.99"/></g></g></g></svg>