<svg xmlns="http://www.w3.org/2000/svg" viewBox="0 0 95.43 63.37"><defs><style>.cls-1{fill:#f8ad17;}.cls-2{opacity:0.9;isolation:isolate;}.cls-3{fill:#fff;}.cls-4{font-size:8px;font-family:OpenSans-Light, Open Sans;font-weight:300;}.cls-4,.cls-5{fill:#1d1d1b;}</style></defs><g id="Layer_2" data-name="Layer 2"><g id="Layer_1-2" data-name="Layer 1"><path class="cls-1" d="M66.68,60.17C97.31,46.71,104.47,5.42,56.36.65c-30.68-6.19-89,33.47-20,60A39.91,39.91,0,0,0,66.68,60.17Z"/><g class="cls-2"><path class="cls-3" d="M66.68,60.17C97.31,46.71,104.47,5.42,56.36.65c-30.68-6.19-89,33.47-20,60A39.91,39.91,0,0,0,66.68,60.17Z"/></g><text class="cls-4" transform="translate(9.32 54.72)">Skip the queue, pop-in!</text><path class="cls-5" d="M10.7,15.22A3.82,3.82,0,0,0,7.36,17a8.46,8.46,0,0,0-1.2,4.83c0,4.27,1.63,6.4,4.87,6.4a9.84,9.84,0,0,0,2.86-.41,28.69,28.69,0,0,0,2.77-1v5.07a15.33,15.33,0,0,1-6.28,1.23q-5,0-7.7-2.92T0,21.78a13.38,13.38,0,0,1,1.3-6.06,9.28,9.28,0,0,1,3.73-4,11.21,11.21,0,0,1,5.73-1.4,15.76,15.76,0,0,1,6.87,1.56L15.8,16.59a19.29,19.29,0,0,0-2.46-1A8.39,8.39,0,0,0,10.7,15.22Z"/><path class="cls-5" d="M37.06,22.42A9.09,9.09,0,0,1,34.79,29a8.37,8.37,0,0,1-6.35,2.36,8.22,8.22,0,0,1-6.23-2.41,9,9,0,0,1-2.31-6.52,9,9,0,0,1,2.26-6.54,8.51,8.51,0,0,1,6.37-2.33A9.08,9.08,0,0,1,33,14.63a7.45,7.45,0,0,1,3,3.09A10,10,0,0,1,37.06,22.42Zm-11.14,0a7.68,7.68,0,0,0,.59,3.37,2.06,2.06,0,0,0,2,1.16,2,2,0,0,0,1.95-1.16A7.87,7.87,0,0,0,31,22.42a7.45,7.45,0,0,0-.58-3.33,2,2,0,0,0-2-1.12,2.06,2.06,0,0,0-2,1.11A7.45,7.45,0,0,0,25.92,22.42Z"/><path class="cls-5" d="M51.3,37.22V27.84a5.37,5.37,0,0,0-.5-2.59,1.69,1.69,0,0,0-1.58-.87,2.28,2.28,0,0,0-2.17,1.2,9,9,0,0,0-.67,4.11v7.53H40.44V20h4.48l.75,2.13H46a4.69,4.69,0,0,1,2.11-1.82,7.3,7.3,0,0,1,3.08-.61,5.85,5.85,0,0,1,4.44,1.65A6.47,6.47,0,0,1,57.23,26V37.22Z"/><path class="cls-5" d="M77.49,20.9v2.87l-2.35.87a4.2,4.2,0,0,1,.48,2.05,5.18,5.18,0,0,1-2,4.31q-2,1.53-5.82,1.53a7.7,7.7,0,0,1-1.52-.12,1.58,1.58,0,0,0-.21.74c0,.3.24.52.72.68a6.26,6.26,0,0,0,1.86.23h2.86c3.85,0,5.78,1.63,5.78,4.87a5.51,5.51,0,0,1-2.68,4.89,13.76,13.76,0,0,1-7.52,1.75,10.73,10.73,0,0,1-5.64-1.23,3.88,3.88,0,0,1-2-3.51q0-3.07,3.83-4A3.45,3.45,0,0,1,62,35.78a2.4,2.4,0,0,1-.58-1.48,2.32,2.32,0,0,1,.44-1.41,6.46,6.46,0,0,1,1.83-1.47,4.54,4.54,0,0,1-2.1-1.85,5.8,5.8,0,0,1-.76-3.07,5.26,5.26,0,0,1,1.91-4.35,8.48,8.48,0,0,1,5.46-1.55c.32,0,.86,0,1.63.11s1.33.13,1.69.19Zm-13,19.34a1.31,1.31,0,0,0,.79,1.17,4.24,4.24,0,0,0,2.11.45,9.13,9.13,0,0,0,3.45-.54c.87-.36,1.3-.82,1.3-1.38a1,1,0,0,0-.79-1,7,7,0,0,0-2.26-.28H66.81a2.81,2.81,0,0,0-1.62.45A1.3,1.3,0,0,0,64.53,40.24ZM66.4,26.53c0,1.77.61,2.65,1.83,2.65a1.49,1.49,0,0,0,1.31-.66A3.34,3.34,0,0,0,70,26.57c0-1.79-.59-2.68-1.78-2.68S66.4,24.77,66.4,26.53Z"/><path class="cls-5" d="M91.31,32.81l-1.13-2.27h-.12a6.73,6.73,0,0,1-2.45,2,8.14,8.14,0,0,1-3.22.55,5.06,5.06,0,0,1-3.82-1.46,5.69,5.69,0,0,1-1.4-4.1,4.66,4.66,0,0,1,1.92-4.09A10.48,10.48,0,0,1,86.63,22l2.86-.09v-.24A1.86,1.86,0,0,0,87.4,19.5a12.51,12.51,0,0,0-4.78,1.28L80.9,16.86a16.56,16.56,0,0,1,7.59-1.55A7.38,7.38,0,0,1,93.61,17a5.88,5.88,0,0,1,1.82,4.59V32.81Zm-4.4-3.88a2.67,2.67,0,0,0,1.85-.69,2.24,2.24,0,0,0,.76-1.77V25.13l-1.36.06c-2,.07-2.93.79-2.93,2.16C85.23,28.4,85.79,28.93,86.91,28.93Z"/></g></g></svg>