<svg viewBox="0 0 95.43 63.37" xmlns="http://www.w3.org/2000/svg"><path d="m66.68 60.17c30.63-13.46 37.79-54.75-10.32-59.52-30.68-6.19-89 33.47-20 60a39.91 39.91 0 0 0 30.32-.48z" fill="#fef6e1"/><g fill="#1d1d1b"><path d="m13.28 53.25a1.38 1.38 0 0 1 -.53 1.13 2.15 2.15 0 0 1 -1.39.42 4.47 4.47 0 0 1 -1.61-.23v-.4a4.17 4.17 0 0 0 1.58.26 1.79 1.79 0 0 0 1.11-.32 1 1 0 0 0 .41-.85 1 1 0 0 0 -.13-.53 1.18 1.18 0 0 0 -.45-.39 5 5 0 0 0 -.91-.38 3.09 3.09 0 0 1 -1.2-.65 1.25 1.25 0 0 1 -.34-.93 1.3 1.3 0 0 1 .5-1.05 2 2 0 0 1 1.29-.4 3.89 3.89 0 0 1 1.52.3l-.15.35a3.49 3.49 0 0 0 -1.36-.3 1.64 1.64 0 0 0 -1 .29 1 1 0 0 0 -.37.8 1.14 1.14 0 0 0 .11.52 1.1 1.1 0 0 0 .38.36 5.29 5.29 0 0 0 .9.39 5.16 5.16 0 0 1 1 .45 1.35 1.35 0 0 1 .49.49 1.3 1.3 0 0 1 .15.67z"/><path d="m14.77 52.86 2.16-2.39h.47l-1.67 1.82 1.82 2.43h-.47l-1.61-2.14-.7.63v1.51h-.38v-6.08h.38v3 1.17z"/><path d="m18.2 49.3c0-.25.09-.38.25-.38a.22.22 0 0 1 .19.1.45.45 0 0 1 .07.28.45.45 0 0 1 -.07.27.22.22 0 0 1 -.19.1c-.16 0-.25-.12-.25-.37zm.45 5.42h-.39v-4.25h.39z"/><path d="m21.88 54.8a1.56 1.56 0 0 1 -1.43-.74v.33.64 1.61h-.38v-6.17h.33l.07.61a1.55 1.55 0 0 1 1.4-.69 1.57 1.57 0 0 1 1.33.61 2.56 2.56 0 0 1 .45 1.64 2.45 2.45 0 0 1 -.47 1.62 1.58 1.58 0 0 1 -1.3.54zm0-.34a1.2 1.2 0 0 0 1-.49 2.28 2.28 0 0 0 .35-1.35c0-1.25-.45-1.88-1.35-1.88a1.37 1.37 0 0 0 -1.09.41 2.06 2.06 0 0 0 -.35 1.33v.13a2.35 2.35 0 0 0 .35 1.39 1.3 1.3 0 0 0 1.09.46z"/><path d="m28 54.46a3 3 0 0 0 .64-.07v.32a2.13 2.13 0 0 1 -.65.09 1.07 1.07 0 0 1 -.83-.3 1.4 1.4 0 0 1 -.27-1v-2.69h-.63v-.23l.63-.17.2-1h.2v1h1.24v.34h-1.21v2.75a1.27 1.27 0 0 0 .17.72.61.61 0 0 0 .51.24z"/><path d="m32.55 54.72v-2.72a1.32 1.32 0 0 0 -.27-.93 1.08 1.08 0 0 0 -.84-.3 1.41 1.41 0 0 0 -1.11.39 1.8 1.8 0 0 0 -.33 1.22v2.34h-.38v-6.08h.38v1.94.54a1.46 1.46 0 0 1 .6-.56 2.24 2.24 0 0 1 .91-.17c1 0 1.44.52 1.44 1.55v2.78z"/><path d="m36 54.8a1.83 1.83 0 0 1 -1.44-.57 2.27 2.27 0 0 1 -.52-1.6 2.52 2.52 0 0 1 .5-1.63 1.66 1.66 0 0 1 1.35-.61 1.45 1.45 0 0 1 1.18.53 2.15 2.15 0 0 1 .43 1.42v.31h-3.03a2 2 0 0 0 .4 1.34 1.47 1.47 0 0 0 1.15.46 4 4 0 0 0 .64-.05 4.82 4.82 0 0 0 .7-.22v.35a3.21 3.21 0 0 1 -1.36.27zm-.11-4.06a1.28 1.28 0 0 0 -1 .4 2 2 0 0 0 -.43 1.17h2.62a1.82 1.82 0 0 0 -.32-1.16 1.05 1.05 0 0 0 -.85-.41z"/><path d="m42.29 54.8a1.6 1.6 0 0 1 -1.3-.56 2.42 2.42 0 0 1 -.46-1.6 2.62 2.62 0 0 1 .47-1.64 1.59 1.59 0 0 1 1.32-.59 1.57 1.57 0 0 1 1.38.68l.07-.6h.33v6.17h-.38v-1.66c0-.32 0-.65 0-1a1.59 1.59 0 0 1 -1.43.8zm0-.34a1.33 1.33 0 0 0 1.11-.46 2.37 2.37 0 0 0 .33-1.43v-.05a2.26 2.26 0 0 0 -.33-1.38 1.29 1.29 0 0 0 -1.06-.43 1.24 1.24 0 0 0 -1.05.49 2.36 2.36 0 0 0 -.36 1.42 2.2 2.2 0 0 0 .35 1.38 1.22 1.22 0 0 0 1.01.46z"/><path d="m45.87 50.47v2.75a1.37 1.37 0 0 0 .27.94 1.11 1.11 0 0 0 .84.29 1.44 1.44 0 0 0 1.11-.39 1.77 1.77 0 0 0 .36-1.24v-2.35h.38v4.25h-.33l-.07-.59a1.59 1.59 0 0 1 -1.47.67c-1 0-1.45-.52-1.45-1.55v-2.78z"/><path d="m52 54.8a1.83 1.83 0 0 1 -1.44-.57 2.27 2.27 0 0 1 -.52-1.6 2.52 2.52 0 0 1 .5-1.63 1.66 1.66 0 0 1 1.35-.61 1.45 1.45 0 0 1 1.18.53 2.15 2.15 0 0 1 .43 1.42v.31h-3a2 2 0 0 0 .4 1.34 1.47 1.47 0 0 0 1.15.46 4.06 4.06 0 0 0 .64-.05 5.23 5.23 0 0 0 .7-.22v.35a3.62 3.62 0 0 1 -.67.21 3.48 3.48 0 0 1 -.72.06zm-.11-4.06a1.28 1.28 0 0 0 -1 .4 2 2 0 0 0 -.43 1.17h2.62a1.82 1.82 0 0 0 -.32-1.16 1.06 1.06 0 0 0 -.9-.41z"/><path d="m55 50.47v2.75a1.37 1.37 0 0 0 .27.94 1.11 1.11 0 0 0 .84.29 1.44 1.44 0 0 0 1.11-.39 1.77 1.77 0 0 0 .36-1.24v-2.35h.38v4.25h-.33l-.07-.59a1.59 1.59 0 0 1 -1.47.67c-1 0-1.45-.52-1.45-1.55v-2.78z"/><path d="m61.08 54.8a1.83 1.83 0 0 1 -1.44-.57 2.27 2.27 0 0 1 -.52-1.6 2.52 2.52 0 0 1 .5-1.63 1.66 1.66 0 0 1 1.38-.61 1.45 1.45 0 0 1 1.18.53 2.15 2.15 0 0 1 .43 1.42v.31h-3.09a2.1 2.1 0 0 0 .41 1.35 1.47 1.47 0 0 0 1.15.46 4.06 4.06 0 0 0 .64-.05 5.23 5.23 0 0 0 .7-.22v.35a3.62 3.62 0 0 1 -.67.21 3.48 3.48 0 0 1 -.67.05zm-.08-4.06a1.28 1.28 0 0 0 -1 .4 1.89 1.89 0 0 0 -.43 1.17h2.62a1.82 1.82 0 0 0 -.32-1.16 1.06 1.06 0 0 0 -.87-.41z"/><path d="m64.2 53.79v.08a12.11 12.11 0 0 1 -.68 1.88h-.25a16.39 16.39 0 0 0 .43-2z"/><path d="m69.37 54.8a1.55 1.55 0 0 1 -1.43-.74v.33.64 1.61h-.39v-6.17h.33l.07.61a1.53 1.53 0 0 1 1.4-.69 1.57 1.57 0 0 1 1.31.57 2.56 2.56 0 0 1 .45 1.64 2.45 2.45 0 0 1 -.48 1.62 1.55 1.55 0 0 1 -1.26.58zm0-.34a1.2 1.2 0 0 0 1-.49 2.21 2.21 0 0 0 .36-1.35c0-1.25-.45-1.88-1.35-1.88a1.35 1.35 0 0 0 -1.09.41 2 2 0 0 0 -.35 1.33v.13a2.35 2.35 0 0 0 .33 1.39 1.33 1.33 0 0 0 1.09.46z"/><path d="m75.83 52.59a2.41 2.41 0 0 1 -.51 1.63 1.76 1.76 0 0 1 -1.39.58 1.74 1.74 0 0 1 -1.64-1 2.87 2.87 0 0 1 -.22-1.17 2.43 2.43 0 0 1 .5-1.62 1.77 1.77 0 0 1 1.43-.62 1.71 1.71 0 0 1 1.38.59 2.42 2.42 0 0 1 .45 1.61zm-3.36 0a2.15 2.15 0 0 0 .39 1.41 1.33 1.33 0 0 0 1.09.49 1.3 1.3 0 0 0 1.05-.49 2.15 2.15 0 0 0 .39-1.37 2.12 2.12 0 0 0 -.39-1.4 1.33 1.33 0 0 0 -1.09-.49 1.3 1.3 0 0 0 -1.09.49 2.16 2.16 0 0 0 -.35 1.36z"/><path d="m78.82 54.8a1.55 1.55 0 0 1 -1.43-.74v.33.64 1.61h-.39v-6.17h.33l.07.61a1.52 1.52 0 0 1 1.4-.69 1.57 1.57 0 0 1 1.31.57 2.56 2.56 0 0 1 .45 1.64 2.45 2.45 0 0 1 -.48 1.62 1.57 1.57 0 0 1 -1.26.58zm0-.34a1.2 1.2 0 0 0 1-.49 2.21 2.21 0 0 0 .36-1.35c0-1.25-.45-1.88-1.35-1.88a1.35 1.35 0 0 0 -1.09.41 2 2 0 0 0 -.35 1.33v.13a2.35 2.35 0 0 0 .33 1.39 1.32 1.32 0 0 0 1.09.46z"/><path d="m81.41 52.72v-.32h1.86v.32z"/><path d="m84.28 49.3c0-.25.08-.38.25-.38a.22.22 0 0 1 .19.1.52.52 0 0 1 .07.28.54.54 0 0 1 -.07.27.22.22 0 0 1 -.19.1c-.17 0-.25-.12-.25-.37zm.44 5.42h-.38v-4.25h.38z"/><path d="m89.11 54.72v-2.72a1.32 1.32 0 0 0 -.27-.93 1.08 1.08 0 0 0 -.84-.3 1.41 1.41 0 0 0 -1.11.39 1.8 1.8 0 0 0 -.36 1.25v2.34h-.38v-4.28h.32l.08.59a1.59 1.59 0 0 1 1.45-.67c1 0 1.45.52 1.45 1.55v2.78z"/><path d="m90.79 54.42c0-.26.11-.39.32-.39s.32.13.32.39-.11.38-.32.38-.32-.13-.32-.38zm.44-1.17h-.23l-.12-4.25h.46z"/><path d="m10.7 15.22a3.82 3.82 0 0 0 -3.34 1.78 8.46 8.46 0 0 0 -1.2 4.83c0 4.27 1.63 6.4 4.87 6.4a9.84 9.84 0 0 0 2.86-.41 28.69 28.69 0 0 0 2.77-1v5.07a15.33 15.33 0 0 1 -6.28 1.23q-5 0-7.7-2.92t-2.68-8.42a13.38 13.38 0 0 1 1.3-6.06 9.28 9.28 0 0 1 3.73-4 11.21 11.21 0 0 1 5.73-1.4 15.76 15.76 0 0 1 6.87 1.56l-1.83 4.71a19.29 19.29 0 0 0 -2.46-1 8.39 8.39 0 0 0 -2.64-.37z"/><path d="m37.06 22.42a9.09 9.09 0 0 1 -2.27 6.58 8.37 8.37 0 0 1 -6.35 2.36 8.22 8.22 0 0 1 -6.23-2.41 9 9 0 0 1 -2.31-6.52 9 9 0 0 1 2.26-6.54 8.51 8.51 0 0 1 6.37-2.33 9.08 9.08 0 0 1 4.47 1.07 7.45 7.45 0 0 1 3 3.09 10 10 0 0 1 1.06 4.7zm-11.14 0a7.68 7.68 0 0 0 .59 3.37 2.06 2.06 0 0 0 2 1.16 2 2 0 0 0 1.95-1.16 7.87 7.87 0 0 0 .54-3.37 7.45 7.45 0 0 0 -.58-3.33 2 2 0 0 0 -2-1.12 2.06 2.06 0 0 0 -2 1.11 7.45 7.45 0 0 0 -.5 3.34z"/><path d="m51.3 37.22v-9.38a5.37 5.37 0 0 0 -.5-2.59 1.69 1.69 0 0 0 -1.58-.87 2.28 2.28 0 0 0 -2.17 1.2 9 9 0 0 0 -.67 4.11v7.53h-5.94v-17.22h4.48l.75 2.13h.33a4.69 4.69 0 0 1 2.11-1.82 7.3 7.3 0 0 1 3.08-.61 5.85 5.85 0 0 1 4.44 1.65 6.47 6.47 0 0 1 1.6 4.65v11.22z"/><path d="m77.49 20.9v2.87l-2.35.87a4.2 4.2 0 0 1 .48 2.05 5.18 5.18 0 0 1 -2 4.31q-2 1.53-5.82 1.53a7.7 7.7 0 0 1 -1.52-.12 1.58 1.58 0 0 0 -.21.74c0 .3.24.52.72.68a6.26 6.26 0 0 0 1.86.23h2.86c3.85 0 5.78 1.63 5.78 4.87a5.51 5.51 0 0 1 -2.68 4.89 13.76 13.76 0 0 1 -7.52 1.75 10.73 10.73 0 0 1 -5.64-1.23 3.88 3.88 0 0 1 -2-3.51q0-3.07 3.83-4a3.45 3.45 0 0 1 -1.28-1.05 2.4 2.4 0 0 1 -.58-1.48 2.32 2.32 0 0 1 .44-1.41 6.46 6.46 0 0 1 1.83-1.47 4.54 4.54 0 0 1 -2.1-1.85 5.8 5.8 0 0 1 -.76-3.07 5.26 5.26 0 0 1 1.91-4.35 8.48 8.48 0 0 1 5.46-1.55c.32 0 .86 0 1.63.11s1.33.13 1.69.19zm-13 19.34a1.31 1.31 0 0 0 .79 1.17 4.24 4.24 0 0 0 2.11.45 9.13 9.13 0 0 0 3.45-.54c.87-.36 1.3-.82 1.3-1.38a1 1 0 0 0 -.79-1 7 7 0 0 0 -2.26-.28h-2.28a2.81 2.81 0 0 0 -1.62.45 1.3 1.3 0 0 0 -.66 1.13zm1.91-13.71c0 1.77.61 2.65 1.83 2.65a1.49 1.49 0 0 0 1.31-.66 3.34 3.34 0 0 0 .46-1.95c0-1.79-.59-2.68-1.78-2.68s-1.82.88-1.82 2.64z"/><path d="m91.31 32.81-1.13-2.27h-.12a6.73 6.73 0 0 1 -2.45 2 8.14 8.14 0 0 1 -3.22.55 5.06 5.06 0 0 1 -3.82-1.46 5.69 5.69 0 0 1 -1.4-4.1 4.66 4.66 0 0 1 1.92-4.09 10.48 10.48 0 0 1 5.54-1.44l2.86-.09v-.24a1.86 1.86 0 0 0 -2.09-2.17 12.51 12.51 0 0 0 -4.78 1.28l-1.72-3.92a16.56 16.56 0 0 1 7.59-1.55 7.38 7.38 0 0 1 5.12 1.69 5.88 5.88 0 0 1 1.82 4.59v11.22zm-4.4-3.88a2.67 2.67 0 0 0 1.85-.69 2.24 2.24 0 0 0 .76-1.77v-1.34l-1.36.06c-2 .07-2.93.79-2.93 2.16 0 1.05.56 1.58 1.68 1.58z"/></g></svg>