<svg viewBox="0 0 95.43 63.37" xmlns="http://www.w3.org/2000/svg"><path d="m66.68 60.17c30.63-13.46 37.79-54.75-10.32-59.52-30.68-6.19-89 33.47-20 60a39.91 39.91 0 0 0 30.32-.48z" fill="#fef6e1"/><g fill="#1d1d1b"><path d="m11.68 53.25a1.38 1.38 0 0 1 -.53 1.13 2.15 2.15 0 0 1 -1.39.42 4.47 4.47 0 0 1 -1.61-.23v-.4a4.17 4.17 0 0 0 1.58.26 1.79 1.79 0 0 0 1.11-.32 1 1 0 0 0 .41-.85 1 1 0 0 0 -.13-.53 1.18 1.18 0 0 0 -.45-.39 4.84 4.84 0 0 0 -.9-.38 3.07 3.07 0 0 1 -1.21-.65 1.25 1.25 0 0 1 -.34-.93 1.3 1.3 0 0 1 .5-1.05 2 2 0 0 1 1.3-.4 3.84 3.84 0 0 1 1.51.3l-.15.35a3.45 3.45 0 0 0 -1.36-.3 1.61 1.61 0 0 0 -1 .29 1 1 0 0 0 -.38.8 1 1 0 0 0 .12.52 1 1 0 0 0 .37.36 5.29 5.29 0 0 0 .9.39 5.16 5.16 0 0 1 1 .45 1.35 1.35 0 0 1 .49.49 1.3 1.3 0 0 1 .16.67z"/><path d="m15.37 54.72-.1-.67a2 2 0 0 1 -.66.58 1.81 1.81 0 0 1 -.8.17 1.38 1.38 0 0 1 -1-.32 1.15 1.15 0 0 1 -.35-.89 1.08 1.08 0 0 1 .52-1 2.85 2.85 0 0 1 1.5-.37h.8v-.22a1.45 1.45 0 0 0 -.24-.91 1 1 0 0 0 -.79-.31 2.75 2.75 0 0 0 -1.23.32l-.14-.33a3.21 3.21 0 0 1 1.38-.33 1.39 1.39 0 0 1 1.05.36 1.62 1.62 0 0 1 .34 1.14v2.82zm-1.57-.27a1.48 1.48 0 0 0 1.08-.39 1.46 1.46 0 0 0 .39-1.06v-.42h-.74a2.82 2.82 0 0 0 -1.28.28.91.91 0 0 0 -.14 1.36 1.06 1.06 0 0 0 .69.23z"/><path d="m17.36 50.47v2.75a1.37 1.37 0 0 0 .27.94 1.11 1.11 0 0 0 .84.29 1.43 1.43 0 0 0 1.11-.39 1.77 1.77 0 0 0 .36-1.24v-2.35h.38v4.25h-.32l-.07-.59a1.57 1.57 0 0 1 -1.47.67c-1 0-1.45-.52-1.45-1.55v-2.78z"/><path d="m22.87 54.46a3.06 3.06 0 0 0 .64-.07v.32a2.17 2.17 0 0 1 -.65.09 1.05 1.05 0 0 1 -.83-.3 1.4 1.4 0 0 1 -.27-1v-2.69h-.63v-.23l.63-.17.2-1h.2v1h1.24v.34h-1.24v2.75a1.2 1.2 0 0 0 .17.72.61.61 0 0 0 .54.24z"/><path d="m26.14 54.8a1.83 1.83 0 0 1 -1.44-.57 2.27 2.27 0 0 1 -.52-1.6 2.52 2.52 0 0 1 .5-1.63 1.66 1.66 0 0 1 1.32-.61 1.45 1.45 0 0 1 1.18.53 2.15 2.15 0 0 1 .43 1.42v.31h-3.02a2 2 0 0 0 .41 1.35 1.47 1.47 0 0 0 1.15.46 4 4 0 0 0 .64-.05 5.23 5.23 0 0 0 .7-.22v.35a3.21 3.21 0 0 1 -1.34.27zm-.14-4.06a1.28 1.28 0 0 0 -1 .4 2 2 0 0 0 -.43 1.17h2.62a1.82 1.82 0 0 0 -.32-1.16 1.06 1.06 0 0 0 -.87-.41z"/><path d="m31.46 54.72h-3v-.25l2.51-3.65h-2.36v-.35h2.84v.25l-2.54 3.66h2.55z"/><path d="m35 54.72h-.39v-6.08h.39z"/><path d="m39 54.72-.1-.67a1.94 1.94 0 0 1 -.66.58 1.78 1.78 0 0 1 -.8.17 1.4 1.4 0 0 1 -1-.32 1.15 1.15 0 0 1 -.35-.89 1.08 1.08 0 0 1 .52-1 2.85 2.85 0 0 1 1.5-.37h.81v-.22a1.45 1.45 0 0 0 -.25-.91.94.94 0 0 0 -.79-.31 2.78 2.78 0 0 0 -1.23.32l-.14-.33a3.24 3.24 0 0 1 1.38-.33 1.39 1.39 0 0 1 1 .36 1.62 1.62 0 0 1 .34 1.14v2.82zm-1.56-.27a1.35 1.35 0 0 0 1.43-1.45v-.42h-.74a2.82 2.82 0 0 0 -1.28.28.81.81 0 0 0 -.38.74.79.79 0 0 0 .25.62 1 1 0 0 0 .69.23z"/><path d="m44.22 54.8a1.6 1.6 0 0 1 -1.3-.56 2.42 2.42 0 0 1 -.46-1.6 2.62 2.62 0 0 1 .46-1.64 1.59 1.59 0 0 1 1.32-.59 1.55 1.55 0 0 1 1.38.68l.07-.6h.31v6.17h-.38v-1.66c0-.32 0-.65 0-1a1.59 1.59 0 0 1 -1.4.8zm0-.34a1.32 1.32 0 0 0 1.1-.43 2.37 2.37 0 0 0 .33-1.43v-.05a2.26 2.26 0 0 0 -.33-1.38 1.28 1.28 0 0 0 -1.06-.43 1.24 1.24 0 0 0 -1.05.49 2.44 2.44 0 0 0 -.35 1.42 2.13 2.13 0 0 0 .36 1.35 1.21 1.21 0 0 0 1.01.46z"/><path d="m47.8 50.47v2.75a1.37 1.37 0 0 0 .27.94 1.11 1.11 0 0 0 .84.29 1.43 1.43 0 0 0 1.09-.39 1.77 1.77 0 0 0 .36-1.24v-2.35h.39v4.25h-.33l-.07-.59a1.57 1.57 0 0 1 -1.47.67c-1 0-1.45-.52-1.45-1.55v-2.78z"/><path d="m53.9 54.8a1.83 1.83 0 0 1 -1.44-.57 2.27 2.27 0 0 1 -.52-1.6 2.52 2.52 0 0 1 .5-1.63 1.66 1.66 0 0 1 1.35-.61 1.45 1.45 0 0 1 1.18.53 2.15 2.15 0 0 1 .44 1.42v.31h-3.06a2 2 0 0 0 .41 1.35 1.43 1.43 0 0 0 1.14.46 4 4 0 0 0 .64-.05 4.82 4.82 0 0 0 .7-.22v.35a3.21 3.21 0 0 1 -1.34.27zm-.11-4.06a1.28 1.28 0 0 0 -1 .4 2 2 0 0 0 -.43 1.17h2.64a1.88 1.88 0 0 0 -.32-1.16 1.08 1.08 0 0 0 -.89-.41z"/><path d="m56.91 50.47v2.75a1.37 1.37 0 0 0 .27.94 1.11 1.11 0 0 0 .84.29 1.43 1.43 0 0 0 1.11-.39 1.77 1.77 0 0 0 .36-1.24v-2.35h.38v4.25h-.32l-.07-.59a1.57 1.57 0 0 1 -1.48.67c-1 0-1.45-.52-1.45-1.55v-2.78z"/><path d="m63 54.8a1.83 1.83 0 0 1 -1.44-.57 2.27 2.27 0 0 1 -.52-1.6 2.52 2.52 0 0 1 .5-1.63 1.66 1.66 0 0 1 1.35-.61 1.45 1.45 0 0 1 1.18.53 2.15 2.15 0 0 1 .44 1.42v.31h-3.05a2 2 0 0 0 .4 1.34 1.47 1.47 0 0 0 1.15.46 4 4 0 0 0 .64-.05 4.82 4.82 0 0 0 .7-.22v.35a3.21 3.21 0 0 1 -1.35.27zm-.11-4.06a1.28 1.28 0 0 0 -1 .4 2 2 0 0 0 -.43 1.17h2.63a1.82 1.82 0 0 0 -.33-1.16 1.05 1.05 0 0 0 -.86-.41z"/><path d="m66.13 53.79.05.08a14.6 14.6 0 0 1 -.68 1.88h-.26a14.64 14.64 0 0 0 .43-2z"/><path d="m71.2 54.8a1.83 1.83 0 0 1 -1.44-.57 2.27 2.27 0 0 1 -.52-1.6 2.46 2.46 0 0 1 .5-1.63 1.66 1.66 0 0 1 1.35-.61 1.45 1.45 0 0 1 1.18.53 2.15 2.15 0 0 1 .43 1.42v.31h-3.06a2.1 2.1 0 0 0 .41 1.35 1.47 1.47 0 0 0 1.15.46 4.06 4.06 0 0 0 .64-.05 4.75 4.75 0 0 0 .69-.22v.35a3.33 3.33 0 0 1 -.66.21 3.48 3.48 0 0 1 -.67.05zm-.11-4.06a1.28 1.28 0 0 0 -1 .4 1.89 1.89 0 0 0 -.43 1.17h2.62a1.82 1.82 0 0 0 -.28-1.16 1.06 1.06 0 0 0 -.91-.41z"/><path d="m76.84 54.72v-2.72a1.32 1.32 0 0 0 -.27-.93 1.08 1.08 0 0 0 -.84-.3 1.45 1.45 0 0 0 -1.12.39 1.85 1.85 0 0 0 -.35 1.25v2.34h-.39v-4.28h.33l.08.59a1.59 1.59 0 0 1 1.47-.67c1 0 1.45.52 1.45 1.55v2.78z"/><path d="m79.71 54.46a3.08 3.08 0 0 0 .65-.07v.32a2.17 2.17 0 0 1 -.65.09 1.05 1.05 0 0 1 -.83-.3 1.4 1.4 0 0 1 -.27-1v-2.69h-.61v-.23l.63-.17.19-1h.18v1h1.25v.34h-1.25v2.75a1.19 1.19 0 0 0 .18.72.6.6 0 0 0 .53.24z"/><path d="m82.94 50.39a3 3 0 0 1 .58.06l-.07.37a2 2 0 0 0 -.55-.07 1.09 1.09 0 0 0 -.89.46 1.91 1.91 0 0 0 -.35 1.17v2.34h-.39v-4.25h.33v.77a1.8 1.8 0 0 1 .56-.66 1.32 1.32 0 0 1 .78-.19z"/><path d="m86.1 54.8a1.83 1.83 0 0 1 -1.44-.57 2.27 2.27 0 0 1 -.52-1.6 2.52 2.52 0 0 1 .5-1.63 1.66 1.66 0 0 1 1.36-.61 1.45 1.45 0 0 1 1.18.53 2.15 2.15 0 0 1 .44 1.42v.31h-3.07a2 2 0 0 0 .45 1.35 1.47 1.47 0 0 0 1.15.46 4 4 0 0 0 .64-.05 4.82 4.82 0 0 0 .7-.22v.35a3.21 3.21 0 0 1 -1.34.27zm-.1-4.06a1.28 1.28 0 0 0 -1 .4 2 2 0 0 0 -.43 1.17h2.62a1.82 1.82 0 0 0 -.32-1.16 1.05 1.05 0 0 0 -.87-.41z"/><path d="m91.42 54.72h-3v-.25l2.52-3.65h-2.37v-.35h2.84v.25l-2.54 3.66h2.55z"/><path d="m92.39 54.42c0-.26.11-.39.32-.39s.32.13.32.39-.11.38-.32.38-.32-.13-.32-.38zm.44-1.17h-.24l-.11-4.25h.46z"/><path d="m10.7 15.22a3.82 3.82 0 0 0 -3.34 1.78 8.46 8.46 0 0 0 -1.2 4.83c0 4.27 1.63 6.4 4.87 6.4a9.84 9.84 0 0 0 2.86-.41 28.69 28.69 0 0 0 2.77-1v5.07a15.33 15.33 0 0 1 -6.28 1.23q-5 0-7.7-2.92t-2.68-8.42a13.38 13.38 0 0 1 1.3-6.06 9.28 9.28 0 0 1 3.73-4 11.21 11.21 0 0 1 5.73-1.4 15.76 15.76 0 0 1 6.87 1.56l-1.83 4.71a19.29 19.29 0 0 0 -2.46-1 8.39 8.39 0 0 0 -2.64-.37z"/><path d="m37.06 22.42a9.09 9.09 0 0 1 -2.27 6.58 8.37 8.37 0 0 1 -6.35 2.36 8.22 8.22 0 0 1 -6.23-2.41 9 9 0 0 1 -2.31-6.52 9 9 0 0 1 2.26-6.54 8.51 8.51 0 0 1 6.37-2.33 9.08 9.08 0 0 1 4.47 1.07 7.45 7.45 0 0 1 3 3.09 10 10 0 0 1 1.06 4.7zm-11.14 0a7.68 7.68 0 0 0 .59 3.37 2.06 2.06 0 0 0 2 1.16 2 2 0 0 0 1.95-1.16 7.87 7.87 0 0 0 .54-3.37 7.45 7.45 0 0 0 -.58-3.33 2 2 0 0 0 -2-1.12 2.06 2.06 0 0 0 -2 1.11 7.45 7.45 0 0 0 -.5 3.34z"/><path d="m51.3 37.22v-9.38a5.37 5.37 0 0 0 -.5-2.59 1.69 1.69 0 0 0 -1.58-.87 2.28 2.28 0 0 0 -2.17 1.2 9 9 0 0 0 -.67 4.11v7.53h-5.94v-17.22h4.48l.75 2.13h.33a4.69 4.69 0 0 1 2.11-1.82 7.3 7.3 0 0 1 3.08-.61 5.85 5.85 0 0 1 4.44 1.65 6.47 6.47 0 0 1 1.6 4.65v11.22z"/><path d="m77.49 20.9v2.87l-2.35.87a4.2 4.2 0 0 1 .48 2.05 5.18 5.18 0 0 1 -2 4.31q-2 1.53-5.82 1.53a7.7 7.7 0 0 1 -1.52-.12 1.58 1.58 0 0 0 -.21.74c0 .3.24.52.72.68a6.26 6.26 0 0 0 1.86.23h2.86c3.85 0 5.78 1.63 5.78 4.87a5.51 5.51 0 0 1 -2.68 4.89 13.76 13.76 0 0 1 -7.52 1.75 10.73 10.73 0 0 1 -5.64-1.23 3.88 3.88 0 0 1 -2-3.51q0-3.07 3.83-4a3.45 3.45 0 0 1 -1.28-1.05 2.4 2.4 0 0 1 -.58-1.48 2.32 2.32 0 0 1 .44-1.41 6.46 6.46 0 0 1 1.83-1.47 4.54 4.54 0 0 1 -2.1-1.85 5.8 5.8 0 0 1 -.76-3.07 5.26 5.26 0 0 1 1.91-4.35 8.48 8.48 0 0 1 5.46-1.55c.32 0 .86 0 1.63.11s1.33.13 1.69.19zm-13 19.34a1.31 1.31 0 0 0 .79 1.17 4.24 4.24 0 0 0 2.11.45 9.13 9.13 0 0 0 3.45-.54c.87-.36 1.3-.82 1.3-1.38a1 1 0 0 0 -.79-1 7 7 0 0 0 -2.26-.28h-2.28a2.81 2.81 0 0 0 -1.62.45 1.3 1.3 0 0 0 -.66 1.13zm1.91-13.71c0 1.77.61 2.65 1.83 2.65a1.49 1.49 0 0 0 1.31-.66 3.34 3.34 0 0 0 .46-1.95c0-1.79-.59-2.68-1.78-2.68s-1.82.88-1.82 2.64z"/><path d="m91.31 32.81-1.13-2.27h-.12a6.73 6.73 0 0 1 -2.45 2 8.14 8.14 0 0 1 -3.22.55 5.06 5.06 0 0 1 -3.82-1.46 5.69 5.69 0 0 1 -1.4-4.1 4.66 4.66 0 0 1 1.92-4.09 10.48 10.48 0 0 1 5.54-1.44l2.86-.09v-.24a1.86 1.86 0 0 0 -2.09-2.17 12.51 12.51 0 0 0 -4.78 1.28l-1.72-3.92a16.56 16.56 0 0 1 7.59-1.55 7.38 7.38 0 0 1 5.12 1.69 5.88 5.88 0 0 1 1.82 4.59v11.22zm-4.4-3.88a2.67 2.67 0 0 0 1.85-.69 2.24 2.24 0 0 0 .76-1.77v-1.34l-1.36.06c-2 .07-2.93.79-2.93 2.16 0 1.05.56 1.58 1.68 1.58z"/></g></svg>