<svg xmlns="http://www.w3.org/2000/svg" viewBox="0 0 185.57 139.33"><defs><style>.cls-1{opacity:0.28;}.cls-2{font-size:10.08px;font-family:OpenSans-Bold, Open Sans;font-weight:700;}.cls-2,.cls-27{fill:#1d1d1b;}.cls-3{fill:#0aa;}.cls-10,.cls-14,.cls-22,.cls-25,.cls-4,.cls-6,.cls-7,.cls-9{fill:#fff;}.cls-4{opacity:0.9;}.cls-10,.cls-14,.cls-15,.cls-19,.cls-20,.cls-21,.cls-22,.cls-4,.cls-7,.cls-9{isolation:isolate;}.cls-5{fill:#f4f4f4;}.cls-7{opacity:0.5;}.cls-19,.cls-8{fill:#263238;}.cls-20,.cls-9{opacity:0.3;}.cls-10,.cls-19{opacity:0.8;}.cls-11,.cls-15{opacity:0.2;}.cls-12{fill:#f5f5f5;}.cls-13{fill:#ffc3bd;}.cls-14{opacity:0.7;}.cls-16{fill:#ed847e;}.cls-17{fill:#ffb573;}.cls-18{fill:#ed893e;}.cls-22{opacity:0.4;}.cls-23{fill:#b55b52;}.cls-24{fill:#a02725;}.cls-25{stroke:#0aa;stroke-miterlimit:10;stroke-width:0.64px;}.cls-26{fill:#00a9a9;}</style></defs><g id="Layer_2" data-name="Layer 2"><g id="Layer_1-2" data-name="Layer 1"><g class="cls-1"><text class="cls-2" transform="translate(96.39 136.38)"> </text><g id="freepik--background-simple--inject-56"><path class="cls-3" d="M136.1,44.71c-8.88-19.19-24.26-1.29-35-15-6.51-8.29-6.29-16-15.41-20.13C79.32,6.68,72.29,7.77,65.51,4.29,53.92-1.65,39.31-4.32,35.2,16.14c-1.71,8.54-1.16,20.23,6,29.92,6.14,8.25,14.37,4.28,20.87,10.63,12.41,12.15,3.07,39.21,21.07,46.39,15.81,6.3,22.49-17,38.6-10,12.08,5.22,31.88,19.32,38.67-6.66,2.89-11.07-2-19.41-8.28-24.56C143.52,54.7,141.93,57.3,136.1,44.71Z"/><path class="cls-4" d="M136.1,44.71c-8.88-19.19-24.26-1.29-35-15-6.51-8.29-6.29-16-15.41-20.13C79.32,6.68,72.29,7.77,65.51,4.29,53.92-1.65,39.31-4.32,35.2,16.14c-1.71,8.54-1.16,20.23,6,29.92,6.14,8.25,14.37,4.28,20.87,10.63,12.41,12.15,3.07,39.21,21.07,46.39,15.81,6.3,22.49-17,38.6-10,12.08,5.22,31.88,19.32,38.67-6.66,2.89-11.07-2-19.41-8.28-24.56C143.52,54.7,141.93,57.3,136.1,44.71Z"/></g><g id="freepik--Shadow--inject-56"><ellipse id="freepik--path--inject-56" class="cls-5" cx="97.24" cy="114.53" rx="58.52" ry="3.42"/></g><g id="freepik--Shop--inject-56"><rect class="cls-3" x="51.33" y="21.22" width="91.81" height="92.42"/><rect class="cls-6" x="74.54" y="30.58" width="45.4" height="10.36" rx="0.98"/><rect class="cls-3" x="76.31" y="31.92" width="41.85" height="7.68" rx="0.49"/><path class="cls-6" d="M78.3,37.24l2.41-.15a1.82,1.82,0,0,0,.3.9,1.35,1.35,0,0,0,1.12.5,1.27,1.27,0,0,0,.84-.25.77.77,0,0,0,.3-.61.74.74,0,0,0-.27-.57,3.18,3.18,0,0,0-1.31-.47,5.62,5.62,0,0,1-2.38-1A2,2,0,0,1,78.6,34,2.12,2.12,0,0,1,79,32.8a2.48,2.48,0,0,1,1.11-.89,5.13,5.13,0,0,1,2-.32,4.21,4.21,0,0,1,2.41.58,2.54,2.54,0,0,1,1,1.87l-2.39.14a1.12,1.12,0,0,0-1.16-1.07h-.08a1,1,0,0,0-.67.19.55.55,0,0,0-.22.45.44.44,0,0,0,.18.35,2,2,0,0,0,.86.31,10.53,10.53,0,0,1,2.38.72,2.47,2.47,0,0,1,1,.91,2.22,2.22,0,0,1,.33,1.2,2.68,2.68,0,0,1-.43,1.46,2.76,2.76,0,0,1-1.23,1,4.9,4.9,0,0,1-2,.34,4.11,4.11,0,0,1-2.9-.8A3.16,3.16,0,0,1,78.3,37.24Z"/><path class="cls-6" d="M88.06,31.75H90.6v2.87h2.77V31.75h2.55V40H93.37V36.63H90.6V40H88.06Z"/><path class="cls-6" d="M98.32,35.86a3.9,3.9,0,0,1,4.24-4.26,4.27,4.27,0,0,1,3.15,1.1,4.22,4.22,0,0,1,1.12,3.09,5.09,5.09,0,0,1-.49,2.36,3.51,3.51,0,0,1-1.4,1.43,4.58,4.58,0,0,1-2.27.51,5.21,5.21,0,0,1-2.3-.44,3.42,3.42,0,0,1-1.47-1.4A4.55,4.55,0,0,1,98.32,35.86Zm2.54,0a2.73,2.73,0,0,0,.46,1.78,1.74,1.74,0,0,0,2.47,0l0,0a3,3,0,0,0,.45-1.91,2.53,2.53,0,0,0-.47-1.69,1.62,1.62,0,0,0-1.27-.54,1.54,1.54,0,0,0-1.23.54,2.91,2.91,0,0,0-.46,1.83Z"/><path class="cls-6" d="M109.21,31.75h4.23a2.86,2.86,0,0,1,2.06.65,2.48,2.48,0,0,1,.69,1.87,2.52,2.52,0,0,1-.75,1.94,3.27,3.27,0,0,1-2.28.7h-1.39v3h-2.55Zm2.55,3.5h.62a1.63,1.63,0,0,0,1-.26.79.79,0,0,0,.3-.65.9.9,0,0,0-.26-.66,1.32,1.32,0,0,0-1-.27h-.72Z"/><path class="cls-7" d="M58.33,44.09h77.81a1.68,1.68,0,0,1,1.68,1.68v67.88H56.66V45.77a1.67,1.67,0,0,1,1.67-1.68Z"/><path class="cls-8" d="M51.33,113.65H48.06a1.36,1.36,0,0,1-1.36-1.36V21.22h4.63v92.43Z"/><path class="cls-8" d="M146.42,113.65h-3.27V21.22h4.62v91.07a1.35,1.35,0,0,1-1.35,1.36Z"/><polygon class="cls-9" points="118.31 44.09 107.91 44.09 89.84 113.65 100.23 113.65 118.31 44.09"/><polygon class="cls-9" points="125.97 44.09 121.53 44.09 103.46 113.65 107.9 113.65 125.97 44.09"/><polygon class="cls-9" points="89.4 44.09 84.96 44.09 66.89 113.65 71.33 113.65 89.4 44.09"/><rect class="cls-3" x="95.63" y="43.04" width="3.22" height="70.61"/><path class="cls-3" d="M153.91,24,141.23,7.21h-88L40.57,24c-1.45,2.16-.81,4,1.51,4a8.5,8.5,0,0,0,6.48-4h.11c-1.24,2.16-.42,4,1.89,4a7.57,7.57,0,0,0,6.11-4h.1c-1,2.16,0,4,2.28,4a6.72,6.72,0,0,0,5.73-4h.11c-.82,2.16.35,4,2.66,4a5.93,5.93,0,0,0,5.34-4H73a3,3,0,0,0,3,4A5.24,5.24,0,0,0,81,24h.11a3.31,3.31,0,0,0,3.43,4,4.65,4.65,0,0,0,4.57-4h.11A3.68,3.68,0,0,0,93,28a4.13,4.13,0,0,0,4.19-4h.11a4.13,4.13,0,0,0,4.19,4,3.68,3.68,0,0,0,3.8-4h.09A4.64,4.64,0,0,0,110,28a3.31,3.31,0,0,0,3.42-4h.11a5.24,5.24,0,0,0,5,4,3,3,0,0,0,3-4h.1a5.93,5.93,0,0,0,5.34,4c2.32,0,3.49-1.84,2.66-4h.11a6.7,6.7,0,0,0,5.73,4c2.33,0,3.32-1.84,2.28-4h.11a7.54,7.54,0,0,0,6.1,4c2.31,0,3.13-1.84,1.89-4h.11a8.52,8.52,0,0,0,6.49,4C154.72,28,155.36,26.14,153.91,24Z"/><path class="cls-10" d="M153.91,24,141.23,7.21h-88L40.57,24c-1.45,2.16-.81,4,1.51,4a8.5,8.5,0,0,0,6.48-4h.11c-1.24,2.16-.42,4,1.89,4a7.57,7.57,0,0,0,6.11-4h.1c-1,2.16,0,4,2.28,4a6.72,6.72,0,0,0,5.73-4h.11c-.82,2.16.35,4,2.66,4a5.93,5.93,0,0,0,5.34-4H73a3,3,0,0,0,3,4A5.24,5.24,0,0,0,81,24h.11a3.31,3.31,0,0,0,3.43,4,4.65,4.65,0,0,0,4.57-4h.11A3.68,3.68,0,0,0,93,28a4.13,4.13,0,0,0,4.19-4h.11a4.13,4.13,0,0,0,4.19,4,3.68,3.68,0,0,0,3.8-4h.09A4.64,4.64,0,0,0,110,28a3.31,3.31,0,0,0,3.42-4h.11a5.24,5.24,0,0,0,5,4,3,3,0,0,0,3-4h.1a5.93,5.93,0,0,0,5.34,4c2.32,0,3.49-1.84,2.66-4h.11a6.7,6.7,0,0,0,5.73,4c2.33,0,3.32-1.84,2.28-4h.11a7.54,7.54,0,0,0,6.1,4c2.31,0,3.13-1.84,1.89-4h.11a8.52,8.52,0,0,0,6.49,4C154.72,28,155.36,26.14,153.91,24Z"/><g class="cls-11"><polygon class="cls-3" points="53.24 7.21 59.45 7.21 48.56 23.98 40.56 23.98 53.24 7.21"/><polygon class="cls-3" points="65.83 7.21 72.03 7.21 64.77 23.98 56.77 23.98 65.83 7.21"/><polygon class="cls-3" points="78.41 7.21 84.61 7.21 80.98 23.98 72.98 23.98 78.41 7.21"/><polygon class="cls-3" points="90.99 7.21 97.19 7.21 97.18 23.98 89.19 23.98 90.99 7.21"/><polygon class="cls-3" points="103.57 7.21 109.78 7.21 113.39 23.98 105.39 23.98 103.57 7.21"/><polygon class="cls-3" points="116.15 7.21 122.36 7.21 129.6 23.98 121.61 23.98 116.15 7.21"/><polygon class="cls-3" points="128.73 7.21 134.94 7.21 145.81 23.98 137.81 23.98 128.73 7.21"/><path class="cls-3" d="M137.81,24a7.56,7.56,0,0,0,6.1,4c2.32,0,3.14-1.84,1.9-4"/><path class="cls-3" d="M121.6,24a5.93,5.93,0,0,0,5.34,4c2.32,0,3.49-1.84,2.66-4"/><path class="cls-3" d="M105.39,24A4.64,4.64,0,0,0,110,28a3.31,3.31,0,0,0,3.42-4"/><path class="cls-3" d="M89.19,24A3.68,3.68,0,0,0,93,28a4.13,4.13,0,0,0,4.19-4"/><path class="cls-3" d="M73,24a3,3,0,0,0,3,4,5.27,5.27,0,0,0,5-4"/><path class="cls-3" d="M56.77,24c-1,2.16,0,4,2.28,4a6.72,6.72,0,0,0,5.73-4"/><path class="cls-3" d="M40.56,24c-1.44,2.16-.8,4,1.51,4a8.5,8.5,0,0,0,6.49-4"/></g></g></g><g id="freepik--Shadow--inject-1"><ellipse id="freepik--path--inject-1" class="cls-12" cx="44.92" cy="123.31" rx="44.92" ry="2.56"/></g><g id="freepik--Shadow--inject-1-2" data-name="freepik--Shadow--inject-1"><ellipse id="freepik--path--inject-1-2" data-name="freepik--path--inject-1" class="cls-12" cx="150.21" cy="123.31" rx="35.36" ry="2.56"/></g><g id="freepik--character-1--inject-1"><path class="cls-8" d="M74.61,57.59c.47.66.32,1.15-.07,2.46-.16.54-.41,1.09-1.18.29s-1.52-2.33-.53-2.59A5.33,5.33,0,0,1,74.61,57.59Z"/><polygon class="cls-13" points="74.63 121.2 76.35 121.2 76.43 117.31 74.7 117.31 74.63 121.2"/><polygon class="cls-13" points="64.3 121.2 66.02 121.2 66.79 117.31 65.06 117.31 64.3 121.2"/><path class="cls-8" d="M66.14,121H64.2a.14.14,0,0,0-.14.11l-.31,1.5a.26.26,0,0,0,.22.29h0c.68,0,1,0,1.86,0,.52,0,1.6,0,2.32,0s.79-.7.5-.76a4.34,4.34,0,0,1-2.28-1.05A.45.45,0,0,0,66.14,121Z"/><path class="cls-8" d="M76.34,121H74.46a.16.16,0,0,0-.15.11l-.3,1.5a.26.26,0,0,0,.21.29h0c.67,0,1.65,0,2.51,0s1.85,0,3,0c.7,0,.89-.7.59-.76a10.84,10.84,0,0,1-3.63-1A.9.9,0,0,0,76.34,121Z"/><path class="cls-13" d="M75.89,68.12l2.35-.74s2.43,5.48,3.24,5.83A20.47,20.47,0,0,1,85.23,76,2.34,2.34,0,0,1,85,77.24,15.07,15.07,0,0,1,79.7,75C77.85,73.29,75.89,68.12,75.89,68.12Z"/><path class="cls-3" d="M75.34,66.86c-.66,1.47,2,6.13,2,6.13l3.51-1.58a20.53,20.53,0,0,0-1.74-4.1C78,65.43,76.07,65.24,75.34,66.86Z"/><path class="cls-14" d="M75.34,66.86c-.66,1.47,2,6.13,2,6.13l3.51-1.58a20.53,20.53,0,0,0-1.74-4.1C78,65.43,76.07,65.24,75.34,66.86Z"/><path class="cls-15" d="M78.29,69.41a17.32,17.32,0,0,1,.79,2.79l-1.75.8s-1.86-3.29-2.08-5.2C76.27,67.13,77.65,67.76,78.29,69.41Z"/><path class="cls-13" d="M85,75.86l2.05.32-.53,2.11a7.48,7.48,0,0,1-2-1.2Z"/><polygon class="cls-13" points="88.81 77.07 88.07 78.23 86.51 78.29 87.04 76.18 88.81 77.07"/><polygon class="cls-15" points="76.43 117.32 76.39 119.32 74.67 119.32 74.7 117.32 76.43 117.32"/><polygon class="cls-15" points="65.06 117.32 66.79 117.32 66.39 119.32 64.67 119.32 65.06 117.32"/><path class="cls-3" d="M77.59,65.9s2.16,5.77.47,15.21H68.85c-.09-1.38.62-8.8-.9-15.29A24.29,24.29,0,0,1,71,65.44a31.88,31.88,0,0,1,3.91,0A18.26,18.26,0,0,1,77.59,65.9Z"/><path class="cls-14" d="M77.59,65.9s2.16,5.77.47,15.21H68.85c-.09-1.38.62-8.8-.9-15.29A24.29,24.29,0,0,1,71,65.44a31.88,31.88,0,0,1,3.91,0A18.26,18.26,0,0,1,77.59,65.9Z"/><path class="cls-15" d="M70,67.42A17.31,17.31,0,0,1,68.91,74a41.62,41.62,0,0,0-.82-7.54h0C68.69,66.39,69.81,66.42,70,67.42Z"/><path class="cls-13" d="M71.44,61.87c.28,1.23.44,2.75-.42,3.57,0,0,.53,1.24,2.87,1.24,2.14,0,1-1.24,1-1.24-1.41-.33-1.39-2-1.16-3Z"/><path class="cls-8" d="M74,66.59l.5.54a.14.14,0,0,1,0,.15l-.16.48a.14.14,0,0,1-.13.09l-.54,0a.15.15,0,0,1-.14-.07l-.32-.46a.15.15,0,0,1,0-.18l.53-.59a.14.14,0,0,1,.2,0Z"/><path class="cls-6" d="M73.89,66.46a2.93,2.93,0,0,0-.42,1.4s-3-1-2.86-2.48a7.94,7.94,0,0,0,.67-.44S71.41,65.88,73.89,66.46Z"/><path class="cls-6" d="M73.89,66.46a4.09,4.09,0,0,1,.6,1.31,2.16,2.16,0,0,0,.87-2.33,5,5,0,0,0-.75-.23A1.08,1.08,0,0,1,73.89,66.46Z"/><path class="cls-8" d="M74.12,67.57a47.79,47.79,0,0,1,1,7.12,8.76,8.76,0,0,1-.64,2.94,9.16,9.16,0,0,1-.5-3c0-1.87,0-6-.19-7Z"/><path class="cls-15" d="M73.77,62.47a3.62,3.62,0,0,0,.06,2,2.34,2.34,0,0,1-.64-.18,3.38,3.38,0,0,1-1.63-1.79c0-.23-.08-.43-.13-.64Z"/><path class="cls-13" d="M75.76,61.13A1.55,1.55,0,0,1,75,62c-.51.22-.87-.2-.81-.72s.38-1.17.92-1.18a.75.75,0,0,1,.75.74A.7.7,0,0,1,75.76,61.13Z"/><path class="cls-15" d="M75.76,61.13A1.55,1.55,0,0,1,75,62c-.51.22-.87-.2-.81-.72s.38-1.17.92-1.18a.75.75,0,0,1,.75.74A.7.7,0,0,1,75.76,61.13Z"/><path class="cls-13" d="M70.38,60.37c.5,1.61.69,2.58,1.74,3.24a2.22,2.22,0,0,0,3.42-1.9c0-1.54-.81-3.91-2.59-4.22a2.27,2.27,0,0,0-2.65,1.78A2.16,2.16,0,0,0,70.38,60.37Z"/><path class="cls-8" d="M71.34,58.37c.46.67.31,1.15-.08,2.46-.16.55-.41,1.09-1.18.29s-1.52-2.33-.53-2.59A5.39,5.39,0,0,1,71.34,58.37Z"/><path class="cls-8" d="M71.15,58.88c1.07-.13,3.71-.35,3.51-1.69s-2-.94-2-.94.89.45-1,.8-2.81,1.43-2,1.86A1.33,1.33,0,0,0,71.15,58.88Z"/><path class="cls-13" d="M70.07,62.33a1.71,1.71,0,0,0,1.16.48c.56,0,.69-.53.39-1s-.88-.89-1.39-.68A.7.7,0,0,0,70.07,62.33Z"/><path class="cls-8" d="M75.7,61.71c0,.84,0,2-.7,2.19a5.74,5.74,0,0,1-3-.14c-.86-.45-1.25-2.38-1.65-2.74s.36-.54.36-.54.51,1.23,1.34,1.29S75.64,60.65,75.7,61.71Z"/><path class="cls-3" d="M72,81.11s.18,2.11.41,5c.27,3.24.59,7.45.79,10.66v0c0,.61.07,1.18.1,1.7.26,5.23.79,20.45.79,20.45H77s1.47-15.53,1.53-20.85c.06-5.12-.49-17-.49-17Z"/><path class="cls-8" d="M73.89,118.06s0,.93,0,.93h3.36l.12-1Z"/><path class="cls-15" d="M72.42,86.08c.27,3.24.59,7.45.79,10.66v0c.71-3,1-6.82.9-13Z"/><path class="cls-3" d="M74.79,81.11s-1.62,12.13-2.58,16.94c-1,5.26-5,20.89-5,20.89H64s2.49-15.2,3-20.41l1.79-17.41Z"/><path class="cls-8" d="M64,118.13s-.14.86-.14.86h3.48l.28-1Z"/><path class="cls-9" d="M65.25,117.12l0,0c0-.16,2.27-13.69,2.75-18.38.53-5.08,1.62-16.34,1.62-16.45s0,0,0,0,0,0,0,0h0c0,.12-1.11,11.38-1.63,16.46-.48,4.68-2.72,18.22-2.75,18.37s0,0,0,0Z"/><path class="cls-8" d="M73,60.3c0,.13.13.22.22.2s.13-.14.09-.27S73.19,60,73.1,60,73,60.17,73,60.3Z"/><path class="cls-8" d="M74.52,60c0,.13.13.22.22.2s.13-.14.1-.27-.13-.23-.22-.21S74.49,59.84,74.52,60Z"/><path class="cls-16" d="M74.05,60.14a4.65,4.65,0,0,0,.93,1,.8.8,0,0,1-.62.26Z"/><path class="cls-13" d="M74.05,62.31s0,0,0-.05h0a0,0,0,0,0,0,0h0a1.12,1.12,0,0,1-1-.2H73a.06.06,0,0,0,0,.06A1.2,1.2,0,0,0,74.05,62.31Z"/><path class="cls-8" d="M72.42,59.91a.07.07,0,0,0,.06,0,.59.59,0,0,1,.44-.37.1.1,0,0,0,.07-.09h0a.1.1,0,0,0-.1-.07.78.78,0,0,0-.56.45.08.08,0,0,0,0,.11Z"/><path class="cls-8" d="M75.07,59.3l0,0a.08.08,0,0,0,0-.11.82.82,0,0,0-.69-.28.1.1,0,0,0-.07.09h0a.08.08,0,0,0,.1.07h0a.65.65,0,0,1,.54.23A.1.1,0,0,0,75.07,59.3Z"/><path class="cls-13" d="M69.45,68.59l-2.39-.76s-2.2,5.47-3,5.79a34.22,34.22,0,0,1-4.76,1.85A2.26,2.26,0,0,0,59,76.66c2,.51,6.1-.56,6.9-1.27C67.71,73.79,69.45,68.59,69.45,68.59Z"/><path class="cls-3" d="M67.94,65.82c-1.62.22-3.35,5.73-3.35,5.73l3.48,1.89a38.76,38.76,0,0,0,2.13-4.57C70.92,66.84,69.68,65.57,67.94,65.82Z"/><path class="cls-14" d="M67.94,65.82c-1.62.22-3.35,5.73-3.35,5.73l3.48,1.89a38.76,38.76,0,0,0,2.13-4.57C70.92,66.84,69.68,65.57,67.94,65.82Z"/><path class="cls-3" d="M66.7,121.3a.57.57,0,0,0,.34-.08.23.23,0,0,0,.07-.22.14.14,0,0,0-.07-.11c-.19-.09-.74.24-.8.28a.05.05,0,0,0,0,0s0,0,0,0A1.74,1.74,0,0,0,66.7,121.3ZM67,121H67a.08.08,0,0,1,0,0,.17.17,0,0,1,0,.15.85.85,0,0,1-.61,0A1.75,1.75,0,0,1,67,121Z"/><path class="cls-3" d="M66.27,121.24h0c.18-.09.51-.45.46-.65a.13.13,0,0,0-.13-.1.21.21,0,0,0-.17.05c-.2.16-.23.64-.23.66s0,0,0,0S66.26,121.25,66.27,121.24Zm.33-.68h0s.06,0,.06,0-.19.39-.36.52a1,1,0,0,1,.19-.53.14.14,0,0,1,.09,0Z"/><path class="cls-3" d="M77.06,121.3a.69.69,0,0,0,.42-.1.24.24,0,0,0,.07-.2.14.14,0,0,0-.07-.1c-.21-.12-.9.22-1,.27s0,0,0,0,0,0,0,0A2.48,2.48,0,0,0,77.06,121.3Zm.3-.35.08,0s0,0,0,0a.15.15,0,0,1,0,.13,1.16,1.16,0,0,1-.77,0A2.46,2.46,0,0,1,77.36,121Z"/><path class="cls-3" d="M76.53,121.24h0c.21-.09.61-.45.57-.64s0-.11-.15-.11a.27.27,0,0,0-.23.06,1.06,1.06,0,0,0-.25.65,0,0,0,0,0,0,0Zm.4-.68h0c.08,0,.08,0,.08,0s-.25.4-.46.52a.92.92,0,0,1,.21-.52.27.27,0,0,1,.15,0Z"/><path class="cls-13" d="M59.12,76.69l-1.64.08L58.35,75s1.44,0,1.67,1Z"/><polygon class="cls-13" points="56.16 75.92 57.02 74.39 58.35 75.03 57.48 76.77 56.16 75.92"/></g><g id="freepik--character-2--inject-1"><path class="cls-8" d="M41.41,63c.16-1.17,3.37-2.08,4.86-.74,2,1.8,1.7,7.43,1.7,10.48-3-.72-7.52-.55-8.32-.13C39.49,71.22,39.52,63.35,41.41,63Z"/><path class="cls-17" d="M47.59,73.91c0,.53.09,1,.16,1.52s.16,1,.26,1.5a20.26,20.26,0,0,0,.82,2.93c.09.24.19.48.29.72a5.85,5.85,0,0,0,.34.72,8.08,8.08,0,0,0,.92,1.33,12.35,12.35,0,0,0,2.29,2.1l.63-.68a25.41,25.41,0,0,1-1.68-2.29A8.79,8.79,0,0,1,51,80.59L50.74,80c-.09-.21-.15-.44-.23-.66a23.13,23.13,0,0,1-.67-2.73c-.08-.46-.15-.93-.22-1.4s-.12-1-.16-1.39Z"/><path class="cls-17" d="M48.76,71.72c.65.16,1,4.36,1,4.36l-1.73,1s-1-3.1-.89-4.44A1.22,1.22,0,0,1,48.76,71.72Z"/><path class="cls-17" d="M53.44,84.07l1.49,1.09-1.83.41s-.79-.86-.53-1.56Z"/><polygon class="cls-17" points="55.33 86.62 53.77 86.88 53.09 85.57 54.92 85.16 55.33 86.62"/><polygon class="cls-17" points="45.28 121.08 46.77 121.08 47.69 114.47 45.15 114.47 45.28 121.08"/><polygon class="cls-15" points="45.22 117.89 47.21 117.89 47.69 114.47 45.15 114.47 45.22 117.89"/><polygon class="cls-17" points="33.76 118.7 35.2 119.06 38.11 113.04 35.64 112.36 33.76 118.7"/><polygon class="cls-15" points="34.65 115.71 36.61 116.14 38.11 113.04 35.64 112.36 34.65 115.71"/><path class="cls-8" d="M35.54,118.81l-1.9-.79a.16.16,0,0,0-.19.06l-.86,1.38a.28.28,0,0,0,.12.39l0,0c.67.26,1,.36,1.85.7.51.22,1.25.58,2,.88s1.05-.38.78-.56A3.55,3.55,0,0,1,35.79,119,.49.49,0,0,0,35.54,118.81Z"/><path class="cls-8" d="M47,120.87H44.89a.14.14,0,0,0-.14.12l-.24,1.6a.31.31,0,0,0,.27.32h0c.72,0,1.07,0,2,0,.56,0,1.72,0,2.5,0s.81-.74.49-.81a4.86,4.86,0,0,1-2.5-1.13A.51.51,0,0,0,47,120.87Z"/><path class="cls-3" d="M48.87,71.72s.88.3-.88,10.85H40.5c.13-3,.13-4.8-1.32-10.9a21.12,21.12,0,0,1,3.18-.41,24.11,24.11,0,0,1,3.4,0C47.22,71.39,48.87,71.72,48.87,71.72Z"/><path class="cls-6" d="M43.36,75.45h0l0,0A4.89,4.89,0,0,1,45,74s0,0,0,0h0a5.16,5.16,0,0,0-1.65,1.4c-.5-.43-2.07-2.33-1.88-4a0,0,0,0,0,0,0h0s0,0,0,0h0c-.19,1.69,1.46,3.65,1.93,4Z"/><path class="cls-6" d="M47.24,75.14h0a1,1,0,0,0,.25-.69,4.73,4.73,0,0,0-.9-3h0a0,0,0,0,0,0,0h0a4.74,4.74,0,0,1,.89,2.94,1,1,0,0,1-.21.63,6.05,6.05,0,0,0-1.51-1.15,0,0,0,0,0,0,0,0,0,0,0,0,0,0h0a5.85,5.85,0,0,1,1.5,1.16Z"/><path class="cls-17" d="M42.69,67.52c.22,1.07.43,3-.33,3.74,0,0-.43,2.51,3.06,2.51,2.89,0,.34-2.51.34-2.51-1.22-.29-1.19-1.17-1-2Z"/><path class="cls-15" d="M43.54,68.23l1.24,1a2.94,2.94,0,0,0-.1.58,1.48,1.48,0,0,1-1.16-1A1.67,1.67,0,0,1,43.54,68.23Z"/><path class="cls-17" d="M41.54,65.56c.43,1.74.57,2.49,1.64,3.23A2.35,2.35,0,0,0,47,67.19c.1-1.65-.62-4.21-2.51-4.6a2.49,2.49,0,0,0-3,1.86A2.31,2.31,0,0,0,41.54,65.56Z"/><path class="cls-8" d="M42.93,63.54c-.21,1.69-.29,3.4-1.52,3s-.12-3-.12-3Z"/><path class="cls-8" d="M46.93,64.09a8.24,8.24,0,0,0-5.39.21c.23-.83.37-1.49,1.42-1.81S46.41,62.55,46.93,64.09Z"/><path class="cls-8" d="M48,82.57s1.46,13.86,1.34,19.34c-.13,5.71-1.45,14.89-1.45,14.89l-3-.09s.1-8.76-.12-14.36c-.23-6.1-2.23-19.78-2.23-19.78Z"/><polygon class="cls-3" points="44.55 117.22 48.17 117.22 48.44 116.31 44.38 116.2 44.55 117.22"/><path class="cls-15" d="M44.76,86c1.84,3.61.37,10.19-.28,12.65-.33-3.68-.9-8.18-1.33-11.48C43.42,85.31,43.91,84.36,44.76,86Z"/><path class="cls-8" d="M46,82.57s-1.69,14.41-3,19c-1.53,5.49-5.63,13.66-5.63,13.66l-2.8-.79S37,104.86,38.17,102c2.48-6.17.36-15.36,2.34-19.4Z"/><polygon class="cls-3" points="34.1 114.83 37.45 115.73 38.05 114.89 34.34 113.69 34.1 114.83"/><path class="cls-8" d="M44.54,65.6c0,.14.13.25.22.23a.23.23,0,0,0,.13-.29c0-.14-.12-.25-.23-.23S44.52,65.46,44.54,65.6Z"/><path class="cls-8" d="M46.2,65.31c0,.15.13.25.23.23s.15-.14.13-.29-.13-.24-.22-.22A.22.22,0,0,0,46.2,65.31Z"/><path class="cls-8" d="M46.29,65l.33-.16S46.49,65.18,46.29,65Z"/><path class="cls-18" d="M45.73,65.62a4.17,4.17,0,0,0,.69.82.66.66,0,0,1-.5.19Z"/><path class="cls-8" d="M45.14,67.3l.25,0s0,0,0,0h0s0,0-.05,0a1.21,1.21,0,0,1-1-.27s0,0-.06,0,0,0,0,.06h0A1.23,1.23,0,0,0,45.14,67.3Z"/><path class="cls-17" d="M41.46,66.87a1.37,1.37,0,0,0,.73.71c.43.17.69-.2.62-.63S42.43,66,42,66a.59.59,0,0,0-.57.61A.46.46,0,0,0,41.46,66.87Z"/><path class="cls-8" d="M43.9,64.65a.09.09,0,0,0,.07,0,.7.7,0,0,1,.59-.23.09.09,0,0,0,.1-.07.08.08,0,0,0-.07-.09h0a.85.85,0,0,0-.75.27.09.09,0,0,0,0,.12Z"/><path class="cls-8" d="M46.61,64.43a.06.06,0,0,0,.06,0,.07.07,0,0,0,0-.12.9.9,0,0,0-.75-.27.1.1,0,0,0-.07.09h0a.09.09,0,0,0,.1.07h0a.7.7,0,0,1,.59.23Z"/><path class="cls-17" d="M38.36,73.59a28.48,28.48,0,0,0-1.09,3.1A18.25,18.25,0,0,0,36.6,80c0,.14,0,.29,0,.43v.35c0,.07,0,.14,0,.2A2.55,2.55,0,0,0,37.05,82a7.9,7.9,0,0,0,1.23,1.29A19.22,19.22,0,0,0,41,85.21l.55-.74a31.44,31.44,0,0,1-2.28-2.18,7,7,0,0,1-.88-1.13.89.89,0,0,1-.15-.38h0V80.7l0-.18a2.23,2.23,0,0,1,.05-.36,21.18,21.18,0,0,1,.73-3c.32-1,.68-2,1-2.93Z"/><path class="cls-17" d="M39.18,71.67c-.73.29-1.65,4.21-1.65,4.21l1.56,1.25a16.79,16.79,0,0,0,1.54-4.27A1.09,1.09,0,0,0,39.18,71.67Z"/><path class="cls-3" d="M36.39,119.38a.31.31,0,0,0,.13-.17.14.14,0,0,0,0-.14c-.15-.17-.81-.06-.89,0a0,0,0,0,0,0,0s0,0,0,0c.19.14.56.36.78.29Zm-.68-.29a1.29,1.29,0,0,1,.71,0,.09.09,0,0,1,0,.07.17.17,0,0,1-.1.12C36.21,119.35,36,119.27,35.71,119.09Z"/><path class="cls-3" d="M35.9,119c.19-.09.39-.23.42-.36a.15.15,0,0,0-.09-.16.21.21,0,0,0-.19,0c-.26.08-.47.56-.47.58v0l0,0A1.42,1.42,0,0,0,35.9,119Zm.14-.45h0a.13.13,0,0,1,.12,0,.07.07,0,0,1,0,.07c0,.13-.34.31-.55.37a1.1,1.1,0,0,1,.36-.44Z"/><path class="cls-3" d="M47.65,121.18a.64.64,0,0,0,.44-.11.23.23,0,0,0,.08-.2.15.15,0,0,0-.07-.12c-.23-.12-1,.25-1,.29a.05.05,0,0,0,0,0,0,0,0,0,0,0,0A2.78,2.78,0,0,0,47.65,121.18Zm.33-.37.08,0s0,0,0,0A.22.22,0,0,1,48,121a1.26,1.26,0,0,1-.83,0,2.38,2.38,0,0,1,.78-.25Z"/><path class="cls-3" d="M47.09,121.12h0c.24-.1.66-.49.62-.68s0-.11-.16-.12a.32.32,0,0,0-.23.08,1.17,1.17,0,0,0-.28.69,0,0,0,0,0,0,0h0Zm.44-.73h0c.08,0,.09,0,.09,0s-.28.43-.5.56a1,1,0,0,1,.23-.55A.23.23,0,0,1,47.53,120.39Z"/><path class="cls-3" d="M40.39,82.14l-.19.66s0,.1.12.1H48c.07,0,.12,0,.13-.07l.07-.66s-.06-.08-.13-.08H40.51A.17.17,0,0,0,40.39,82.14Z"/><path class="cls-19" d="M40.39,82.14l-.19.66s0,.1.12.1H48c.07,0,.12,0,.13-.07l.07-.66s-.06-.08-.13-.08H40.51A.17.17,0,0,0,40.39,82.14Z"/><path class="cls-3" d="M41.41,83H41.2s-.06,0-.06,0l.09-.85s0,0,.08,0h.21a.06.06,0,0,1,.06,0l-.09.85S41.45,83,41.41,83Z"/><path class="cls-3" d="M47.46,83h-.2s-.08,0-.07,0l.09-.85s0,0,.08,0h.2s.08,0,.07,0l-.09.85A.09.09,0,0,1,47.46,83Z"/><path class="cls-3" d="M44.43,83h-.2s-.07,0-.07,0l.1-.85s0,0,.08,0h.2s.07,0,.07,0l-.1.85S44.47,83,44.43,83Z"/><path class="cls-17" d="M41.36,84.31l2,.16L42,85.77s-1.13-.33-1.29-1.06Z"/><polygon class="cls-17" points="44.48 85.5 43.31 86.53 41.73 85.66 43.34 84.47 44.48 85.5"/><path class="cls-8" d="M44.63,65.33l.34-.16S44.83,65.47,44.63,65.33Z"/></g><g id="freepik--character-4--inject-1"><polygon class="cls-13" points="20.73 120.65 22.46 120.41 22.35 116.44 20.62 116.69 20.73 120.65"/><polygon class="cls-13" points="8.57 121.18 10.31 121.18 10.75 117.23 9 117.23 8.57 121.18"/><path class="cls-8" d="M10.45,121H8.32a.14.14,0,0,0-.15.12l-.35,1.51a.26.26,0,0,0,.2.3h.06c.69,0,1.18,0,2.05,0,.53,0,2.13,0,2.86,0s.83-.7.53-.77a6.59,6.59,0,0,1-2.78-1.06A.48.48,0,0,0,10.45,121Z"/><path class="cls-8" d="M22.42,120.22l-1.89.26a.16.16,0,0,0-.13.14l-.12,1.54a.26.26,0,0,0,.24.27h.06c.67-.11,1.65-.28,2.51-.4s1.87-.21,3.05-.37c.7-.1.8-.83.49-.85a10.76,10.76,0,0,1-3.77-.52A.84.84,0,0,0,22.42,120.22Z"/><path class="cls-13" d="M16.87,69c.09,1.18.23,2.32.41,3.49.09.57.19,1.15.3,1.73l.18.87.1.43.05.23c0,.07.05.16.07.25a11.3,11.3,0,0,0,.69,1.78c.27.55.55,1.08.85,1.58a32.35,32.35,0,0,0,1.94,3l1.15-.64-1.3-3.16c-.21-.53-.41-1-.59-1.58a11,11,0,0,1-.43-1.49,1.22,1.22,0,0,0,0-.17l0-.21-.05-.42-.11-.83-.19-1.69-.37-3.39Z"/><path class="cls-3" d="M18.28,67.23c1.62.41,2.37,6,2.37,6l-4,.59s-.39-1.51-1-3.57C15.27,69,16.27,66.73,18.28,67.23Z"/><path class="cls-13" d="M22.31,81.39l1.42,1.18-1.83.86A1.83,1.83,0,0,1,21.34,82Z"/><polygon class="cls-13" points="24.51 83.64 22.9 84.25 21.9 83.43 23.73 82.57 24.51 83.64"/><polygon class="cls-15" points="22.35 116.44 22.41 118.49 20.68 118.73 20.62 116.69 22.35 116.44"/><polygon class="cls-15" points="9 117.23 10.75 117.23 10.52 119.27 8.78 119.27 9 117.23"/><path class="cls-3" d="M8.57,67.63a37.07,37.07,0,0,1,1,5.63c.14,1.32.22,2.58.25,3.72.09,2.68,0,4.72.06,5.41l9.33-.45c.27-13.38-.85-14.69-.85-14.69a18.71,18.71,0,0,0-2.23-.32l-.48,0a34.89,34.89,0,0,0-4,.2l-.75.08C9.68,67.36,8.57,67.63,8.57,67.63Z"/><path class="cls-8" d="M16.43,66.92c-.22,1-2.43,8-6.75,10.37a.11.11,0,0,0-.06.1c0,.21,0,.49,0,.65a.12.12,0,0,0,.12.12h0c.51-.07,2.42-.66,5.14-4.93a23.49,23.49,0,0,0,2.42-6.1.13.13,0,0,0-.1-.15l-.61-.16a.13.13,0,0,0-.16.09Z"/><path class="cls-8" d="M16,70.73c-.26.56,1,3-.6,5.42s-2.93.44-4.53,1.34A81.87,81.87,0,0,0,16,70.73Z"/><path class="cls-6" d="M12.39,77h0c2.87-1.29,3.36-5.25,3.37-5.29a.06.06,0,0,0,0-.06h0a0,0,0,0,0-.06,0h0s-.5,3.93-3.3,5.19a.06.06,0,0,0,0,.08s0,0,.05,0Z"/><path class="cls-15" d="M10.86,70.13a7.1,7.1,0,0,1-1.23,3.92c0-.26-.05-.53-.07-.79-.11-1-.25-2-.44-3.07Z"/><path class="cls-13" d="M11.85,62.72c.31,1.23.68,3.5-.17,4.37a4,4,0,0,0,3.12,1c1.1-.08,1.12-.83.85-1.23-1.44-.26-1.45-1.3-1.26-2.27Z"/><path class="cls-15" d="M12.88,63.5l1.5,1.13a3.27,3.27,0,0,0-.08.7,1.51,1.51,0,0,1-1.42-1.83Z"/><path class="cls-13" d="M11.9,60.51c-.12,1.68-.28,2.66.47,3.63a2.33,2.33,0,0,0,4-.66c.57-1.46.66-4-.93-4.85a2.41,2.41,0,0,0-3.23.86A2.28,2.28,0,0,0,11.9,60.51Z"/><path class="cls-8" d="M14.74,63.25h0a1.26,1.26,0,0,1-1-.63,0,0,0,0,1,0-.06s0,0,.06,0h0a1.17,1.17,0,0,0,.9.58.05.05,0,0,1,0,.05S14.77,63.25,14.74,63.25Z"/><path class="cls-8" d="M13.46,59.35c-.07.75-.68,1.5-.61,2a1.55,1.55,0,0,0,.22.6L12,62.17s-3.21-3.33-.67-4c1.17-2.2,6-2.86,7-.9s-1.87,2.55-1.87,2.55A4.25,4.25,0,0,0,13.46,59.35Z"/><path class="cls-13" d="M10.86,62.26a1.67,1.67,0,0,0,.93.84c.54.19.86-.28.74-.8s-.51-1.13-1.07-1.1a.72.72,0,0,0-.68.78A.83.83,0,0,0,10.86,62.26Z"/><path class="cls-8" d="M23,118l-2.93.41S18.37,108,17.49,102c-.23-1.6-.61-3.85-1.11-6.26-.63-3-1.43-6.31-2.09-8.88s-1.22-4.62-1.22-4.62l6.14-.3s3,14.07,3.35,19.25C22.91,106.58,23,118,23,118Z"/><path class="cls-15" d="M16.38,95.74c-.63-3-1.43-6.31-2.09-8.88L15,85.53C16.43,87.34,16.73,92.78,16.38,95.74Z"/><path class="cls-8" d="M15.89,82.1s-1,14.61-1.7,19.55c-.81,5.41-2.86,17.22-2.86,17.22H8.13s.29-11.13,1.11-16.43c.92-6,.63-20,.63-20Z"/><polygon class="cls-3" points="11.71 118.94 7.95 118.94 7.95 117.84 12.15 117.77 11.71 118.94"/><polygon class="cls-3" points="23.19 118.05 19.89 118.51 19.57 117.38 23.34 116.85 23.19 118.05"/><path class="cls-8" d="M14.43,61.3c0,.14.05.26.14.27s.18-.09.2-.23,0-.25-.14-.26S14.45,61.17,14.43,61.3Z"/><path class="cls-8" d="M16,61.5c0,.14,0,.26.14.27s.18-.09.19-.23,0-.25-.13-.26S16,61.36,16,61.5Z"/><path class="cls-16" d="M15.5,61.51A4.84,4.84,0,0,0,16,62.76a.8.8,0,0,1-.69,0Z"/><path class="cls-8" d="M14,60.74a.06.06,0,0,0,.08,0,.71.71,0,0,1,.57-.2.07.07,0,0,0,.09-.06h0a.07.07,0,0,0-.06-.09h0a.84.84,0,0,0-.71.25.07.07,0,0,0,0,.11h0Z"/><path class="cls-8" d="M16.76,61.06h0a.08.08,0,0,0,.06-.1.82.82,0,0,0-.54-.53.07.07,0,0,0-.1,0,.08.08,0,0,0,0,.11s0,0,0,0h0a.63.63,0,0,1,.42.42A.12.12,0,0,0,16.76,61.06Z"/><path class="cls-3" d="M11,121.28a.67.67,0,0,0,.34-.09.27.27,0,0,0,.09-.21.13.13,0,0,0-.08-.12c-.19-.09-.75.24-.82.28a.08.08,0,0,0,0,0l0,0A3.62,3.62,0,0,0,11,121.28Zm.26-.36h.06a.08.08,0,0,1,0,0,.17.17,0,0,1,0,.15.83.83,0,0,1-.62,0A1.77,1.77,0,0,1,11.29,120.92Z"/><path class="cls-3" d="M10.59,121.23h0c.19-.1.54-.47.5-.66a.14.14,0,0,0-.13-.11.23.23,0,0,0-.18.06c-.2.16-.25.65-.25.67a.05.05,0,0,0,0,0Zm.35-.69h0s.06,0,.06,0-.2.39-.38.53a1,1,0,0,1,.2-.54.18.18,0,0,1,.1,0Z"/><path class="cls-3" d="M22.62,120.43h0c.29,0,.8,0,1-.18a.23.23,0,0,0,.05-.21.12.12,0,0,0-.08-.09c-.24-.09-.87.35-.95.4a0,0,0,0,0,0,.05A0,0,0,0,0,22.62,120.43Zm.89-.41h0l0,0a.12.12,0,0,1,0,.13,1.08,1.08,0,0,1-.76.16A1.81,1.81,0,0,1,23.51,120Z"/><path class="cls-3" d="M22.62,120.43h0c.19-.13.55-.55.49-.73s0-.1-.17-.09a.32.32,0,0,0-.22.1,1.13,1.13,0,0,0-.17.68s0,0,0,0Zm.41-.74s0,0,0,0-.2.43-.4.59a1,1,0,0,1,.16-.55.22.22,0,0,1,.15-.08Z"/><path class="cls-13" d="M8.32,68.56c-.22.26-.41.5-.6.76l-.54.76c-.36.51-.69,1-1,1.58a16.77,16.77,0,0,0-1.58,3.48l0,.06,0,.09,0,.18c0,.11,0,.23,0,.32a3.71,3.71,0,0,0,0,.58,6.77,6.77,0,0,0,.08,1,16,16,0,0,0,.4,1.85A25.19,25.19,0,0,0,6.16,82.7l1.25-.38C7.21,81.17,7,80,6.87,78.86c-.07-.57-.12-1.13-.14-1.67a6.6,6.6,0,0,1,0-.77,2.51,2.51,0,0,1,0-.31.42.42,0,0,1,0-.12v0h0l0,0c.2-.49.45-1,.71-1.47s.56-1,.87-1.46.63-.95,1-1.42l.5-.7.51-.67Z"/><path class="cls-3" d="M8.57,67.63c-1.64.29-3.16,4.17-3.16,4.17l3.37,2.78s1.16-2,2.1-3.86C11.88,68.66,10.56,67.28,8.57,67.63Z"/><path class="cls-13" d="M7.23,82,8.39,83.3l-2.14.59s-.73-1.33,0-1.79Z"/><polygon class="cls-13" points="8.46 84.72 6.66 85.13 6.24 83.89 8.38 83.3 8.46 84.72"/></g><g id="freepik--Barrier--inject-1"><path class="cls-3" d="M44.87,97.32A1.36,1.36,0,0,0,45,98a2.44,2.44,0,0,0,.42.59,5.17,5.17,0,0,0,1.12.85,13.57,13.57,0,0,0,2.52,1.13,33.5,33.5,0,0,0,5.33,1.33,67.76,67.76,0,0,0,21.77,0,33.78,33.78,0,0,0,5.33-1.33A13.87,13.87,0,0,0,84,99.47a5.43,5.43,0,0,0,1.12-.85,3,3,0,0,0,.41-.59,1.37,1.37,0,0,0,.16-.71.12.12,0,0,0-.11-.12.11.11,0,0,0-.12.11h0a1.56,1.56,0,0,1-.66,1,5.21,5.21,0,0,1-1.11.61,14.8,14.8,0,0,1-2.5.79c-.87.2-1.75.37-2.63.5s-1.76.27-2.64.36a100.18,100.18,0,0,1-10.67.53,99.92,99.92,0,0,1-10.67-.53c-.89-.09-1.77-.23-2.64-.36s-1.75-.3-2.6-.5a14.25,14.25,0,0,1-2.5-.79,5.29,5.29,0,0,1-1.12-.61,1.55,1.55,0,0,1-.65-1h0a.12.12,0,0,0-.13-.1A.11.11,0,0,0,44.87,97.32Z"/><path class="cls-7" d="M44.87,97.32A1.36,1.36,0,0,0,45,98a2.44,2.44,0,0,0,.42.59,5.17,5.17,0,0,0,1.12.85,13.57,13.57,0,0,0,2.52,1.13,33.5,33.5,0,0,0,5.33,1.33,67.76,67.76,0,0,0,21.77,0,33.78,33.78,0,0,0,5.33-1.33A13.87,13.87,0,0,0,84,99.47a5.43,5.43,0,0,0,1.12-.85,3,3,0,0,0,.41-.59,1.37,1.37,0,0,0,.16-.71.12.12,0,0,0-.11-.12.11.11,0,0,0-.12.11h0a1.56,1.56,0,0,1-.66,1,5.21,5.21,0,0,1-1.11.61,14.8,14.8,0,0,1-2.5.79c-.87.2-1.75.37-2.63.5s-1.76.27-2.64.36a100.18,100.18,0,0,1-10.67.53,99.92,99.92,0,0,1-10.67-.53c-.89-.09-1.77-.23-2.64-.36s-1.75-.3-2.6-.5a14.25,14.25,0,0,1-2.5-.79,5.29,5.29,0,0,1-1.12-.61,1.55,1.55,0,0,1-.65-1h0a.12.12,0,0,0-.13-.1A.11.11,0,0,0,44.87,97.32Z"/><path class="cls-3" d="M4.16,97.32a1.47,1.47,0,0,0,.15.71,2.44,2.44,0,0,0,.42.59,5.43,5.43,0,0,0,1.12.85,13.87,13.87,0,0,0,2.52,1.13,33.78,33.78,0,0,0,5.33,1.33,67.89,67.89,0,0,0,21.76,0,33.78,33.78,0,0,0,5.33-1.33,13.87,13.87,0,0,0,2.52-1.13,5.43,5.43,0,0,0,1.12-.85,2.44,2.44,0,0,0,.42-.59,1.47,1.47,0,0,0,.15-.71.12.12,0,0,0-.11-.12.11.11,0,0,0-.12.11h0a1.56,1.56,0,0,1-.66,1A5,5,0,0,1,43,98.9a14.52,14.52,0,0,1-2.5.79c-.85.2-1.72.37-2.6.5s-1.75.27-2.64.36a99.86,99.86,0,0,1-10.66.53,100.18,100.18,0,0,1-10.67-.53c-.88-.09-1.76-.23-2.64-.36s-1.74-.3-2.6-.5a14.8,14.8,0,0,1-2.5-.79,5.21,5.21,0,0,1-1.11-.61,1.56,1.56,0,0,1-.66-1h0a.11.11,0,0,0-.13-.1.12.12,0,0,0-.13.11Z"/><path class="cls-7" d="M4.16,97.32a1.47,1.47,0,0,0,.15.71,2.44,2.44,0,0,0,.42.59,5.43,5.43,0,0,0,1.12.85,13.87,13.87,0,0,0,2.52,1.13,33.78,33.78,0,0,0,5.33,1.33,67.89,67.89,0,0,0,21.76,0,33.78,33.78,0,0,0,5.33-1.33,13.87,13.87,0,0,0,2.52-1.13,5.43,5.43,0,0,0,1.12-.85,2.44,2.44,0,0,0,.42-.59,1.47,1.47,0,0,0,.15-.71.12.12,0,0,0-.11-.12.11.11,0,0,0-.12.11h0a1.56,1.56,0,0,1-.66,1A5,5,0,0,1,43,98.9a14.52,14.52,0,0,1-2.5.79c-.85.2-1.72.37-2.6.5s-1.75.27-2.64.36a99.86,99.86,0,0,1-10.66.53,100.18,100.18,0,0,1-10.67-.53c-.88-.09-1.76-.23-2.64-.36s-1.74-.3-2.6-.5a14.8,14.8,0,0,1-2.5-.79,5.21,5.21,0,0,1-1.11-.61,1.56,1.56,0,0,1-.66-1h0a.11.11,0,0,0-.13-.1.12.12,0,0,0-.13.11Z"/><rect class="cls-3" x="84.88" y="89.9" width="1.27" height="33.25"/><path class="cls-3" d="M86.17,122.68h-1.3a.34.34,0,0,0-.34.33h0v.13h2V123A.34.34,0,0,0,86.17,122.68Z"/><rect class="cls-3" x="84.78" y="96.95" width="1.47" height="0.74"/><rect class="cls-20" x="84.88" y="97.69" width="1.27" height="0.17"/><ellipse class="cls-3" cx="85.51" cy="89.46" rx="1.07" ry="1.04"/><rect class="cls-3" x="3.7" y="89.9" width="1.27" height="33.25"/><path class="cls-3" d="M5,122.68H3.68a.34.34,0,0,0-.34.33h0v.13h2V123A.34.34,0,0,0,5,122.68Z"/><rect class="cls-3" x="3.6" y="96.95" width="1.47" height="0.74"/><rect class="cls-20" x="3.7" y="97.69" width="1.27" height="0.17"/><ellipse class="cls-3" cx="4.34" cy="89.46" rx="1.07" ry="1.04"/><rect class="cls-3" x="44.29" y="89.9" width="1.27" height="33.25"/><path class="cls-3" d="M45.57,122.68H44.28a.34.34,0,0,0-.34.33h0v.13h2V123a.34.34,0,0,0-.34-.33Z"/><rect class="cls-3" x="44.19" y="96.95" width="1.47" height="0.74"/><rect class="cls-20" x="44.29" y="97.69" width="1.27" height="0.17"/><ellipse class="cls-3" cx="44.92" cy="89.46" rx="1.07" ry="1.04"/></g><g id="freepik--Smartphone--inject-89"><path class="cls-8" d="M178.65,123.35H155.06a2.87,2.87,0,0,1-2.89-2.87v-.13l2.62-67.87a3.16,3.16,0,0,1,3.12-3h23.56a2.89,2.89,0,0,1,2.89,2.87v.13l-2.62,67.87A3.12,3.12,0,0,1,178.65,123.35Z"/><path class="cls-3" d="M152.42,56.51h-.23l.16-4a3.94,3.94,0,0,1,3.91-3.77v.23a3.72,3.72,0,0,0-3.68,3.54Z"/><rect class="cls-3" x="157.86" y="48.69" width="1.92" height="0.23"/><path class="cls-3" d="M177,123.35H153.41a2.87,2.87,0,0,1-2.89-2.87v-.13l2.62-67.87a3.16,3.16,0,0,1,3.12-3h23.56a2.89,2.89,0,0,1,2.89,2.87v.13l-2.62,67.87A3.15,3.15,0,0,1,177,123.35Z"/><path class="cls-10" d="M177.72,115.56H153.25a1.62,1.62,0,0,1-1.62-1.61v-.09L153.91,55a1.75,1.75,0,0,1,1.74-1.67h24.46a1.64,1.64,0,0,1,1.63,1.6V55l-2.28,58.88A1.78,1.78,0,0,1,177.72,115.56Z"/><path class="cls-6" d="M165.27,121.25a1.45,1.45,0,0,1-1.06-.47,2.4,2.4,0,0,1-.61-1.77,2.13,2.13,0,0,1,1.83-2.23,1.45,1.45,0,0,1,1.06.47,2.37,2.37,0,0,1,.61,1.76h0A2.12,2.12,0,0,1,165.27,121.25Zm.16-4.22a1.87,1.87,0,0,0-1.58,2,2.2,2.2,0,0,0,.54,1.6,1.2,1.2,0,0,0,.88.41,1.88,1.88,0,0,0,1.58-2,2.22,2.22,0,0,0-.54-1.61A1.08,1.08,0,0,0,165.43,117Z"/><path class="cls-6" d="M167.94,52.28a.76.76,0,0,1-.5-.22,1.13,1.13,0,0,1-.27-.8,1,1,0,0,1,.81-1,.73.73,0,0,1,.5.23,1,1,0,0,1,.27.79A.92.92,0,0,1,167.94,52.28Zm.06-1.74c-.31,0-.56.34-.58.77a.85.85,0,0,0,.2.61.45.45,0,0,0,.32.14c.31,0,.56-.34.58-.77a.78.78,0,0,0-.2-.61A.39.39,0,0,0,168,50.54Z"/></g><path class="cls-3" d="M155.87,66.33l-1.62,36.13a.52.52,0,0,0,.54.56h5.81a.59.59,0,0,0,.58-.56,5,5,0,0,1,4.88-4.73,4.46,4.46,0,0,1,4.45,4.75.53.53,0,0,0,.54.56h5.86a.58.58,0,0,0,.52-.56l1.62-36.12a.53.53,0,0,0-.54-.57l-5.78,0a.59.59,0,0,0-.59.56,5,5,0,0,1-4.88,4.72,4.45,4.45,0,0,1-4.45-4.74.53.53,0,0,0-.54-.56l-5.79,0A.69.69,0,0,0,155.87,66.33Z"/><g class="cls-21"><path class="cls-6" d="M161.19,83.34,161,84h.73l0,.58h-.83l-.27,1.15H160l.27-1.15h-.54l-.27,1.15h-.6l.26-1.16h-.67l0-.58h.77l.17-.66h-.71l0-.6h.82l.27-1.16h.61l-.27,1.16h.56l.27-1.16h.6l-.27,1.16H162l0,.6Zm-1.33.66h.55l.17-.66H160Z"/><path class="cls-6" d="M164.37,85.75h-.87l.11-2.4,0-.4,0-.43-.32.29-.49.38-.39-.53,1.37-1.07h.71Z"/><path class="cls-6" d="M168.36,82.54a1,1,0,0,1-.26.66,1.26,1.26,0,0,1-.67.37v0a1.27,1.27,0,0,1,.74.31.84.84,0,0,1,.22.66,1.15,1.15,0,0,1-.47.93,2.05,2.05,0,0,1-1.24.33,2.89,2.89,0,0,1-1.18-.23l0-.75a2.67,2.67,0,0,0,.52.2,2.24,2.24,0,0,0,.57.08,1.22,1.22,0,0,0,.64-.14.58.58,0,0,0,.22-.48.4.4,0,0,0-.21-.41,1.6,1.6,0,0,0-.75-.13h-.31l0-.67h.31a1.45,1.45,0,0,0,.71-.13.48.48,0,0,0,.24-.43c0-.32-.18-.47-.56-.47a1.22,1.22,0,0,0-.42.06,2.67,2.67,0,0,0-.48.24l-.37-.61a2.33,2.33,0,0,1,1.36-.41,1.66,1.66,0,0,1,1,.27A.79.79,0,0,1,168.36,82.54Z"/><path class="cls-6" d="M171.73,83.7a3,3,0,0,1-.42,1.61,1.27,1.27,0,0,1-1.11.52,1.14,1.14,0,0,1-1-.54,2.9,2.9,0,0,1-.29-1.6,3.09,3.09,0,0,1,.42-1.62,1.27,1.27,0,0,1,1.11-.52,1.15,1.15,0,0,1,1.05.55A2.8,2.8,0,0,1,171.73,83.7Zm-2,0a3.55,3.55,0,0,0,.08,1.1.43.43,0,0,0,.43.33.48.48,0,0,0,.45-.33,3.46,3.46,0,0,0,.19-1.09,3.2,3.2,0,0,0-.09-1.1.43.43,0,0,0-.42-.34.48.48,0,0,0-.46.33A3.86,3.86,0,0,0,169.72,83.69Z"/><path class="cls-6" d="M175,83.71a3.1,3.1,0,0,1-.43,1.61,1.27,1.27,0,0,1-1.11.52,1.12,1.12,0,0,1-1-.55,2.68,2.68,0,0,1-.29-1.59,3,3,0,0,1,.42-1.62,1.27,1.27,0,0,1,1.11-.52,1.15,1.15,0,0,1,1,.55A2.88,2.88,0,0,1,175,83.71Zm-2,0a3.26,3.26,0,0,0,.08,1.1.43.43,0,0,0,.42.33.48.48,0,0,0,.46-.33,4.68,4.68,0,0,0,.1-2.19.45.45,0,0,0-.43-.34.48.48,0,0,0-.45.33A3.26,3.26,0,0,0,173,83.7Z"/></g><polygon class="cls-22" points="167.33 115.56 161.23 115.56 171.53 53.32 177.63 53.32 167.33 115.56"/><polygon class="cls-22" points="160.17 115.56 157.12 115.56 167.4 53.32 170.44 53.32 160.17 115.56"/><g id="freepik--character-1--inject-17"><path class="cls-8" d="M139,64.9a4,4,0,0,0,1.4.85,6.66,6.66,0,0,1,.3-1.65A4.54,4.54,0,0,0,141,66a11.46,11.46,0,0,0,1.51.37,3.66,3.66,0,0,1,.13-.44,2.05,2.05,0,0,0,.1.48,18.83,18.83,0,0,0,6.16.44c1.3-1.62-.06-2.82-.19-3.78-.17-1.25,1-1.55.89-2.56s-1.32-.4-1.9-1.55a3.87,3.87,0,0,0-4-2.16c-2,.39-1.29,3.27-2.82,4.2A3.65,3.65,0,0,0,139,64.9Z"/><path class="cls-8" d="M139,65.28h0s.05,0,0-.06h0c-.42-1.18-.61-2.7,1.6-4a3.13,3.13,0,0,0,1.26-2.15c.3-1.11.58-2.16,2.3-2.14a.06.06,0,0,0,0-.11h0c-1.8,0-2.11,1.12-2.41,2.23a3,3,0,0,1-1.21,2.08c-2.3,1.33-2,3-1.65,4.1A.06.06,0,0,0,139,65.28Z"/><path class="cls-23" d="M141.45,79.44s.09,10.71.78,19.51c1.49,8.71,2.8,20.67,2.8,20.67h1.42s1.44-15.87-.15-21c.94-6.55.65-19,.65-19Z"/><path class="cls-23" d="M139.57,70v.78c0,.27,0,.54-.08.8a10.32,10.32,0,0,1-.28,1.57,7.28,7.28,0,0,1-.52,1.44,4,4,0,0,1-.82,1.14l-.08.08a.37.37,0,0,1,.14-.07h-.07a1.94,1.94,0,0,1-.54-.13A10.16,10.16,0,0,1,136,75c-.45-.26-.89-.55-1.32-.85l-1.31-.92h0a.52.52,0,0,0-.72.11.49.49,0,0,0,0,.63c.37.43.76.81,1.16,1.2s.83.74,1.28,1.09a9.09,9.09,0,0,0,1.5,1,3.71,3.71,0,0,0,1,.34,1.89,1.89,0,0,0,.75,0,1.59,1.59,0,0,0,.83-.48l-.08.09a5.91,5.91,0,0,0,1.33-1.62,8.43,8.43,0,0,0,.75-1.81,13.2,13.2,0,0,0,.38-1.85c0-.31.06-.62.08-.93s0-.32,0-.47v-.5a1,1,0,0,0-1.11-1,1,1,0,0,0-1,1Z"/><path class="cls-23" d="M131.18,73.17l0-.84a.49.49,0,0,1,.52-.45h.05a2,2,0,0,1,1.13.59l.94,1,.17.92c-.76.36-1.82-.38-1.82-.38l-.78-.38A.47.47,0,0,1,131.18,73.17Z"/><path class="cls-3" d="M140.26,68.44c-1.49,1.17-1.27,2.46-1.6,3.41.69,1.14,3.42,1.67,3.42,1.67S141.86,67.18,140.26,68.44Z"/><path class="cls-3" d="M139.6,69.73c-.23,3,1.63,5.25,1.79,8.41l7.75-.19c-.23-3.07-.13-2.76,1-8.7a1.22,1.22,0,0,0-1-1.42H149c-.58-.06-1.29-.13-2-.14a27.78,27.78,0,0,0-3.76.1c-.8.1-1.67.25-2.32.38A1.65,1.65,0,0,0,139.6,69.73Z"/><path class="cls-6" d="M143,70.78c0,.31.13.56.36.56a.56.56,0,0,0,.47-.55c0-.31-.13-.57-.36-.57S143,70.47,143,70.78Z"/><path class="cls-6" d="M143.43,69.39a1.72,1.72,0,0,0-1.3,1.36c-1.56-2.27,1.1-3,1.1-3Z"/><path class="cls-6" d="M144.34,69.51A1.45,1.45,0,0,1,146,70.74h0c1.71-2.17,1-3.08,1-3.08Z"/><path class="cls-23" d="M146.49,63.56c-.2,1.18-.37,3.35.5,4.11a8.1,8.1,0,0,1-3.28,2,1.88,1.88,0,0,1-.48-1.94c1.35-.35,1.27-1.33,1-2.24Z"/><path class="cls-15" d="M145.58,64.37l-1.34,1.17a3.51,3.51,0,0,1,.14.66A1.65,1.65,0,0,0,145.62,65,1.73,1.73,0,0,0,145.58,64.37Z"/><path class="cls-23" d="M147.92,62.24c-.79,1.81-1.09,2.6-2.39,3.22A2.59,2.59,0,0,1,141.66,63c.2-1.81,1.46-4.48,3.6-4.57A2.73,2.73,0,0,1,148.15,61,2.67,2.67,0,0,1,147.92,62.24Z"/><path class="cls-8" d="M148.16,60.79c-2.53,0-6.07-1.25-5-2.54C143.67,55.68,148.13,58.35,148.16,60.79Z"/><path class="cls-8" d="M147.78,60.36c-1.69.93-1.24,2.72-.17,3.07C148.74,62.1,149,60.13,147.78,60.36Z"/><path class="cls-8" d="M144.68,63a11.29,11.29,0,0,0-2.17,0,1.28,1.28,0,0,0,1.4.8.75.75,0,0,0,.77-.73Z"/><path class="cls-24" d="M143.58,63.25a1.47,1.47,0,0,1,.9.19.82.82,0,0,1-.5.17,1.48,1.48,0,0,1-.9-.18A.92.92,0,0,1,143.58,63.25Z"/><path class="cls-6" d="M144.6,63c0,.1,0,.15-.19.21a7,7,0,0,1-1.29,0,.8.8,0,0,1-.54-.25A15.13,15.13,0,0,1,144.6,63Z"/><path class="cls-8" d="M144.87,61.68c-.05.15-.18.25-.28.22s-.14-.19-.09-.34a.3.3,0,0,1,.29-.22C144.89,61.37,144.93,61.53,144.87,61.68Z"/><path class="cls-8" d="M142.88,61c0,.15-.18.25-.28.22s-.14-.18-.08-.34.18-.24.28-.21S142.94,60.85,142.88,61Z"/><path class="cls-8" d="M142.84,60.69l-.33-.24S142.6,60.81,142.84,60.69Z"/><path class="cls-24" d="M143.45,61.38a4.46,4.46,0,0,1-.9.77.68.68,0,0,0,.52.29Z"/><path class="cls-23" d="M148,64a1.53,1.53,0,0,1-1,.47c-.52,0-.66-.47-.41-.88s.76-.83,1.23-.66A.65.65,0,0,1,148,64Z"/><path class="cls-8" d="M145.79,61.41a.07.07,0,0,1-.06,0,.77.77,0,0,0-.57-.4.1.1,0,1,1,0-.19h0a1,1,0,0,1,.73.5.09.09,0,0,1,0,.12A.06.06,0,0,1,145.79,61.41Z"/><path class="cls-8" d="M142.71,60.29a.21.21,0,0,1,0-.06.08.08,0,0,1,.06-.11h0a1,1,0,0,1,.87.13.11.11,0,0,1,0,.14.1.1,0,0,1-.13,0,.81.81,0,0,0-.69-.11Z"/><path class="cls-8" d="M144.83,61.37l-.34-.24S144.58,61.48,144.83,61.37Z"/><path class="cls-23" d="M143.53,79.69A180.22,180.22,0,0,0,147.3,99.3c3.17,6.6,6.92,11.69,10.75,17.09l1.35-.7c-2.63-5.82-5.45-12.72-8.11-17.26-1.93-16.52-1.72-18.73-1.72-18.73Z"/><path class="cls-8" d="M157.12,120.78a6.09,6.09,0,0,1,.81-1.29,8.75,8.75,0,0,0-.43-3.58.14.14,0,0,1,0-.15l1.32-1.17a.21.21,0,0,1,.27,0c.11.11.47.74.6.94l.45.65c.45.7,1.41,2.28,1.41,2.28l-.17.09a15.13,15.13,0,0,0-1-1.35c-.39-.41-.37.31-.22.92a2.23,2.23,0,0,1-1.35,2.19C157.51,121,157,121.14,157.12,120.78Z"/><path class="cls-3" d="M141.39,78.13c-1.64,5.06-.39,10.19.39,19.88a23.55,23.55,0,0,0,10.51-1.09c-2.37-11.13.56-13.9-3.16-19Z"/><path class="cls-8" d="M149.27,77.39q.06.3.09.6a.17.17,0,0,1-.11.18c-.84.13-5.72.82-7.9.3a.15.15,0,0,1-.09-.16v-.64c0-.1.05-.17.12-.17.76,0,4.78,0,7.77-.2A.12.12,0,0,1,149.27,77.39Z"/><path class="cls-6" d="M145.31,77.32a13.34,13.34,0,0,0-2.78.05c-.2.09-.1,1.28.08,1.35a10.31,10.31,0,0,0,2.72,0C145.69,78.68,145.56,77.39,145.31,77.32Z"/><polygon class="cls-15" points="145.29 90.38 144.98 85.49 143.25 83.17 145.29 90.38"/><path class="cls-23" d="M148.67,70.6c.3.36.62.76.92,1.15s.6.79.87,1.2a10.5,10.5,0,0,1,1.29,2.46c0,.1.06.2.08.29l0,.06h0v0a1.56,1.56,0,0,1-.15.41,6.05,6.05,0,0,1-.8,1.1,28.42,28.42,0,0,1-2.14,2.11h0a.5.5,0,0,0,0,.72.51.51,0,0,0,.63.09A15,15,0,0,0,152,78.39a6.93,6.93,0,0,0,1.19-1.29,2.87,2.87,0,0,0,.45-1,2.16,2.16,0,0,0,0-.35v-.2c0-.07,0-.09,0-.13l-.09-.46a8,8,0,0,0-.6-1.63,12.67,12.67,0,0,0-.81-1.44c-.29-.46-.59-.91-.92-1.34s-.65-.84-1-1.26a1.05,1.05,0,0,0-1.47-.06,1,1,0,0,0-.12,1.37Z"/><path class="cls-3" d="M148.93,67.8a2.75,2.75,0,0,1,2.45,1.77,13.74,13.74,0,0,1-2.31,3.25S146.27,67.65,148.93,67.8Z"/><path class="cls-23" d="M149.4,79.06l-1.93,0,1,1.52s1.16-.27,1.46-1.07Z"/><path class="cls-23" d="M146.66,80.2l.37.8a.36.36,0,0,0,.46.19l.07,0,.92-.53-1-1.52-.69.62A.43.43,0,0,0,146.66,80.2Z"/><path class="cls-8" d="M141.73,122.63A5.41,5.41,0,0,1,143,122a13.23,13.23,0,0,0,1.74-3.61.16.16,0,0,1,.12-.12l1.77-.41a.18.18,0,0,1,.22.11v0c0,.15,0,1,0,1.24V120c0,.82-.11,2.65-.11,2.65h-.19a13.22,13.22,0,0,0-.11-1.66c-.09-.54-.48.1-.7.7a2.52,2.52,0,0,1-2.37,1.29C141.9,123.05,141.45,122.91,141.73,122.63Z"/></g><rect class="cls-25" x="79.96" y="74.88" width="11.18" height="17.71"/><path class="cls-26" d="M81.82,82.8v.5h-.27V82h.37a.66.66,0,0,1,.39.09.34.34,0,0,1,.13.29.37.37,0,0,1-.06.21.49.49,0,0,1-.18.13l.38.57h-.31l-.3-.5Zm0-.22h.09a.41.41,0,0,0,.19,0,.17.17,0,0,0,.06-.14.14.14,0,0,0-.06-.13.35.35,0,0,0-.2,0h-.08Z"/><path class="cls-26" d="M83.48,83.3h-.74V82h.74v.22H83v.28h.44v.23H83v.33h.47Z"/><path class="cls-26" d="M84.24,82.57h.51v.67l-.23.06H84.3a.55.55,0,0,1-.45-.17.72.72,0,0,1-.15-.49.65.65,0,0,1,.17-.49.72.72,0,0,1,.5-.17.84.84,0,0,1,.38.08l-.09.22a.59.59,0,0,0-.29-.07.36.36,0,0,0-.29.11.47.47,0,0,0-.1.32.62.62,0,0,0,.08.33.31.31,0,0,0,.25.11l.18,0V82.8h-.25Z"/><path class="cls-26" d="M86.11,82v.83a.49.49,0,0,1-.06.25.52.52,0,0,1-.19.17.78.78,0,0,1-.28,0,.57.57,0,0,1-.39-.12.47.47,0,0,1-.14-.35V82h.28v.79a.29.29,0,0,0,.06.21.22.22,0,0,0,.19.07.24.24,0,0,0,.2-.07.32.32,0,0,0,.06-.22V82Z"/><path class="cls-26" d="M86.43,83.3V82h.27v1.06h.52v.23Z"/><path class="cls-26" d="M88.24,83.3l-.1-.31h-.47l-.09.31h-.29l.45-1.3h.34l.45,1.3Zm-.16-.54-.15-.47a.51.51,0,0,1,0-.09c0,.08-.07.26-.17.56Z"/><path class="cls-26" d="M89,82.8v.5H88.7V82h.37a.66.66,0,0,1,.39.09.34.34,0,0,1,.13.29.31.31,0,0,1-.07.21.45.45,0,0,1-.17.13l.38.57h-.31l-.31-.5Zm0-.22h.09a.45.45,0,0,0,.19,0,.17.17,0,0,0,.06-.14.14.14,0,0,0-.06-.13.35.35,0,0,0-.2,0H89Z"/><path class="cls-26" d="M84,84.82a.86.86,0,0,1-.08.38.59.59,0,0,1-.24.23l.31.34h-.35l-.24-.29h0a.55.55,0,0,1-.45-.17.67.67,0,0,1-.16-.49.7.7,0,0,1,.16-.5.6.6,0,0,1,.45-.17.59.59,0,0,1,.46.18A.7.7,0,0,1,84,84.82Zm-.94,0a.49.49,0,0,0,.08.32.26.26,0,0,0,.24.11c.22,0,.33-.14.33-.43s-.11-.44-.33-.44a.29.29,0,0,0-.24.11A.52.52,0,0,0,83.09,84.82Z"/><path class="cls-26" d="M85.34,84.18V85a.49.49,0,0,1-.06.25.42.42,0,0,1-.18.17.88.88,0,0,1-.29,0,.57.57,0,0,1-.39-.12.48.48,0,0,1-.13-.35v-.83h.27V85a.32.32,0,0,0,.06.22.23.23,0,0,0,.2.07.22.22,0,0,0,.19-.07.32.32,0,0,0,.06-.22v-.78Z"/><path class="cls-26" d="M86.4,85.47h-.74V84.18h.74v.22h-.47v.28h.44v.23h-.44v.33h.47Z"/><path class="cls-26" d="M87.72,84.18V85a.49.49,0,0,1-.06.25.45.45,0,0,1-.19.17.78.78,0,0,1-.28,0,.57.57,0,0,1-.39-.12.48.48,0,0,1-.14-.35v-.83h.28V85a.32.32,0,0,0,.06.22.22.22,0,0,0,.19.07.24.24,0,0,0,.2-.07.32.32,0,0,0,.06-.22v-.78Z"/><path class="cls-26" d="M88.78,85.47H88V84.18h.74v.22h-.47v.28h.44v.23h-.44v.33h.47Z"/><g id="freepik--Barrier--inject-1-2" data-name="freepik--Barrier--inject-1"><rect class="cls-3" x="137.7" y="89.9" width="1.27" height="33.25"/><path class="cls-3" d="M139,122.68h-1.3a.34.34,0,0,0-.34.33h0v.13h2V123A.34.34,0,0,0,139,122.68Z"/><rect class="cls-3" x="137.6" y="96.95" width="1.47" height="0.74"/><rect class="cls-20" x="137.7" y="97.69" width="1.27" height="0.17"/><ellipse class="cls-3" cx="138.34" cy="89.46" rx="1.07" ry="1.04"/></g><rect class="cls-25" x="132.75" y="74.88" width="11.18" height="17.71"/><path class="cls-26" d="M137.88,83.55a.41.41,0,0,1-.13.32.58.58,0,0,1-.37.11h-.12v.46H137V83.15h.41a.57.57,0,0,1,.36.1A.38.38,0,0,1,137.88,83.55Zm-.62.21h.09a.33.33,0,0,0,.19-.05.19.19,0,0,0,.06-.15.2.2,0,0,0,0-.14.26.26,0,0,0-.17,0h-.12Z"/><path class="cls-26" d="M138.39,83.94v.5h-.27V83.15h.38a.63.63,0,0,1,.39.1.34.34,0,0,1,.12.29.36.36,0,0,1-.06.2.44.44,0,0,1-.18.14l.38.56h-.3l-.31-.5Zm0-.22h.09a.32.32,0,0,0,.19,0,.15.15,0,0,0,.07-.14.16.16,0,0,0-.07-.13.41.41,0,0,0-.19,0h-.09Z"/><path class="cls-26" d="M140.06,84.44h-.75V83.15h.75v.22h-.47v.29H140v.22h-.43v.33h.47Z"/><path class="cls-26" d="M134.44,86.23V86h.47v.22Z"/><path class="cls-26" d="M135.13,85.32h.4a.73.73,0,0,1,.4.08.26.26,0,0,1,.12.24.33.33,0,0,1-.05.19.24.24,0,0,1-.15.09h0a.26.26,0,0,1,.23.3.35.35,0,0,1-.12.28.56.56,0,0,1-.35.1h-.48Zm.27.51h.16a.24.24,0,0,0,.16,0,.13.13,0,0,0,.05-.11.14.14,0,0,0-.05-.11.42.42,0,0,0-.18,0h-.14Zm0,.22v.33h.18a.24.24,0,0,0,.16,0,.15.15,0,0,0,.06-.13c0-.11-.08-.16-.23-.16Z"/><path class="cls-26" d="M137.51,86a.66.66,0,0,1-.16.49.55.55,0,0,1-.45.18.59.59,0,0,1-.46-.18.83.83,0,0,1,0-1,.69.69,0,0,1,.91,0A.67.67,0,0,1,137.51,86Zm-.94,0a.59.59,0,0,0,.08.33.31.31,0,0,0,.25.11c.22,0,.32-.15.32-.44s-.1-.43-.32-.43a.28.28,0,0,0-.25.11A.56.56,0,0,0,136.57,86Z"/><path class="cls-26" d="M139,86a.66.66,0,0,1-.16.49.57.57,0,0,1-.45.18.59.59,0,0,1-.46-.18.83.83,0,0,1,0-1,.69.69,0,0,1,.91,0A.67.67,0,0,1,139,86ZM138,86a.59.59,0,0,0,.08.33.31.31,0,0,0,.25.11c.21,0,.32-.15.32-.44s-.11-.43-.32-.43a.28.28,0,0,0-.25.11A.56.56,0,0,0,138,86Z"/><path class="cls-26" d="M140.26,86.61h-.32l-.33-.55-.12.09v.46h-.27V85.32h.27v.59l.11-.15.35-.44h.3l-.45.57Z"/><path class="cls-26" d="M141.16,86.61h-.74V85.32h.74v.22h-.47v.29h.44v.22h-.44v.33h.47Z"/><path class="cls-26" d="M142.5,86a.64.64,0,0,1-.18.49.76.76,0,0,1-.52.17h-.37V85.32h.41a.69.69,0,0,1,.49.16A.66.66,0,0,1,142.5,86Zm-.28,0c0-.28-.13-.42-.37-.42h-.15v.84h.12A.37.37,0,0,0,142.22,86Z"/><path class="cls-27" d="M134.9,76.85a.33.33,0,0,0-.29.15.72.72,0,0,0-.11.42c0,.37.14.55.42.55a.69.69,0,0,0,.25,0l.24-.08v.44a1.33,1.33,0,0,1-.54.1.87.87,0,0,1-.67-.25,1.06,1.06,0,0,1-.23-.73,1.24,1.24,0,0,1,.11-.52.83.83,0,0,1,.33-.34.88.88,0,0,1,.49-.13,1.31,1.31,0,0,1,.59.14l-.15.41a2,2,0,0,0-.22-.09A.78.78,0,0,0,134.9,76.85Z"/><path class="cls-27" d="M137.17,77.47A.8.8,0,0,1,137,78a.77.77,0,0,1-.55.2.7.7,0,0,1-.54-.21.78.78,0,0,1-.2-.56.73.73,0,0,1,.2-.56.7.7,0,0,1,.54-.21.81.81,0,0,1,.39.1.65.65,0,0,1,.26.26A.88.88,0,0,1,137.17,77.47Zm-1,0a.72.72,0,0,0,0,.29.19.19,0,0,0,.34,0,.87.87,0,0,0,0-.58.21.21,0,0,0-.34,0A.72.72,0,0,0,136.21,77.47Z"/><path class="cls-27" d="M138.4,78.75v-.81a.47.47,0,0,0,0-.23.15.15,0,0,0-.14-.07.2.2,0,0,0-.19.1.8.8,0,0,0-.05.36v.65h-.52V77.26h.39l.06.19h0a.42.42,0,0,1,.19-.16.53.53,0,0,1,.26-.05.51.51,0,0,1,.39.14.55.55,0,0,1,.13.4v1Z"/><path class="cls-27" d="M140.66,77.34v.25l-.2.07a.34.34,0,0,1,0,.18.45.45,0,0,1-.17.37.79.79,0,0,1-.5.13h-.13a.19.19,0,0,0,0,.07s0,0,.06,0a.39.39,0,0,0,.16,0h.25c.33,0,.5.14.5.43a.48.48,0,0,1-.23.42,1.2,1.2,0,0,1-.65.15.94.94,0,0,1-.49-.11.34.34,0,0,1-.17-.3c0-.18.11-.29.33-.34a.28.28,0,0,1-.12-.1.21.21,0,0,1,0-.12.2.2,0,0,1,0-.13.64.64,0,0,1,.16-.12.4.4,0,0,1-.18-.16.47.47,0,0,1-.07-.27.45.45,0,0,1,.17-.37.71.71,0,0,1,.47-.14H140l.14,0ZM139.54,79s0,.07.07.1a.34.34,0,0,0,.18,0,.78.78,0,0,0,.3-.05c.08,0,.11-.07.11-.12a.08.08,0,0,0-.07-.08.47.47,0,0,0-.19,0h-.2a.29.29,0,0,0-.14,0A.12.12,0,0,0,139.54,79Zm.16-1.19c0,.16.06.23.16.23a.17.17,0,0,0,.12,0,.39.39,0,0,0,0-.17c0-.16-.06-.23-.16-.23S139.7,77.67,139.7,77.82Z"/><path class="cls-27" d="M141.85,78.37l-.09-.2h0a.6.6,0,0,1-.22.18.7.7,0,0,1-.27,0,.45.45,0,0,1-.33-.12.51.51,0,0,1-.12-.36.41.41,0,0,1,.16-.35.89.89,0,0,1,.48-.13h.25v0a.16.16,0,0,0-.18-.18,1,1,0,0,0-.42.11L141,77a1.39,1.39,0,0,1,.65-.13.6.6,0,0,1,.44.14.47.47,0,0,1,.16.39v1Zm-.38-.34a.21.21,0,0,0,.16-.06.18.18,0,0,0,.07-.15V77.7h-.12c-.17,0-.25.07-.25.19S141.38,78,141.47,78Z"/></g></g></svg>