<svg xmlns="http://www.w3.org/2000/svg" viewBox="0 0 56.69 56.69"><defs><style>.cls-1{fill:#f8ad17;}.cls-2{opacity:0.9;isolation:isolate;}.cls-3{fill:#fff;}.cls-4{fill:#1d1d1b;}</style></defs><g id="Layer_2" data-name="Layer 2"><g id="Layer_1-2" data-name="Layer 1"><rect class="cls-1" width="56.69" height="56.69" rx="0.48"/><path class="cls-1" d="M38.51,47.46c16.28-9,20.08-36.74-5.48-39.94C16.73,3.37-14.29,30,22.43,47.75A17.14,17.14,0,0,0,38.51,47.46Z"/><g class="cls-2"><path class="cls-3" d="M38.51,47.46c16.28-9,20.08-36.74-5.48-39.94C16.73,3.37-14.29,30,22.43,47.75A17.14,17.14,0,0,0,38.51,47.46Z"/></g><path class="cls-4" d="M28.77,19A5.48,5.48,0,0,0,24,21.55a12.12,12.12,0,0,0-1.72,6.94q0,9.19,7,9.2a14.41,14.41,0,0,0,4.1-.59c1.32-.4,2.65-.87,4-1.42V43a22,22,0,0,1-9,1.77q-7.21,0-11.06-4.19t-3.84-12.1a19.33,19.33,0,0,1,1.86-8.69A13.37,13.37,0,0,1,20.63,14a16.24,16.24,0,0,1,8.23-2,22.76,22.76,0,0,1,9.87,2.24L36.1,21a28.8,28.8,0,0,0-3.54-1.39A12.23,12.23,0,0,0,28.77,19Z"/></g></g></svg>