<svg xmlns="http://www.w3.org/2000/svg" viewBox="0 0 37.46 13.84"><defs><style>.cls-1{fill:#1d1d1b;}</style></defs><g id="Layer_2" data-name="Layer 2"><g id="Layer_1-2" data-name="Layer 1"><path class="cls-1" d="M4.2,1.93a1.49,1.49,0,0,0-1.31.69,3.36,3.36,0,0,0-.47,1.9C2.42,6.19,3.06,7,4.33,7a3.79,3.79,0,0,0,1.12-.16c.36-.11.73-.24,1.09-.39v2A6.08,6.08,0,0,1,4.07,9a3.91,3.91,0,0,1-3-1.14A4.71,4.71,0,0,1,0,4.5,5.23,5.23,0,0,1,.51,2.13,3.67,3.67,0,0,1,2,.55,4.41,4.41,0,0,1,4.22,0a6.16,6.16,0,0,1,2.7.61L6.2,2.47a7.65,7.65,0,0,0-1-.38A3.24,3.24,0,0,0,4.2,1.93Z"/><path class="cls-1" d="M14.55,4.75a3.6,3.6,0,0,1-.89,2.59,3.34,3.34,0,0,1-2.5.92,3.22,3.22,0,0,1-2.44-.94,3.56,3.56,0,0,1-.91-2.57A3.53,3.53,0,0,1,8.7,2.19a3.33,3.33,0,0,1,2.5-.92A3.61,3.61,0,0,1,13,1.7a2.79,2.79,0,0,1,1.17,1.21A3.87,3.87,0,0,1,14.55,4.75Zm-4.37,0a2.94,2.94,0,0,0,.23,1.33.8.8,0,0,0,.78.45A.78.78,0,0,0,12,6.08a3.08,3.08,0,0,0,.23-1.33A2.94,2.94,0,0,0,12,3.45.79.79,0,0,0,11.18,3a.79.79,0,0,0-.77.44A2.77,2.77,0,0,0,10.18,4.75Z"/><path class="cls-1" d="M20.14,10.56V6.88a2.07,2.07,0,0,0-.2-1,.66.66,0,0,0-.62-.35.9.9,0,0,0-.85.47,3.55,3.55,0,0,0-.26,1.62v3H15.88V3.81h1.75l.3.84h.13a1.88,1.88,0,0,1,.83-.72A2.87,2.87,0,0,1,20.1,3.7a2.29,2.29,0,0,1,1.74.64,2.54,2.54,0,0,1,.63,1.83v4.39Z"/><path class="cls-1" d="M30.42,4.16V5.29l-.92.34a1.69,1.69,0,0,1,.19.8,2,2,0,0,1-.77,1.69,3.65,3.65,0,0,1-2.28.6,3.25,3.25,0,0,1-.6,0A.55.55,0,0,0,26,9c0,.11.09.2.28.26a2.37,2.37,0,0,0,.73.1h1.12c1.51,0,2.27.63,2.27,1.91a2.18,2.18,0,0,1-1.05,1.92,5.46,5.46,0,0,1-2.95.68,4.26,4.26,0,0,1-2.22-.48A1.52,1.52,0,0,1,23.37,12q0-1.2,1.5-1.56a1.37,1.37,0,0,1-.54-.42.92.92,0,0,1-.23-.58,1,1,0,0,1,.17-.56A2.68,2.68,0,0,1,25,8.29a1.81,1.81,0,0,1-.82-.73,2.27,2.27,0,0,1-.3-1.2,2.06,2.06,0,0,1,.75-1.71A3.29,3.29,0,0,1,26.76,4l.64,0,.67.08Zm-5.09,7.59a.52.52,0,0,0,.31.46,1.65,1.65,0,0,0,.83.18,3.61,3.61,0,0,0,1.35-.21c.34-.14.51-.33.51-.55s-.1-.3-.31-.38a2.82,2.82,0,0,0-.88-.11h-.92a1.07,1.07,0,0,0-.63.18A.52.52,0,0,0,25.33,11.75Zm.73-5.38c0,.69.24,1,.72,1a.6.6,0,0,0,.52-.26,1.35,1.35,0,0,0,.18-.77c0-.7-.23-1-.7-1S26.06,5.68,26.06,6.37Z"/><path class="cls-1" d="M35.85,8.83l-.45-.89h0a2.56,2.56,0,0,1-1,.8A3.18,3.18,0,0,1,33.13,9a2,2,0,0,1-1.5-.57,2.22,2.22,0,0,1-.55-1.61,1.82,1.82,0,0,1,.75-1.6A4.1,4.1,0,0,1,34,4.58l1.12,0v-.1a.73.73,0,0,0-.82-.83,5,5,0,0,0-1.88.5l-.67-1.54a6.56,6.56,0,0,1,3-.6,2.91,2.91,0,0,1,2,.64,2.32,2.32,0,0,1,.71,1.8V8.83ZM34.12,7.31A1,1,0,0,0,34.84,7a.89.89,0,0,0,.3-.7V5.82l-.53,0c-.77,0-1.15.31-1.15.85S33.68,7.31,34.12,7.31Z"/></g></g></svg>