<svg xmlns="http://www.w3.org/2000/svg" viewBox="0 0 41.19 66.01"><defs><style>.cls-1{opacity:0.9;isolation:isolate;}.cls-2{fill:#fff;}.cls-3{fill:#1d1d1b;}</style></defs><g id="Layer_2" data-name="Layer 2"><g id="Layer_1-2" data-name="Layer 1"><g class="cls-1"><path class="cls-2" d="M35.48,14.08C42.65,10.93,44.32,1.27,33.06.15,25.88-1.3,12.22,8,28.39,14.18A9.31,9.31,0,0,0,35.48,14.08Z"/></g><path class="cls-2" d="M16.24,11.19a42.19,42.19,0,0,0-11,11.63A26.64,26.64,0,0,0,.78,37.91a25.19,25.19,0,0,0,1.49,7.77c.2.63.5,1.22.74,1.84l.39.92.45.88.92,1.77,1.05,1.69A63.58,63.58,0,0,0,16.24,65l-.06.07A50,50,0,0,1,5,53.31,31.66,31.66,0,0,1,1.37,46,26.09,26.09,0,0,1,0,37.92,27.5,27.5,0,0,1,4.82,22.55,42.78,42.78,0,0,1,16.18,11.11Z"/><path class="cls-2" d="M7.09,63.22l4.9.85,4.89.89-.49.6a13.81,13.81,0,0,1-1.23-3.76A15.63,15.63,0,0,1,15,57.88h.1c.34,1.26.65,2.5,1,3.72l.54,1.83c.18.6.37,1.22.59,1.78l.31.81-.8-.21-4.81-1.22L7.07,63.31Z"/><path class="cls-3" d="M33.12,11.15H31.31v-5l0-.81,0-.89c-.3.3-.51.49-.63.59l-1,.79-.87-1.09,2.76-2.2h1.48Z"/></g></g></svg>