<svg viewBox="0 0 500 500" xmlns="http://www.w3.org/2000/svg"><path d="m416.38 83.29c-64.22-91.19-162.27 106.43-199.06 106.79-55.86.55-45.32-87.91-104.93-87.72-83.86.26-70.4 87.92-63.82 120.26 6.65 32.66 32.15 106.67 101.27 108.91 105.58 3.43 87.53-73.23 148.72-97.34 28.86-11.37 46.2 28.36 91.86 11.43 79.64-29.51 48.9-129.75 25.96-162.33z" fill="#00abab"/><path d="m416.38 83.29c-64.22-91.19-162.27 106.43-199.06 106.79-55.86.55-45.32-87.91-104.93-87.72-83.86.26-70.4 87.92-63.82 120.26 6.65 32.66 32.15 106.67 101.27 108.91 105.58 3.43 87.53-73.23 148.72-97.34 28.86-11.37 46.2 28.36 91.86 11.43 79.64-29.51 48.9-129.75 25.96-162.33z" fill="#fff" opacity=".9"/><ellipse cx="250" cy="416.24" fill="#f5f5f5" rx="193.89" ry="11.32"/><path d="m121.87 125.32c-2 2.93-1.37 5.06.32 10.88.7 2.41 1.78 4.81 5.1 1.26s6.55-10.3 2.29-11.44a22.11 22.11 0 0 0 -7.71-.7z" fill="#263238"/><path d="m121.78 406.89h-7.42l-.32-17.21h7.43z" fill="#ffc3bd"/><path d="m166.39 406.89h-7.43l-3.31-17.21h7.43z" fill="#ffc3bd"/><path d="m158.45 406h8.35a.63.63 0 0 1 .62.5l1.31 6.61a1.13 1.13 0 0 1 -1.12 1.32c-2.92 0-4.33-.22-8-.22-2.26 0-6.91.23-10 .23s-3.45-3.08-2.17-3.36c5.76-1.25 8-3 9.83-4.63a1.85 1.85 0 0 1 1.18-.45z" fill="#263238"/><path d="m114.43 406h8.11a.63.63 0 0 1 .62.5l1.3 6.61a1.11 1.11 0 0 1 -1.1 1.32c-2.92 0-7.15-.22-10.83-.22-4.3 0-8 .23-13.06.23-3 0-3.82-3.08-2.54-3.36 5.84-1.27 10.59-1.41 15.69-4.5a3.49 3.49 0 0 1 1.81-.58z" fill="#263238"/><path d="m116.36 171.91-10.14-3.25s-10.48 24.26-14 25.77c-4.77 2-11.44 8.53-16.18 12.48-.15 1.25.43 4.54 1.18 5.4 8.55-2 19.21-6.9 22.7-10.13 7.98-7.37 16.44-30.27 16.44-30.27z" fill="#ffc3bd"/><path d="m118.73 166.33c2.85 6.5-8.6 27.14-8.6 27.14l-15.15-7a93.76 93.76 0 0 1 7.51-18.14c4.76-8.33 13.11-9.14 16.24-2z" fill="#00abab"/><path d="m118.73 166.33c2.85 6.5-8.6 27.14-8.6 27.14l-15.15-7a93.76 93.76 0 0 1 7.51-18.14c4.76-8.33 13.11-9.14 16.24-2z" fill="#fff" opacity=".7"/><path d="m106 177.65a80.65 80.65 0 0 0 -3.43 12.35l7.56 3.5s8.06-14.52 9-23c-4.41-2.94-10.37-.17-13.13 7.15z" opacity=".2"/><path d="m77.07 206.19-8.84 1.41 2.29 9.33a32.89 32.89 0 0 0 8.51-5.3z" fill="#ffc3bd"/><path d="m60.58 211.55 3.22 5.14 6.72.24-2.29-9.33z" fill="#ffc3bd"/><path d="m114.04 389.69.16 8.87h7.43l-.16-8.87z" opacity=".2"/><path d="m163.08 389.69h-7.43l1.71 8.87h7.43z" opacity=".2"/><path d="m109 162.11s-9.32 25.53-2 67.31h39.73c.42-6.1-2.68-38.95 3.91-67.69a102.12 102.12 0 0 0 -13.26-1.68 146.31 146.31 0 0 0 -16.89 0 76.15 76.15 0 0 0 -11.49 2.06z" fill="#00abab"/><path d="m109 162.11s-9.32 25.53-2 67.31h39.73c.42-6.1-2.68-38.95 3.91-67.69a102.12 102.12 0 0 0 -13.26-1.68 146.31 146.31 0 0 0 -16.89 0 76.15 76.15 0 0 0 -11.49 2.06z" fill="#fff" opacity=".7"/><path d="m141.84 168.83c-.77 4.73.44 16 4.62 29.12a191.42 191.42 0 0 1 3.54-33.36v-.06c-2.58-.26-7.41-.14-8.16 4.3z" opacity=".2"/><path d="m135.57 144.25c-1.2 5.44-1.89 12.17 1.82 15.8 0 0-2.32 5.51-12.42 5.51-9.23 0-4.47-5.51-4.47-5.51 6.09-1.45 6-8.94 5-13.16z" fill="#ffc3bd"/><path d="m124.49 165.13-2.18 2.42a.63.63 0 0 0 -.14.63l.7 2.13a.61.61 0 0 0 .56.42l2.35.12a.64.64 0 0 0 .57-.29l1.41-2.07a.62.62 0 0 0 0-.77l-2.28-2.6a.63.63 0 0 0 -.99.01z" fill="#263238"/><path d="m125 164.59a12.88 12.88 0 0 1 1.8 6.19s12.76-4.46 12.33-11c0 0-1.77-1.07-2.89-1.94-.02.01-.55 4.16-11.24 6.75z" fill="#fff"/><path d="m125 164.59a18.15 18.15 0 0 0 -2.61 5.8s-5.64-3.88-3.76-10.34a21.86 21.86 0 0 1 3.27-1s-.9 4.14 3.1 5.54z" fill="#fff"/><path d="m124 169.49c-.36-.12-4.93 26.68-4.42 31.51a40.4 40.4 0 0 0 2.77 13s2-4.94 2.18-13.33c0-8.28.09-26.34.82-31z" fill="#263238"/><path d="m125.5 146.89a16.2 16.2 0 0 1 -.26 8.92 9.6 9.6 0 0 0 2.76-.81c3.46-1.61 5.2-4.14 7.05-7.91.16-1 .34-1.9.55-2.82z" opacity=".2"/><path d="m116.91 141a6.77 6.77 0 0 0 3.52 4c2.2 1 3.74-.89 3.49-3.2-.22-2.09-1.64-5.14-4-5.19a3.24 3.24 0 0 0 -3.01 4.39z" fill="#ffc3bd"/><path d="m116.91 141a6.77 6.77 0 0 0 3.52 4c2.2 1 3.74-.89 3.49-3.2-.22-2.09-1.64-5.14-4-5.19a3.24 3.24 0 0 0 -3.01 4.39z" opacity=".2"/><path d="m140.14 137.63c-2.15 7.12-3 11.4-7.53 14.32-6.74 4.39-14.76-.83-14.76-8.41 0-6.82 3.52-17.32 11.18-18.68a9.83 9.83 0 0 1 11.11 12.77z" fill="#ffc3bd"/><path d="m136 128.78c-2 2.93-1.36 5.06.33 10.88.7 2.41 1.78 4.81 5.09 1.26s6.56-10.3 2.29-11.44a22.11 22.11 0 0 0 -7.71-.7z" fill="#263238"/><path d="m136.81 131c-4.6-.56-16-1.52-15.15-7.46s8.58-4.15 8.58-4.15-3.83 2 4.21 3.55 12.11 6.31 8.48 8.22a5.6 5.6 0 0 1 -6.12-.16z" fill="#263238"/><path d="m141.48 146.29a7.11 7.11 0 0 1 -5 2.11c-2.45 0-3-2.35-1.7-4.33 1.14-1.79 3.79-3.95 6-3s2.3 3.57.7 5.22z" fill="#ffc3bd"/><path d="m117.19 143.55c-.21 3.71.14 8.7 3 9.69s10.36.67 12.74-.63c3.72-2 5.38-10.51 7.11-12.12s-1.54-2.38-1.54-2.38-2.2 5.44-5.79 5.69-15.26-4.94-15.52-.25z" fill="#263238"/><path d="m133.12 229.42s-.79 9.34-1.79 22c-1.15 14.35-2.56 33-3.4 47.17v.2c-.16 2.69-.3 5.22-.42 7.53-1.12 23.15-3.44 90.52-3.44 90.52h-12.6s-6.33-68.75-6.6-92.31c-.25-22.66 2.13-75.11 2.13-75.11z" fill="#00abab"/><path d="m125 393c.05 0-.11 4.11-.11 4.11h-14.5l-.5-4.62z" fill="#263238"/><path d="m131.33 251.42c-1.15 14.35-2.56 33-3.4 47.17v.2c-3.08-13.46-4.33-30.2-3.89-57.76z" opacity=".2"/><path d="m121.1 229.42s7 53.68 11.15 75c4.5 23.29 21.69 92.47 21.69 92.47h13.61s-10.74-67.3-13.07-90.36c-2.52-25-7.74-77.06-7.74-77.06z" fill="#00abab"/><path d="m167.63 393.29c.06 0 .59 3.8.59 3.8h-15l-1.22-4.36z" fill="#263238"/><path d="m162.26 388.8a.13.13 0 0 1 -.12-.11c-.1-.69-9.78-60.62-11.87-81.34-2.27-22.49-7-72.34-7-72.84a.13.13 0 0 1 .11-.14.12.12 0 0 1 .14.11c.05.5 4.77 50.35 7 72.84 2.09 20.71 11.77 80.64 11.87 81.33a.14.14 0 0 1 -.11.15z" fill="#fff" opacity=".3"/><path d="m128.84 137.29c-.14.59-.56 1-.94.92s-.57-.63-.43-1.21.56-1 .94-.92.59.63.43 1.21z" fill="#263238"/><path d="m122.28 135.87c-.14.58-.56 1-.94.91s-.58-.62-.44-1.21.56-1 .94-.92.57.63.44 1.22z" fill="#263238"/><path d="m124.29 136.61a22.16 22.16 0 0 1 -4 4.43 3.37 3.37 0 0 0 2.65 1.13z" fill="#ed847e"/><path d="m124.28 146.19a.17.17 0 0 1 -.13-.21.18.18 0 0 1 .22-.13 4.81 4.81 0 0 0 4.21-.88.18.18 0 0 1 .25 0 .19.19 0 0 1 0 .25 5.07 5.07 0 0 1 -4.55.97z" fill="#ffc3bd"/><path d="m131.33 135.58a.31.31 0 0 1 -.24-.19 2.7 2.7 0 0 0 -1.92-1.63.34.34 0 0 1 -.28-.4.36.36 0 0 1 .4-.3 3.35 3.35 0 0 1 2.44 2 .36.36 0 0 1 -.18.47.34.34 0 0 1 -.22.05z" fill="#263238"/><path d="m119.88 132.87a.31.31 0 0 1 -.13-.08.35.35 0 0 1 0-.49 3.55 3.55 0 0 1 3-1.23.34.34 0 0 1 .29.4.37.37 0 0 1 -.41.3 2.82 2.82 0 0 0 -2.36 1 .35.35 0 0 1 -.39.1z" fill="#263238"/><path d="m144.16 174 10.32-3.36s9.5 24.2 13 25.61c4.79 1.91 14.52 7 20.57 8.22.69 1 1.62 4.16 1.33 5.27-8.67 2.25-26.32-2.5-29.8-5.62-7.9-7.12-15.42-30.12-15.42-30.12z" fill="#ffc3bd"/><path d="m150.65 161.73c7 1 14.46 25.38 14.46 25.38l-15 8.34s-6.22-11.59-9.21-20.19c-3.11-9.01 2.24-14.63 9.75-13.53z" fill="#00abab"/><path d="m150.65 161.73c7 1 14.46 25.38 14.46 25.38l-15 8.34s-6.22-11.59-9.21-20.19c-3.11-9.01 2.24-14.63 9.75-13.53z" fill="#fff" opacity=".7"/><path d="m156 407.32a2.24 2.24 0 0 1 -1.43-.37 1.07 1.07 0 0 1 -.34-.94.57.57 0 0 1 .32-.49c.82-.42 3.19 1.05 3.46 1.22a.19.19 0 0 1 .07.18.18.18 0 0 1 -.13.14 9.21 9.21 0 0 1 -1.95.26zm-1.07-1.53a.53.53 0 0 0 -.23 0 .24.24 0 0 0 -.12.21.71.71 0 0 0 .23.64 3.57 3.57 0 0 0 2.63.13 6.85 6.85 0 0 0 -2.54-.98z" fill="#00abab"/><path d="m157.87 407.06a.13.13 0 0 1 -.08 0c-.76-.42-2.2-2-2-2.87a.6.6 0 0 1 .58-.46.92.92 0 0 1 .74.22c.85.71 1 2.85 1 2.94a.15.15 0 0 1 -.08.16.17.17 0 0 1 -.16.01zm-1.42-3h-.08c-.23 0-.25.13-.26.17-.11.49.81 1.72 1.56 2.3a4.19 4.19 0 0 0 -.82-2.33.62.62 0 0 0 -.4-.15z" fill="#00abab"/><path d="m111.3 407.32a2.79 2.79 0 0 1 -1.79-.45 1 1 0 0 1 -.31-.86.59.59 0 0 1 .3-.47c.92-.5 3.87 1 4.2 1.19a.17.17 0 0 1 .09.18.18.18 0 0 1 -.14.15 13.39 13.39 0 0 1 -2.35.26zm-1.3-1.53a.75.75 0 0 0 -.33.06.23.23 0 0 0 -.12.19.65.65 0 0 0 .2.57c.45.4 1.67.47 3.32.2a9.54 9.54 0 0 0 -3.07-1.02z" fill="#00abab"/><path d="m113.61 407.06h-.07c-.89-.41-2.62-2-2.47-2.85 0-.2.19-.45.67-.49a1.21 1.21 0 0 1 1 .3c.92.77 1.08 2.77 1.08 2.86a.16.16 0 0 1 -.08.16.17.17 0 0 1 -.13.02zm-1.74-3h-.1c-.32 0-.34.15-.35.19-.1.51 1.08 1.77 2 2.32a4 4 0 0 0 -.92-2.29.93.93 0 0 0 -.63-.23z" fill="#00abab"/><path d="m188.73 209.86 7.07.34-3.75-7.71s-6.2-.09-7.21 4.67z" fill="#ffc3bd"/><path d="m201.53 206.47-3.75-6.81-5.73 2.83 3.75 7.71z" fill="#ffc3bd"/><path d="m208.92 149.29c-.71-5.18-14.55-9.18-21-3.26-8.7 7.95-7.31 32.87-7.31 46.37 12.88-3.17 32.46-2.41 35.88-.54.73-6.21.56-41.05-7.57-42.57z" fill="#263238"/><path d="m182.24 197.55c-.14 2.36-.4 4.51-.69 6.74s-.68 4.41-1.11 6.61a92.17 92.17 0 0 1 -3.55 13c-.38 1.07-.83 2.13-1.24 3.19s-.9 2.09-1.47 3.18a36.06 36.06 0 0 1 -4 5.9 55.12 55.12 0 0 1 -9.86 9.28l-2.74-3a109.94 109.94 0 0 0 7.27-10.15 35.89 35.89 0 0 0 2.71-5.19c.37-.86.72-1.86 1.09-2.79s.65-1.93 1-2.9a107.94 107.94 0 0 0 2.86-12.09c.35-2.06.66-4.13.95-6.21s.52-4.2.69-6.15z" fill="#ffb573"/><path d="m177.19 187.86c-2.81.72-4.39 19.31-4.39 19.31l7.47 4.5s4.52-13.74 3.83-19.67c-.5-4.31-4.79-4.68-6.91-4.14z" fill="#ffb573"/><path d="m157 242.52-6.43 4.83 7.89 1.81s3.4-3.81 2.27-6.92z" fill="#ffb573"/><path d="m148.86 253.81 6.69 1.16 2.94-5.81-7.89-1.81z" fill="#ffb573"/><path d="m192.21 406.34h-6.42l-3.96-29.23h10.93z" fill="#ffb573"/><path d="m192.47 392.25h-8.59l-2.05-15.14h10.93z" opacity=".2"/><path d="m241.92 395.8-6.2 1.6-12.58-26.64 10.67-3.02z" fill="#ffb573"/><path d="m238.1 382.57-8.48 1.91-6.48-13.72 10.67-3.02z" opacity=".2"/><path d="m234.23 396.31 8.24-3.49a.61.61 0 0 1 .79.25l3.71 6.11a1.28 1.28 0 0 1 -.62 1.8c-2.89 1.17-4.35 1.59-8 3.13-2.22.95-5.38 2.56-8.46 3.87s-4.53-1.67-3.36-2.49c5.21-3.67 5.4-5.76 6.64-8.21a2.15 2.15 0 0 1 1.06-.97z" fill="#263238"/><path d="m184.94 405.42h8.94a.64.64 0 0 1 .64.55l1 7.07a1.29 1.29 0 0 1 -1.28 1.42c-3.12-.06-4.62-.24-8.55-.24-2.42 0-7.43.25-10.77.25s-3.52-3.3-2.13-3.6c6.24-1.34 8.7-3.19 10.8-5a2.06 2.06 0 0 1 1.35-.45z" fill="#263238"/><path d="m176.7 187.85s-3.8 1.33 3.8 48.05h32.33c-.54-13.16-.56-21.28 5.73-48.28a94.38 94.38 0 0 0 -13.73-1.81 102.64 102.64 0 0 0 -14.68 0c-6.3.57-13.45 2.04-13.45 2.04z" fill="#00abab"/><path d="m200.51 204.35s-.07 0-.08-.06c-2-3.46-7.08-6.18-7.13-6.21a.12.12 0 0 1 -.05-.17.13.13 0 0 1 .17 0s5 2.72 7.14 6.17c2.12-1.86 8.92-10.28 8.1-17.52a.12.12 0 0 1 .11-.13.12.12 0 0 1 .13.11c.84 7.47-6.3 16.16-8.3 17.83a.11.11 0 0 1 -.09-.02z" fill="#fff"/><path d="m183.74 203a.11.11 0 0 1 -.08 0 4.39 4.39 0 0 1 -1.09-3.08c-.27-3.92 1.34-10.41 3.89-13.21a.13.13 0 0 1 .18 0 .12.12 0 0 1 0 .17c-2.51 2.77-4.09 9.16-3.83 13a4.43 4.43 0 0 0 .9 2.8c1.66-2.25 6.3-5 6.5-5.09a.13.13 0 1 1 .12.22c-.05 0-5 2.9-6.5 5.13a.15.15 0 0 1 -.09.06z" fill="#fff"/><path d="m203.38 169.28c-.93 4.72-1.85 13.38 1.45 16.53 0 0 1.83 11.11-13.24 11.11-12.45 0-1.44-11.11-1.44-11.11 5.27-1.26 5.13-5.17 4.22-8.84z" fill="#ffb573"/><path d="m199.7 172.42-5.33 4.58a15.07 15.07 0 0 1 .45 2.6c2-.29 4.78-2.5 5-4.6a6.8 6.8 0 0 0 -.12-2.58z" opacity=".2"/><path d="m208.36 160.61c-1.85 7.68-2.47 11-7.1 14.26-7 4.95-16 1-16.47-7.08-.43-7.27 2.67-18.61 10.82-20.36a10.78 10.78 0 0 1 12.75 13.18z" fill="#ffb573"/><path d="m202.35 151.64c.89 7.5 1.25 15.06 6.57 13.22s.52-13.22.52-13.22z" fill="#263238"/><path d="m185.08 154.08a34.67 34.67 0 0 1 23.27.93c-1-3.66-1.61-6.61-6.12-8s-14.89.24-17.15 7.07z" fill="#263238"/><path d="m180.5 235.9s-6.28 61.32-5.76 85.6c.54 25.25 6.27 65.9 6.27 65.9l13-.41s-.41-38.76.54-63.56c1-27 9.63-87.53 9.63-87.53z" fill="#263238"/><path d="m195.38 389.25h-15.65l-1.15-4.03 17.53-.49z" fill="#00abab"/><path d="m194.45 251.15c-7.95 16-1.6 45.12 1.21 56 1.44-16.29 3.87-36.19 5.76-50.81-1.2-8.34-3.31-12.55-6.97-5.19z" opacity=".2"/><path d="m189 235.9s7.32 63.75 12.85 84.22c6.57 24.3 24.28 60.47 24.28 60.47l12.09-3.48s-10.3-42.54-15.32-55.34c-10.72-27.32-1.54-68-10.11-85.87z" fill="#263238"/><path d="m240.45 378.67-14.43 4-2.6-3.7 16.01-5.34z" fill="#00abab"/><path d="m195.39 160.77c-.12.63-.54 1.08-.95 1s-.66-.65-.55-1.28.54-1.08 1-1 .61.64.5 1.28z" fill="#263238"/><path d="m188.24 159.5c-.11.63-.54 1.09-1 1s-.66-.64-.55-1.27.54-1.09.95-1 .71.64.6 1.27z" fill="#263238"/><path d="m187.87 158.29-1.44-.71s.57 1.33 1.44.71z" fill="#263238"/><path d="m190.27 160.85a17.44 17.44 0 0 1 -3 3.64 2.78 2.78 0 0 0 2.18.82z" fill="#ed893e"/><path d="m192.82 168.29a6 6 0 0 1 -1.08-.1.18.18 0 0 1 -.15-.22.19.19 0 0 1 .22-.15 5.13 5.13 0 0 0 4.43-1.23.19.19 0 1 1 .27.26 5.28 5.28 0 0 1 -3.69 1.44z" fill="#263238"/><path d="m208.69 166.4a5.77 5.77 0 0 1 -3.13 3.11c-1.88.76-3-.87-2.7-2.76.3-1.7 1.64-4.14 3.62-4.09a2.59 2.59 0 0 1 2.21 3.74z" fill="#ffb573"/><path d="m198.16 156.54a.39.39 0 0 1 -.28-.12 3 3 0 0 0 -2.54-1 .39.39 0 0 1 -.44-.31.37.37 0 0 1 .31-.43 3.71 3.71 0 0 1 3.22 1.2.38.38 0 0 1 0 .53.4.4 0 0 1 -.27.13z" fill="#263238"/><path d="m186.46 155.57a.36.36 0 0 1 -.26-.11.38.38 0 0 1 0-.53 3.71 3.71 0 0 1 3.23-1.19.36.36 0 0 1 .3.44.37.37 0 0 1 -.44.3 3 3 0 0 0 -2.54 1 .37.37 0 0 1 -.29.09z" fill="#263238"/><path d="m222.06 196.13a122.22 122.22 0 0 1 4.71 13.73 80.8 80.8 0 0 1 2.9 14.47c.08.62.11 1.27.13 1.91v1 .24.31a6.48 6.48 0 0 1 -.06.9 10.72 10.72 0 0 1 -2 4.75 33 33 0 0 1 -5.32 5.71 78.08 78.08 0 0 1 -11.88 8.42l-2.34-3.28c3.39-3.11 6.82-6.3 9.8-9.63a32 32 0 0 0 3.82-5 4.24 4.24 0 0 0 .65-1.72s0 0 0 0v-.34l-.09-.79c-.05-.53-.1-1.05-.2-1.59a94.76 94.76 0 0 0 -3.18-13.08c-1.36-4.33-2.9-8.74-4.51-12.93z" fill="#ffb573"/><path d="m218.53 187.62c3.17 1.29 7.14 18.65 7.14 18.65l-6.74 5.53s-6.35-12.94-6.63-18.91c-.22-4.48 3.43-6.42 6.23-5.27z" fill="#ffb573"/><g fill="#00abab"><path d="m230.6 398.82a1.08 1.08 0 0 1 -.57-.75.63.63 0 0 1 .14-.63c.69-.75 3.52-.26 3.85-.2a.19.19 0 0 1 .15.14.2.2 0 0 1 -.08.19c-.85.63-2.42 1.63-3.38 1.3zm2.9-1.29c-1.14-.16-2.69-.23-3.05.16a.26.26 0 0 0 0 .28.68.68 0 0 0 .44.54c.46.18 1.44-.18 2.61-.98z"/><path d="m232.7 397.18c-.83-.4-1.68-1-1.8-1.58a.66.66 0 0 1 .38-.73 1 1 0 0 1 .83-.08c1.1.36 2 2.47 2 2.56a.19.19 0 0 1 0 .18.17.17 0 0 1 -.17.08 4.46 4.46 0 0 1 -1.24-.43zm-.59-2-.12-.05a.63.63 0 0 0 -.52.05c-.21.12-.22.24-.2.33.12.55 1.45 1.38 2.38 1.64a4.84 4.84 0 0 0 -1.54-1.96z"/><path d="m182 406.81a3 3 0 0 1 -1.93-.49 1 1 0 0 1 -.34-.91.62.62 0 0 1 .32-.51c1-.53 4.15 1.09 4.5 1.28a.16.16 0 0 1 .1.19.19.19 0 0 1 -.15.16 13.81 13.81 0 0 1 -2.5.28zm-1.42-1.64a.82.82 0 0 0 -.35.06.25.25 0 0 0 -.13.21.68.68 0 0 0 .22.6c.48.44 1.79.51 3.56.22a10.36 10.36 0 0 0 -3.35-1.09z"/><path d="m184.42 406.53h-.08c-1-.43-2.83-2.15-2.68-3 0-.22.19-.48.71-.53a1.36 1.36 0 0 1 1 .32c1 .83 1.19 3 1.2 3.07a.18.18 0 0 1 -.19.2zm-1.9-3.22h-.11c-.35 0-.37.17-.38.22-.08.54 1.19 1.89 2.16 2.48a4.41 4.41 0 0 0 -1-2.46 1 1 0 0 0 -.67-.24z"/><path d="m213.32 234 .82 2.89c.12.23-.15.46-.52.46h-33.28c-.29 0-.53-.15-.55-.33l-.29-2.89c0-.2.23-.37.55-.37h32.74a.59.59 0 0 1 .53.24z"/></g><path d="m213.32 234 .82 2.89c.12.23-.15.46-.52.46h-33.28c-.29 0-.53-.15-.55-.33l-.29-2.89c0-.2.23-.37.55-.37h32.74a.59.59 0 0 1 .53.24z" fill="#263238" opacity=".8"/><path d="m208.92 237.66h.88c.17 0 .3-.09.29-.2l-.41-3.76c0-.11-.16-.2-.34-.2h-.88c-.17 0-.3.09-.29.2l.41 3.76c.01.11.16.2.34.2z" fill="#00abab"/><path d="m182.8 237.66h.88c.18 0 .31-.09.3-.2l-.41-3.76c0-.11-.17-.2-.34-.2h-.88c-.18 0-.31.09-.3.2l.41 3.76c.02.11.17.2.34.2z" fill="#00abab"/><path d="m195.86 237.66h.88c.17 0 .31-.09.29-.2l-.41-3.76c0-.11-.16-.2-.34-.2h-.87c-.18 0-.31.09-.3.2l.41 3.76c.01.11.17.2.34.2z" fill="#00abab"/><path d="m209.15 243.57-8.57.74 5.73 5.72s4.91-1.43 5.59-4.66z" fill="#ffb573"/><path d="m195.68 248.87 5.05 4.53 6.79-3.82-6.94-5.27z" fill="#ffb573"/><path d="m195 159.56-1.44-.71s.59 1.32 1.44.71z" fill="#263238"/><path d="m308.67 160.6c0 .65.3 1.21.73 1.25s.8-.45.82-1.1-.3-1.21-.73-1.25-.8.5-.82 1.1z" fill="#263238"/><path d="m309.3 159.51 1.59-.29s-.89 1.14-1.59.29z" fill="#263238"/><path d="m309.2 161.28a18.38 18.38 0 0 0 2.18 4.38 2.81 2.81 0 0 1 -2.36.21z" fill="#a02724"/><path d="m309.72 156.35a.42.42 0 0 1 -.19 0 3.17 3.17 0 0 0 -2.83.09.39.39 0 0 1 -.53-.12.37.37 0 0 1 .1-.53 3.93 3.93 0 0 1 3.54-.15.4.4 0 0 1 .22.5.37.37 0 0 1 -.31.21z" fill="#263238"/><path d="m286.73 156.65c.19 8 .1 11.43 4 15.93 5.9 6.76 15.8 5.38 18-2.4 2-7 1.37-19-6.42-22.92s-15.77 1.36-15.58 9.39z" fill="#b55b52"/><path d="m275.13 196.3c-1.3 3.6-2.58 7.45-3.76 11.22s-2.26 7.61-3.21 11.44l-.3 1.25a.48.48 0 0 0 -.05.24 1.24 1.24 0 0 0 0 .35 7.79 7.79 0 0 0 .34 2 27.56 27.56 0 0 0 2.1 4.9 98.19 98.19 0 0 0 6.26 9.91l-3.23 3.09a55.33 55.33 0 0 1 -8.84-9.3 29.69 29.69 0 0 1 -3.5-6 15.09 15.09 0 0 1 -1.1-3.92 7.3 7.3 0 0 1 -.08-1.18 7.06 7.06 0 0 1 .06-1.28c.05-.52.1-.7.14-1l.12-.78a120.89 120.89 0 0 1 2.67-12.24 113.89 113.89 0 0 1 4-12z" fill="#b55b52"/><path d="m269.87 184.58c-5 2.46-7.86 16.23-7.86 16.23l12.77 6.27s7.77-10.2 5.41-18.18c-1.19-3.98-5.41-6.74-10.32-4.32z" fill="#263238"/><path d="m275.77 236.46 5.09 7.41-6.49-.22s-3.25-3.25-1.34-6z" fill="#b55b52"/><path d="m280.09 247.05-3.96 2.14-1.76-5.54 6.49.22z" fill="#b55b52"/><path d="m287.74 166.85c1.18 4.81.79 13-2.45 16.13 0 0 3.55 4.77 12.55 4.88 9.91.12 4.5-4.81 4.5-4.81-5.46-1.34-5.52-5.3-4.75-9z" fill="#b55b52"/><path d="m283.07 146.24c-4.73.24-8.19 2.23-4.28 14.06 3 9-7.34 22 2.45 18.51a20.9 20.9 0 0 0 10.66.93s19.83 6.57 16.73-6.89 2.62-23.11-1.62-28.55-22.83-4.96-23.94 1.94z" fill="#263238"/><path d="m282.42 184.46a3.33 3.33 0 0 1 -2.52-1.33c-.87-1.22 0-1.8.74-3 .94-1.56-1.74-3.64 1.26-4.62s15.68 4.39 20.17 3c3.15-1 3.75 1.59 3.07 3.34-1.11 2.88 2 5.83-.64 6.47-2.27.53-17.5-3.54-22.08-3.86z" fill="#00abab"/><path d="m300.93 405.8 8.13.59 1.81-18.63-8.13-.6z" fill="#b55b52"/><path d="m258.62 395.47 7.76 3 8.47-16.41-7.76-3z" fill="#b55b52"/><path d="m268.12 396.56-7.84-5.18a.64.64 0 0 0 -.85.09l-4.68 5.31a1.32 1.32 0 0 0 .36 1.92c2.77 1.76 4.18 2.47 7.63 4.75 2.12 1.4 5.09 3.66 8 5.59s4.85-.72 3.79-1.77c-4.75-4.73-4.63-6.84-5.52-9.53a2.33 2.33 0 0 0 -.89-1.18z" fill="#263238"/><path d="m309.53 405.24h-9.12a.64.64 0 0 0 -.65.55l-1 7.22a1.32 1.32 0 0 0 1.31 1.45c3.18-.06 4.71-.24 8.73-.24 2.46 0 7.57.25 11 .25s3.57-3.37 2.15-3.67c-6.38-1.37-8.89-3.26-11.05-5.06a2.1 2.1 0 0 0 -1.37-.5z" fill="#263238"/><path d="m310.87 387.76-1 10.36-8.07-1.34.93-9.62z" opacity=".2"/><path d="m267.09 379.07 7.76 3-3.51 6.78-7.87-2.79z" opacity=".2"/><path d="m279.26 233.18 33.17.4c5.53-47.31 1.62-48.1 1.62-48.1a68.78 68.78 0 0 0 -7.95-2.06l-.46-.08c-2.2-.37-2.65-.41-5.55-.71-4.93-.26-9.49-.37-15.06-.17h-1.07c-1 .06-2 .13-2.95.21-.65 0-1.29.12-1.9.19l-2.08.26c-3.52.47-6 1-6 1 7.77 27.49 8.14 35.72 8.23 49.06z" fill="#263238"/><path d="m310.51 200.22a28.11 28.11 0 0 0 3.92 13.78c.78-9.2 1-15.43.95-19.66-2.5.16-4.94 1.43-4.87 5.88z" opacity=".2"/><path d="m303.68 233.47s-7.16 50.12-10.71 81.34c-3.75 32.95-18.9 72.6-18.9 72.6l-11.21-3.86s7.41-36.66 9.86-67.61c5-62.83-3.38-68.24 6.54-82.75z" fill="#00abab"/><path d="m303.68 233.47s-7.16 50.12-10.71 81.34c-3.75 32.95-18.9 72.6-18.9 72.6l-11.21-3.86s7.41-36.66 9.86-67.61c5-62.83-3.38-68.24 6.54-82.75z" opacity=".5"/><path d="m295.9 249c-4.79 10.58-2.63 27.72.33 39.18 1.82-14 3.76-28.27 5.2-38.68-1.79-3.44-3.71-4.5-5.53-.5z" opacity=".2"/><path d="m275.26 388.19-13.99-4.83 1.06-4.05 16.2 4.24z" fill="#263238"/><path d="m271.62 399.74a1.31 1.31 0 0 1 -.28.09c-1 .15-2.48-1.18-3.26-2a.19.19 0 0 1 -.05-.21.18.18 0 0 1 .18-.12c.34 0 3.31.11 3.88 1a.65.65 0 0 1 0 .65 1.2 1.2 0 0 1 -.47.59zm-2.93-1.81c1.08 1 2 1.6 2.58 1.52a.66.66 0 0 0 .5-.44.29.29 0 0 0 0-.29c-.3-.47-1.89-.72-3.08-.79z" fill="#00abab"/><path d="m312 233.66s12.06 60 10.83 84.54c-1.29 25.53-11.14 77.36-11.14 77.36l-11.75-1.51s2.8-50.48 2.53-75.69c-.28-27.48-14.77-85-14.77-85z" fill="#00abab"/><path d="m312 233.66s12.06 60 10.83 84.54c-1.29 25.53-11.14 77.36-11.14 77.36l-11.75-1.51s2.8-50.48 2.53-75.69c-.28-27.48-14.77-85-14.77-85z" opacity=".5"/><path d="m317.66 188.31a138 138 0 0 1 7.83 13.77c1.19 2.37 2.32 4.78 3.32 7.29a55.47 55.47 0 0 1 2.63 7.84l.26 1v.13.2l.08.4c0 .27.07.53.1.79a11.78 11.78 0 0 1 -.14 2.89 18.11 18.11 0 0 1 -1.51 4.63 37.54 37.54 0 0 1 -4.57 7.15 74.19 74.19 0 0 1 -11.34 11.28l-3.09-3.23a115.14 115.14 0 0 0 8.82-12c2.48-4 4.78-8.73 3.4-11a60.2 60.2 0 0 0 -2.66-6.62c-1-2.22-2.14-4.44-3.32-6.64s-2.41-4.37-3.66-6.54-2.57-4.36-3.82-6.43z" fill="#b55b52"/><path d="m313.92 242.17 4.81 4.94-5.05 3.16s-5.19-4.19-2.35-7.89z" fill="#b55b52"/><path d="m318.49 250.98-4.13 4.27-.68-4.98 5.05-3.15z" fill="#b55b52"/><path d="m313.75 185.38c6.06 2.52 11.1 9.66 12.95 13.94l-10.17 12.36s-9.24-14-9.24-18.49c.01-4.7 4.17-8.76 6.46-7.81z" fill="#263238"/><path d="m313.48 396.23-16.07-2.16.08-3.96 17.5.79z" fill="#263238"/><path d="m270.68 397.34a5.74 5.74 0 0 1 -2.48.57.21.21 0 0 1 -.16-.11.18.18 0 0 1 0-.19c.05-.08 1.28-2 2.44-2.13a1.06 1.06 0 0 1 .85.25.7.7 0 0 1 .27.81 1.8 1.8 0 0 1 -.92.8zm-2.1.18c1-.06 2.47-.61 2.67-1.13 0-.08.05-.2-.15-.37a.72.72 0 0 0 -.55-.16c-.69.14-1.55 1.06-1.97 1.66z" fill="#00abab"/><path d="m312.59 406.66a13.78 13.78 0 0 1 -2.56-.29.19.19 0 0 1 -.15-.16.18.18 0 0 1 .09-.2c.37-.19 3.61-1.85 4.6-1.3a.67.67 0 0 1 .33.52 1 1 0 0 1 -.35.93 3 3 0 0 1 -1.96.5zm-1.92-.56c1.8.29 3.13.21 3.62-.23a.66.66 0 0 0 .22-.62.22.22 0 0 0 -.12-.2c-.55-.3-2.39.41-3.72 1.05z" fill="#00abab"/><path d="m310.07 406.37a.2.2 0 0 1 -.11 0 .21.21 0 0 1 -.09-.18c0-.15.28-3.46 2.1-3.46h.16c.53.06.69.32.73.54.17.91-1.73 2.67-2.71 3.12zm1.92-3.29c-1.17 0-1.57 1.93-1.69 2.75 1-.6 2.29-2 2.18-2.53 0-.05 0-.18-.38-.21z" fill="#00abab"/><path d="m278.67 231.25-1.35 2.92c-.11.23.18.47.56.47l34.79.41c.3 0 .54-.14.55-.33l.16-2.93c0-.2-.26-.38-.58-.38l-33.6-.4a.59.59 0 0 0 -.53.24z" fill="#00abab"/><path d="m283.36 235h-.9c-.18 0-.32-.09-.31-.2l.24-3.82c0-.11.16-.2.34-.19h.9c.18 0 .32.09.31.2l-.24 3.81c-.01.14-.16.2-.34.2z" fill="#00abab"/><path d="m283.36 235h-.9c-.18 0-.32-.09-.31-.2l.24-3.82c0-.11.16-.2.34-.19h.9c.18 0 .32.09.31.2l-.24 3.81c-.01.14-.16.2-.34.2z" opacity=".5"/><path d="m306.1 235.34h-.9c-.18 0-.32-.09-.32-.21l.24-3.81c0-.11.16-.2.34-.2h.9c.18 0 .32.09.31.2l-.24 3.81c0 .12-.16.21-.33.21z" fill="#00abab"/><path d="m306.1 235.34h-.9c-.18 0-.32-.09-.32-.21l.24-3.81c0-.11.16-.2.34-.2h.9c.18 0 .32.09.31.2l-.24 3.81c0 .12-.16.21-.33.21z" opacity=".5"/><path d="m354.41 404.46-7.47-1.07.49-17.56 7.46 1.07z" fill="#ffc3bd"/><path d="m406.92 406.78h-7.53l-1.88-17.46h7.54z" fill="#ffc3bd"/><path d="m398.77 405.9h9.23a.67.67 0 0 1 .64.52l1.49 6.7a1.11 1.11 0 0 1 -1.11 1.34c-3 0-5.11-.23-8.83-.23-2.3 0-9.2.24-12.37.24s-3.58-3.13-2.28-3.41c5.81-1.27 10.18-3 12-4.69a1.87 1.87 0 0 1 1.23-.47z" fill="#263238"/><path d="m347.12 402.54 8.15 1.16a.67.67 0 0 1 .56.6l.53 6.85a1.1 1.1 0 0 1 -1.27 1.17c-2.93-.47-7.15-1.25-10.85-1.78-4.32-.62-8.08-.92-13.15-1.64-3.06-.44-3.47-3.66-2.14-3.76 6-.44 10.8.11 16.29-2.28a3.42 3.42 0 0 1 1.88-.32z" fill="#263238"/><path d="m371.08 175.76c-.39 5.22-1 10.3-1.77 15.44-.38 2.56-.83 5.12-1.31 7.68-.24 1.28-.49 2.56-.77 3.84l-.43 1.92-.21 1c-.08.32-.2.74-.29 1.11a49.09 49.09 0 0 1 -3 7.9q-1.72 3.62-3.65 7a140 140 0 0 1 -8.37 13.16l-4.97-2.81 5.6-14c.91-2.33 1.76-4.66 2.55-7a48.84 48.84 0 0 0 1.84-6.58c0-.26.09-.46.14-.76l.12-.93.25-1.84.46-3.71.83-7.47 1.6-15z" fill="#ffc3bd"/><path d="m365 168c-7 1.78-10.25 26.56-10.25 26.56l17.3 2.57s1.65-6.67 4.31-15.8c1.64-5.72-2.67-15.56-11.36-13.33z" fill="#00abab"/><path d="m347.61 230.66-6.12 5.21 7.87 3.81a8.08 8.08 0 0 0 2.42-6.15z" fill="#ffc3bd"/><path d="m338.12 240.64 6.92 2.67 4.32-3.63-7.87-3.81z" fill="#ffc3bd"/><path d="m347.44 385.83-.26 9.06 7.47 1.07.25-9.06z" opacity=".2"/><path d="m405.05 389.32h-7.54l.97 9h7.54z" opacity=".2"/><path d="m406.9 169.77a169.48 169.48 0 0 0 -4.29 24.89c-.6 5.85-.91 11.43-1.08 16.49-.38 11.86.06 20.89-.23 23.95-5.9-.29-28.14-1.38-40.27-2-1.19-59.24 3.68-65.05 3.68-65.05a77.61 77.61 0 0 1 9.6-1.38c.68-.06 1.37-.1 2.07-.13a148.32 148.32 0 0 1 17.12.85c1.08.1 2.17.24 3.23.39 5.4.78 10.17 1.99 10.17 1.99z" fill="#00abab"/><path d="m373 166.62c.94 4.49 10.46 35.49 29.11 45.91a.52.52 0 0 1 .27.43c.06.94.08 2.15.09 2.86a.54.54 0 0 1 -.61.54c-2.19-.3-10.44-2.94-22.19-21.8-5.79-9.3-9.8-23.91-10.45-27a.58.58 0 0 1 .42-.68l2.65-.7a.57.57 0 0 1 .71.44z" fill="#263238"/><path d="m374.84 183.47c1.11 2.48-4.19 13.14 2.57 24s12.65 1.93 19.56 5.91c-7.97-8.73-22.13-29.91-22.13-29.91z" fill="#263238"/><path d="m390.41 211h-.1c-12.36-5.71-14.5-23.24-14.52-23.41a.25.25 0 0 1 .22-.28.24.24 0 0 1 .27.22c0 .18 2.13 17.43 14.24 23a.25.25 0 0 1 -.11.48z" fill="#fff"/><path d="m397 180.82a31.81 31.81 0 0 0 5.33 17.33c.09-1.15.2-2.32.32-3.49.45-4.4 1.05-8.95 1.87-13.56z" opacity=".2"/><path d="m392.76 148c-1.35 5.45-2.93 15.49.74 19.36a17.14 17.14 0 0 1 -13.5 4.64c-4.73-.33-4.81-3.66-3.66-5.44 6.22-1.16 6.28-5.73 5.43-10.06z" fill="#ffc3bd"/><path d="m388.29 151.49-6.48 5a17.06 17.06 0 0 1 .38 3.06c2.36-.22 5.71-2.64 6.08-5.08a8.18 8.18 0 0 0 .02-2.98z" opacity=".2"/><path d="m392.55 138.22c.51 7.46 1.18 11.81-2.06 16.09-4.89 6.45-14.47 4.24-17.19-2.92-2.46-6.45-2.87-17.57 4-21.46a10.2 10.2 0 0 1 15.25 8.29z" fill="#ffc3bd"/><path d="m380.27 150.37a5.5 5.5 0 0 0 4.21-2.8.2.2 0 0 0 -.09-.25.19.19 0 0 0 -.26.09 5.19 5.19 0 0 1 -3.91 2.57.21.21 0 0 0 -.17.22.2.2 0 0 0 .22.17z" fill="#263238"/><path d="m385.8 133.12c.31 3.28 2.95 6.6 2.62 8.72a7.13 7.13 0 0 1 -.93 2.64l4.84 1.12s13.83-14.78 2.89-17.62c-5.06-9.77-26.05-12.66-30.39-4-4.61 9.13 8.05 11.29 8.05 11.29s4.95-3.54 12.92-2.15z" fill="#263238"/><path d="m397 146a7.11 7.11 0 0 1 -4 3.68c-2.34.85-3.7-1.21-3.19-3.52.45-2.08 2.21-5 4.64-4.87a3.2 3.2 0 0 1 2.55 4.71z" fill="#ffc3bd"/><path d="m344.63 392.76 12.64 1.81s7.33-46 11.12-72.69c1-7.07 2.66-17.05 4.82-27.7 2.71-13.42 6.17-27.93 9-39.3 3-12 5.29-20.46 5.29-20.46l-26.5-1.31s-13 62.25-14.49 85.2c-1.51 23.87-1.88 74.45-1.88 74.45z" fill="#263238"/><path d="m373.21 294.18c2.71-13.42 6.17-27.93 9-39.3l-2.86-5.88c-6.35 8-7.68 32.1-6.14 45.18z" opacity=".2"/><path d="m375.31 233.82s4.17 64.67 7.35 86.52c3.49 23.93 12.34 76.24 12.34 76.24h13.8s-1.23-49.3-4.77-72.76c-4-26.56-2.74-88.71-2.74-88.71z" fill="#263238"/><path d="m393.34 396.88h16.26v-4.86l-18.17-.31z" fill="#00abab"/><path d="m343.8 392.94 14.26 2.05 1.38-5-16.26-2.36z" fill="#00abab"/><path d="m381.59 141.75c.08.6-.18 1.13-.57 1.18s-.78-.4-.86-1 .18-1.13.58-1.18.77.39.85 1z" fill="#263238"/><path d="m374.78 142.63c.07.6-.18 1.13-.58 1.18s-.77-.39-.85-1 .18-1.13.57-1.18.78.37.86 1z" fill="#263238"/><path d="m377 142.65a21.89 21.89 0 0 1 -2.21 5.53c1.19.86 3 0 3 0z" fill="#ed847e"/><path d="m383.42 139.27a.35.35 0 0 1 -.36-.09 2.84 2.84 0 0 0 -2.42-.89.35.35 0 0 1 -.42-.28.35.35 0 0 1 .28-.42 3.56 3.56 0 0 1 3.07 1.09.35.35 0 0 1 0 .5.42.42 0 0 1 -.15.09z" fill="#263238"/><path d="m371.55 140.66a.41.41 0 0 1 -.22 0 .36.36 0 0 1 -.23-.45 3.55 3.55 0 0 1 2.29-2.33.36.36 0 1 1 .18.69 2.87 2.87 0 0 0 -1.79 1.86.33.33 0 0 1 -.23.23z" fill="#263238"/><path d="m396.27 407.22a2.32 2.32 0 0 1 -1.45-.38 1.1 1.1 0 0 1 -.37-.95.56.56 0 0 1 .31-.5c.84-.43 3.26 1.06 3.54 1.23a.18.18 0 0 1 .08.18.17.17 0 0 1 -.13.15 8.77 8.77 0 0 1 -1.98.27zm-1.12-1.56a.53.53 0 0 0 -.23 0 .23.23 0 0 0 -.11.21.72.72 0 0 0 .24.65 3.61 3.61 0 0 0 2.68.14 7.26 7.26 0 0 0 -2.58-1z" fill="#00abab"/><path d="m398.2 407a.13.13 0 0 1 -.08 0c-.78-.42-2.29-2.07-2.13-2.91a.58.58 0 0 1 .57-.47 1 1 0 0 1 .76.23c.87.71 1.06 2.89 1.06 3a.17.17 0 0 1 -.08.17zm-1.52-3.05h-.08c-.23 0-.25.14-.26.18-.09.5.87 1.75 1.64 2.34a4.21 4.21 0 0 0 -.89-2.36.61.61 0 0 0 -.41-.21z" fill="#00abab"/><path d="m346.25 403.46c-1.24.06-3.42 0-4.14-.79a1 1 0 0 1 -.2-.91.57.57 0 0 1 .36-.43c1-.36 3.75 1.58 4.07 1.8a.19.19 0 0 1 .07.2.18.18 0 0 1 -.16.13zm-3.84-1.8h-.05a.22.22 0 0 0 -.14.17.64.64 0 0 0 .14.6c.4.47 1.61.72 3.3.68-1.11-.72-2.66-1.59-3.25-1.45z" fill="#00abab"/><path d="m346.25 403.46a.22.22 0 0 1 -.14 0c-.84-.54-2.4-2.4-2.14-3.23.06-.19.24-.42.73-.4a1.34 1.34 0 0 1 .94.45c.83.91.75 2.95.74 3a.19.19 0 0 1 -.09.15zm-1.77-3.28c-.14 0-.16.11-.17.14-.15.49.88 1.93 1.72 2.62a4.18 4.18 0 0 0 -.66-2.44.93.93 0 0 0 -.68-.33z" fill="#00abab"/><path d="m408 173.88c.94 1.16 1.74 2.21 2.55 3.34s1.59 2.23 2.37 3.36q2.29 3.4 4.35 7a76.88 76.88 0 0 1 6.81 15.42l.08.28.11.39.19.79c.08.47.17 1 .22 1.42a22.54 22.54 0 0 1 .11 2.54 37 37 0 0 1 -.38 4.5 71.62 71.62 0 0 1 -1.72 8.2 112.12 112.12 0 0 1 -5.38 15.32l-5.41-1.68c.87-5.09 1.71-10.26 2.33-15.3.33-2.51.54-5 .63-7.4a28.67 28.67 0 0 0 -.06-3.38c-.05-.51-.12-1-.2-1.4 0-.2-.09-.35-.13-.52l-.07-.16v-.08l-.08-.19c-.87-2.18-1.94-4.36-3.07-6.53s-2.42-4.31-3.74-6.44-2.72-4.23-4.14-6.31c-.71-1-1.44-2.08-2.17-3.1l-2.2-2.95z" fill="#ffc3bd"/><path d="m406.9 169.77c7.09 1.28 13.63 18.44 13.63 18.44l-14.53 12.3s-5-8.68-9.05-17.08c-4.35-9.14 1.36-15.21 9.95-13.66z" fill="#00abab"/><path d="m412.67 233.28-5 5.82 9.26 2.62s3.13-5.89.19-7.9z" fill="#ffc3bd"/><path d="m407.39 245.38 7.76 1.82 1.81-5.48-9.26-2.62z" fill="#ffc3bd"/><path d="m250.25 301.17a6.26 6.26 0 0 1 -.66 3.15 10.72 10.72 0 0 1 -1.81 2.6 24.25 24.25 0 0 1 -4.82 3.79 61.25 61.25 0 0 1 -10.89 5 143.72 143.72 0 0 1 -23 5.86 269 269 0 0 1 -47 3.9 269 269 0 0 1 -46.95-3.9 144 144 0 0 1 -23-5.86 61.16 61.16 0 0 1 -10.88-5 24.3 24.3 0 0 1 -4.83-3.79 11 11 0 0 1 -1.81-2.6 6.37 6.37 0 0 1 -.66-3.15.5.5 0 0 1 1-.05v.05a6.77 6.77 0 0 0 2.84 4.28 22.14 22.14 0 0 0 4.79 2.74 62.6 62.6 0 0 0 10.79 3.47q5.64 1.34 11.36 2.24c3.78.6 7.58 1.16 11.39 1.57a423.7 423.7 0 0 0 46.05 2.36 423.57 423.57 0 0 0 46.05-2.36c3.82-.41 7.61-1 11.39-1.57s7.54-1.33 11.23-2.24a62.6 62.6 0 0 0 10.79-3.47 22.21 22.21 0 0 0 4.8-2.74 6.8 6.8 0 0 0 2.83-4.28v-.05a.5.5 0 0 1 .56-.43.51.51 0 0 1 .44.48z" fill="#00abab"/><path d="m250.25 301.17a6.26 6.26 0 0 1 -.66 3.15 10.72 10.72 0 0 1 -1.81 2.6 24.25 24.25 0 0 1 -4.82 3.79 61.25 61.25 0 0 1 -10.89 5 143.72 143.72 0 0 1 -23 5.86 269 269 0 0 1 -47 3.9 269 269 0 0 1 -46.95-3.9 144 144 0 0 1 -23-5.86 61.16 61.16 0 0 1 -10.88-5 24.3 24.3 0 0 1 -4.83-3.79 11 11 0 0 1 -1.81-2.6 6.37 6.37 0 0 1 -.66-3.15.5.5 0 0 1 1-.05v.05a6.77 6.77 0 0 0 2.84 4.28 22.14 22.14 0 0 0 4.79 2.74 62.6 62.6 0 0 0 10.79 3.47q5.64 1.34 11.36 2.24c3.78.6 7.58 1.16 11.39 1.57a423.7 423.7 0 0 0 46.05 2.36 423.57 423.57 0 0 0 46.05-2.36c3.82-.41 7.61-1 11.39-1.57s7.54-1.33 11.23-2.24a62.6 62.6 0 0 0 10.79-3.47 22.21 22.21 0 0 0 4.8-2.74 6.8 6.8 0 0 0 2.83-4.28v-.05a.5.5 0 0 1 .56-.43.51.51 0 0 1 .44.48z" fill="#fff" opacity=".5"/><path d="m425.93 301.17a6.37 6.37 0 0 1 -.66 3.15 10.72 10.72 0 0 1 -1.81 2.6 24.3 24.3 0 0 1 -4.83 3.79 61.16 61.16 0 0 1 -10.88 5 144 144 0 0 1 -23 5.86 284.55 284.55 0 0 1 -93.9 0 143.72 143.72 0 0 1 -23-5.86 61.16 61.16 0 0 1 -10.88-5 24 24 0 0 1 -4.83-3.79 10.72 10.72 0 0 1 -1.81-2.6 6.26 6.26 0 0 1 -.66-3.15.5.5 0 0 1 1-.05v.05a6.8 6.8 0 0 0 2.83 4.28 22.21 22.21 0 0 0 4.8 2.74 62.6 62.6 0 0 0 10.79 3.47c3.69.91 7.45 1.65 11.23 2.24s7.57 1.16 11.39 1.57a423.57 423.57 0 0 0 46 2.36 423.7 423.7 0 0 0 46.05-2.36c3.81-.41 7.61-1 11.39-1.57s7.53-1.33 11.23-2.24a62.6 62.6 0 0 0 10.79-3.47 21.91 21.91 0 0 0 4.79-2.74 6.77 6.77 0 0 0 2.84-4.28v-.05a.5.5 0 0 1 .56-.43.52.52 0 0 1 .57.48z" fill="#00abab"/><path d="m425.93 301.17a6.37 6.37 0 0 1 -.66 3.15 10.72 10.72 0 0 1 -1.81 2.6 24.3 24.3 0 0 1 -4.83 3.79 61.16 61.16 0 0 1 -10.88 5 144 144 0 0 1 -23 5.86 284.55 284.55 0 0 1 -93.9 0 143.72 143.72 0 0 1 -23-5.86 61.16 61.16 0 0 1 -10.88-5 24 24 0 0 1 -4.83-3.79 10.72 10.72 0 0 1 -1.81-2.6 6.26 6.26 0 0 1 -.66-3.15.5.5 0 0 1 1-.05v.05a6.8 6.8 0 0 0 2.83 4.28 22.21 22.21 0 0 0 4.8 2.74 62.6 62.6 0 0 0 10.79 3.47c3.69.91 7.45 1.65 11.23 2.24s7.57 1.16 11.39 1.57a423.57 423.57 0 0 0 46 2.36 423.7 423.7 0 0 0 46.05-2.36c3.81-.41 7.61-1 11.39-1.57s7.53-1.33 11.23-2.24a62.6 62.6 0 0 0 10.79-3.47 21.91 21.91 0 0 0 4.79-2.74 6.77 6.77 0 0 0 2.84-4.28v-.05a.5.5 0 0 1 .56-.43.52.52 0 0 1 .57.48z" fill="#fff" opacity=".5"/><path d="m72.07 268.33h5.5v147.17h-5.5z" fill="#00abab"/><path d="m72 413.44h5.6a1.47 1.47 0 0 1 1.47 1.47v.58a0 0 0 0 1 0 0h-8.5a0 0 0 0 1 0 0v-.58a1.47 1.47 0 0 1 1.43-1.47z" fill="#00abab"/><path d="m71.66 299.53h6.33v3.29h-6.33z" fill="#00abab"/><path d="m72.07 302.82h5.5v.76h-5.5z" opacity=".3"/><circle cx="74.82" cy="266.39" fill="#00abab" r="4.6"/><path d="m422.43 268.33h5.5v147.17h-5.5z" fill="#00abab"/><path d="m422.4 413.44h5.6a1.47 1.47 0 0 1 1.47 1.47v.58a0 0 0 0 1 0 0h-8.5a0 0 0 0 1 0 0v-.58a1.47 1.47 0 0 1 1.43-1.47z" fill="#00abab"/><path d="m422.01 299.53h6.33v3.29h-6.33z" fill="#00abab"/><path d="m422.43 302.82h5.5v.76h-5.5z" opacity=".3"/><circle cx="425.18" cy="266.39" fill="#00abab" r="4.6"/><path d="m247.25 268.33h5.5v147.17h-5.5z" fill="#00abab"/><path d="m247.22 413.44h5.56a1.47 1.47 0 0 1 1.47 1.47v.58a0 0 0 0 1 0 0h-8.5a0 0 0 0 1 0 0v-.58a1.47 1.47 0 0 1 1.47-1.47z" fill="#00abab"/><path d="m246.83 299.53h6.33v3.29h-6.33z" fill="#00abab"/><path d="m247.25 302.82h5.5v.76h-5.5z" opacity=".3"/><circle cx="250" cy="266.39" fill="#00abab" r="4.6"/></svg>