<svg xmlns="http://www.w3.org/2000/svg" xmlns:xlink="http://www.w3.org/1999/xlink" viewBox="0 0 90.11 84.8"><defs><style>.cls-1,.cls-8{fill:none;}.cls-16,.cls-2{fill:#263238;}.cls-3{clip-path:url(#clip-path);}.cls-11,.cls-12,.cls-17,.cls-4,.cls-6{fill:#fff;}.cls-4,.cls-7{opacity:0.2;}.cls-11,.cls-12,.cls-16,.cls-17,.cls-18,.cls-4,.cls-7{isolation:isolate;}.cls-5{fill:#0aa;}.cls-8{stroke:#263238;stroke-linecap:round;stroke-linejoin:round;stroke-width:0.14px;}.cls-9{fill:#f4f4f4;}.cls-10{fill:#f7c0bc;}.cls-11{opacity:0.7;}.cls-12,.cls-18{opacity:0.3;}.cls-13{fill:#ed837e;}.cls-14{fill:#f7b375;}.cls-15{fill:#ec883d;}.cls-16{opacity:0.8;}.cls-17{opacity:0.5;}.cls-19{fill:#b55b52;}.cls-20{fill:#a02725;}</style><clipPath id="clip-path"><path class="cls-1" d="M82.45,29.09c-.29-.81-1-1.15-1.63-.76a1.38,1.38,0,0,0-.44.49,1.47,1.47,0,0,0-2.29-.76,2.15,2.15,0,0,0-.59.81h0a1.32,1.32,0,0,0-.62.15,2.41,2.41,0,0,0-1.92-1.83c-.44-1.2-1.52-1.69-2.42-1.11a2,2,0,0,0-.66.72c-.7-1.56-2.22-2.07-3.39-1.13a3.14,3.14,0,0,0-.88,1.19h-.07A2.76,2.76,0,0,0,65,29.11l-.1,0c-.3-.81-1-1.14-1.64-.75a1.3,1.3,0,0,0-.44.49,1.46,1.46,0,0,0-2.29-.76,2.07,2.07,0,0,0-.59.81h0c-1,0-1.76,1.05-1.76,2.35s.79,2.34,1.77,2.33a1.57,1.57,0,0,0,1.28-.74,1,1,0,0,0,1.56.27,1,1,0,0,0,1.73.1l.06-.08a1.24,1.24,0,0,0,1.08-.29,2.19,2.19,0,0,0,3.7,0l.05-.07a1.51,1.51,0,0,0,2.32.4,1.52,1.52,0,0,0,2.56.14.47.47,0,0,0,.09-.12,1.85,1.85,0,0,0,1.69-.5,1.5,1.5,0,0,0,2.47.43l.21-.26a1,1,0,0,0,1.56.27,1,1,0,0,0,1.72.1l.07-.08c.82.19,1.61-.55,1.76-1.65a2,2,0,0,0-1.24-2.34l-.16,0Z"/></clipPath></defs><g id="Layer_2" data-name="Layer 2"><g id="Layer_1-2" data-name="Layer 1"><g id="freepik--Clouds--inject-512"><path class="cls-2" d="M82.45,29.09c-.29-.81-1-1.15-1.63-.76a1.38,1.38,0,0,0-.44.49,1.47,1.47,0,0,0-2.29-.76,2.15,2.15,0,0,0-.59.81h0a1.32,1.32,0,0,0-.62.15,2.41,2.41,0,0,0-1.92-1.83c-.44-1.2-1.52-1.69-2.42-1.11a2,2,0,0,0-.66.72c-.7-1.56-2.22-2.07-3.39-1.13a3.14,3.14,0,0,0-.88,1.19h-.07A2.76,2.76,0,0,0,65,29.11l-.1,0c-.3-.81-1-1.14-1.64-.75a1.3,1.3,0,0,0-.44.49,1.46,1.46,0,0,0-2.29-.76,2.07,2.07,0,0,0-.59.81h0c-1,0-1.76,1.05-1.76,2.35s.79,2.34,1.77,2.33a1.57,1.57,0,0,0,1.28-.74,1,1,0,0,0,1.56.27,1,1,0,0,0,1.73.1l.06-.08a1.24,1.24,0,0,0,1.08-.29,2.19,2.19,0,0,0,3.7,0l.05-.07a1.51,1.51,0,0,0,2.32.4,1.52,1.52,0,0,0,2.56.14.47.47,0,0,0,.09-.12,1.85,1.85,0,0,0,1.69-.5,1.5,1.5,0,0,0,2.47.43l.21-.26a1,1,0,0,0,1.56.27,1,1,0,0,0,1.72.1l.07-.08c.82.19,1.61-.55,1.76-1.65a2,2,0,0,0-1.24-2.34l-.16,0Z"/><g class="cls-3"><path class="cls-4" d="M82.45,29.09c-.29-.81-1-1.15-1.63-.76a1.38,1.38,0,0,0-.44.49,1.47,1.47,0,0,0-2.29-.76,2.15,2.15,0,0,0-.59.81h0a1.32,1.32,0,0,0-.62.15,2.41,2.41,0,0,0-1.92-1.83c-.44-1.2-1.52-1.69-2.42-1.11a2,2,0,0,0-.66.72c-.7-1.56-2.22-2.07-3.39-1.13a3.14,3.14,0,0,0-.88,1.19h-.07A2.76,2.76,0,0,0,65,29.11l-.1,0c-.3-.81-1-1.14-1.64-.75a1.3,1.3,0,0,0-.44.49,1.46,1.46,0,0,0-2.29-.76,2.07,2.07,0,0,0-.59.81h0c-1,0-1.76,1.05-1.76,2.35s.79,2.34,1.77,2.33a1.57,1.57,0,0,0,1.28-.74,1,1,0,0,0,1.56.27,1,1,0,0,0,1.73.1l.06-.08a1.24,1.24,0,0,0,1.08-.29,2.19,2.19,0,0,0,3.7,0l.05-.07a1.51,1.51,0,0,0,2.32.4,1.52,1.52,0,0,0,2.56.14.47.47,0,0,0,.09-.12,1.85,1.85,0,0,0,1.69-.5,1.5,1.5,0,0,0,2.47.43l.21-.26a1,1,0,0,0,1.56.27,1,1,0,0,0,1.72.1l.07-.08c.82.19,1.61-.55,1.76-1.65a2,2,0,0,0-1.24-2.34l-.16,0Z"/></g><polygon class="cls-5" points="64.37 31.1 63.84 32.98 64.61 32.98 63.66 36.11 65.72 32.82 64.9 32.35 65.84 30.71 64.37 31.1"/><path class="cls-6" d="M89.84,43c-.35-.19-.51,0-.64-.19s.35-.58-.61-1c0,0-.07-.89-1.39-.93s-1,.9-1.32,1.13-.44-.13-.8.09-.2.68-.48.74-.68-.29-1-.06-.36.42-.52.42-.48-.13-.67,0-.42.29-.42.29h8.13A.42.42,0,0,0,89.84,43Z"/><path class="cls-7" d="M87.2,40.87c-1.32,0-1,.9-1.32,1.13s-.44-.13-.8.09-.2.68-.48.74-.68-.29-1-.06-.36.42-.52.42-.48-.13-.67,0-.42.29-.42.29h8.13a.42.42,0,0,0-.25-.49c-.35-.19-.51,0-.64-.19"/><path class="cls-6" d="M58.79,41.83c-.38-.21-.56,0-.7-.21s.38-.62-.65-1.07c0,0-.07-1-1.49-1s-1,1-1.41,1.2-.49-.13-.87.11-.2.72-.51.79-.73-.31-1.11-.07-.38.45-.55.45-.52-.14-.73,0l-.45.31h8.74A.43.43,0,0,0,58.79,41.83Z"/><path class="cls-7" d="M52.05,41.58c-.38.25-.38.45-.55.45s-.52-.14-.73,0l-.45.31h8.74a.43.43,0,0,0-.27-.51c-.38-.21-.56,0-.7-.21s.38-.62-.65-1.07c0,0-.07-1-1.49-1s-1,1-1.41,1.2-.49-.13-.87.11"/><path class="cls-6" d="M66.64,37.51h8.14l-.42-.29c-.19-.13-.52,0-.68,0s-.16-.19-.51-.42-.74.13-1,.07-.13-.52-.48-.74-.45.13-.81-.1,0-1.15-1.32-1.12-1.38.93-1.38.93c-1,.42-.48.83-.61,1s-.29,0-.65.19A.41.41,0,0,0,66.64,37.51Z"/><path class="cls-7" d="M66.89,37a.41.41,0,0,0-.25.48h8.14l-.42-.29c-.19-.13-.52,0-.68,0s-.16-.19-.51-.42-.74.13-1,.07-.13-.52-.48-.74-.45.13-.81-.1,0-1.15-1.32-1.12-1.38.93-1.38.93"/><g id="freepik--Rain--inject-256--inject-512"><line class="cls-8" x1="60.95" y1="32.14" x2="60.56" y2="34.86"/><line class="cls-8" x1="65.2" y1="33.92" x2="64.81" y2="36.65"/><line class="cls-8" x1="60" y1="38.73" x2="59.75" y2="40.48"/><line class="cls-8" x1="62.24" y1="36.46" x2="61.99" y2="38.21"/><line class="cls-8" x1="59.38" y1="43.02" x2="58.99" y2="45.75"/><line class="cls-8" x1="78.02" y1="34.97" x2="77.63" y2="37.69"/><line class="cls-8" x1="61.03" y1="56.09" x2="60.81" y2="57.6"/><line class="cls-8" x1="76.92" y1="32.65" x2="76.7" y2="34.16"/><line class="cls-8" x1="61.79" y1="42.57" x2="61.58" y2="44.08"/><line class="cls-8" x1="70.8" y1="50.74" x2="70.58" y2="52.25"/><line class="cls-8" x1="66.19" y1="57.01" x2="65.97" y2="58.53"/><line class="cls-8" x1="77.2" y1="43.79" x2="76.98" y2="45.3"/><line class="cls-8" x1="79.25" y1="38.85" x2="79.03" y2="40.36"/><line class="cls-8" x1="57.72" y1="36.75" x2="57.5" y2="38.26"/><line class="cls-8" x1="74.28" y1="47.42" x2="74.06" y2="48.93"/><line class="cls-8" x1="77.81" y1="48.4" x2="77.59" y2="49.91"/><line class="cls-8" x1="75.33" y1="55.76" x2="75.11" y2="57.27"/><line class="cls-8" x1="71.23" y1="33.34" x2="71.02" y2="34.85"/><line class="cls-8" x1="81.9" y1="35.04" x2="81.68" y2="36.55"/><line class="cls-8" x1="80.98" y1="41.39" x2="80.77" y2="42.9"/><line class="cls-8" x1="79.31" y1="44.93" x2="79.1" y2="46.44"/><line class="cls-8" x1="74.42" y1="34.7" x2="74.2" y2="36.21"/><line class="cls-8" x1="71.02" y1="38.24" x2="70.8" y2="39.75"/><line class="cls-8" x1="67.42" y1="40.71" x2="67.21" y2="42.22"/><line class="cls-8" x1="75.17" y1="37.84" x2="74.95" y2="39.36"/><line class="cls-8" x1="75.04" y1="41.81" x2="74.82" y2="43.33"/><line class="cls-8" x1="63.89" y1="40.46" x2="63.67" y2="41.98"/><line class="cls-8" x1="66.3" y1="37.84" x2="66.08" y2="39.36"/><line class="cls-8" x1="62.91" y1="46.81" x2="62.69" y2="48.32"/><line class="cls-8" x1="66.72" y1="49.09" x2="66.5" y2="50.6"/><line class="cls-8" x1="79.86" y1="50.43" x2="79.41" y2="53.57"/><line class="cls-8" x1="83.61" y1="37.83" x2="83.15" y2="40.97"/><line class="cls-8" x1="65.05" y1="50.27" x2="64.6" y2="53.42"/><line class="cls-8" x1="60.52" y1="51.83" x2="60.3" y2="53.35"/></g></g><g id="freepik--Shadow--inject-1"><ellipse id="freepik--path--inject-1" class="cls-9" cx="70.21" cy="72.98" rx="17.39" ry="1.02"/></g><g id="freepik--character-1--inject-1"><path class="cls-2" d="M58.72,46.89c-.18.26-.12.45,0,1,.06.22.16.43.46.11s.58-.92.2-1A2,2,0,0,0,58.72,46.89Z"/><polygon class="cls-10" points="58.71 72.14 58.05 72.14 58.02 70.59 58.69 70.59 58.71 72.14"/><polygon class="cls-10" points="62.71 72.14 62.05 72.14 61.75 70.59 62.42 70.59 62.71 72.14"/><path class="cls-2" d="M62,72.06h.75a.07.07,0,0,1,.06,0l.11.6a.09.09,0,0,1-.08.11h0l-.71,0-.9,0c-.28,0-.31-.28-.2-.31a1.7,1.7,0,0,0,.89-.41A.13.13,0,0,1,62,72.06Z"/><path class="cls-2" d="M58.05,72.06h.73a.07.07,0,0,1,.06,0l.11.6a.09.09,0,0,1-.08.11h0l-1,0-1.17,0c-.27,0-.34-.28-.23-.31a4,4,0,0,0,1.41-.4A.33.33,0,0,1,58.05,72.06Z"/><path class="cls-10" d="M58.23,51.06l-.91-.29a10.53,10.53,0,0,1-1.26,2.31,8.33,8.33,0,0,0-1.45,1.12,1,1,0,0,0,.11.49,5.77,5.77,0,0,0,2-.91A9.64,9.64,0,0,0,58.23,51.06Z"/><path class="cls-5" d="M58.44,50.56c.26.59-.77,2.44-.77,2.44l-1.36-.63A8.87,8.87,0,0,1,57,50.74C57.41,50,58.16,49.92,58.44,50.56Z"/><path class="cls-11" d="M58.44,50.56c.26.59-.77,2.44-.77,2.44l-1.36-.63A8.87,8.87,0,0,1,57,50.74C57.41,50,58.16,49.92,58.44,50.56Z"/><path class="cls-7" d="M57.3,51.58A7,7,0,0,0,57,52.69l.68.31a7.92,7.92,0,0,0,.81-2.06C58.08,50.67,57.55,50.92,57.3,51.58Z"/><path class="cls-10" d="M54.7,54.14l-.79.12.21.84a3.32,3.32,0,0,0,.76-.47Z"/><polygon class="cls-10" points="53.22 54.62 53.51 55.08 54.12 55.1 53.91 54.27 53.22 54.62"/><polygon class="cls-7" points="58.02 70.6 58.03 71.39 58.7 71.39 58.69 70.6 58.02 70.6"/><polygon class="cls-7" points="62.42 70.6 61.75 70.6 61.9 71.39 62.57 71.39 62.42 70.6"/><path class="cls-5" d="M57.57,50.18a12.62,12.62,0,0,0-.18,6H61a26.76,26.76,0,0,1,.35-6.07A7.9,7.9,0,0,0,60.11,50a12.68,12.68,0,0,0-1.51,0A8.87,8.87,0,0,0,57.57,50.18Z"/><path class="cls-11" d="M57.57,50.18a12.62,12.62,0,0,0-.18,6H61a26.76,26.76,0,0,1,.35-6.07A7.9,7.9,0,0,0,60.11,50a12.68,12.68,0,0,0-1.51,0A8.87,8.87,0,0,0,57.57,50.18Z"/><path class="cls-7" d="M60.51,50.79a6.88,6.88,0,0,0,.42,2.61,16.57,16.57,0,0,1,.31-3h0C61,50.38,60.58,50.39,60.51,50.79Z"/><path class="cls-10" d="M60,48.58A1.58,1.58,0,0,0,60.11,50s-.2.49-1.11.49-.4-.49-.4-.49c.54-.13.54-.8.45-1.18Z"/><path class="cls-2" d="M59,50.46l-.2.21a.07.07,0,0,0,0,.06l.06.19a.07.07,0,0,0,0,0h.21a.05.05,0,0,0,0,0l.13-.18a0,0,0,0,0,0-.07L59,50.45s0,0-.07,0Z"/><path class="cls-6" d="M59,50.41a1.1,1.1,0,0,1,.16.55s1.15-.4,1.11-1c0,0-.16-.1-.26-.18S60,50.17,59,50.41Z"/><path class="cls-6" d="M59,50.41a1.43,1.43,0,0,0-.23.52.87.87,0,0,1-.34-.93,1.61,1.61,0,0,1,.29-.09A.43.43,0,0,0,59,50.41Z"/><path class="cls-2" d="M58.91,50.85a19.15,19.15,0,0,0-.39,2.82,3.59,3.59,0,0,0,.24,1.17,3.71,3.71,0,0,0,.2-1.2c0-.74,0-2.36.07-2.78Z"/><path class="cls-7" d="M59.05,48.82a1.45,1.45,0,0,1,0,.8,1,1,0,0,0,.25-.07,1.3,1.3,0,0,0,.63-.71c0-.09,0-.17.05-.26Z"/><path class="cls-10" d="M58.28,48.29a.58.58,0,0,0,.31.36c.2.09.34-.08.32-.29s-.15-.46-.36-.46a.29.29,0,0,0-.29.29A.18.18,0,0,0,58.28,48.29Z"/><path class="cls-7" d="M58.28,48.29a.58.58,0,0,0,.31.36c.2.09.34-.08.32-.29s-.15-.46-.36-.46a.29.29,0,0,0-.29.29A.18.18,0,0,0,58.28,48.29Z"/><path class="cls-10" d="M60.36,48c-.19.64-.27,1-.68,1.28a.85.85,0,0,1-1.32-.75c0-.61.32-1.55,1-1.68a.89.89,0,0,1,1,.71A.82.82,0,0,1,60.36,48Z"/><path class="cls-2" d="M60,47.2c-.18.26-.12.45,0,1,.06.22.16.43.45.11s.59-.92.21-1A2,2,0,0,0,60,47.2Z"/><path class="cls-2" d="M60.06,47.39c-.41,0-1.43-.13-1.36-.66s.77-.38.77-.38-.34.18.38.32,1.09.57.76.74A.5.5,0,0,1,60.06,47.39Z"/><path class="cls-10" d="M60.48,48.77A.68.68,0,0,1,60,49c-.22,0-.27-.22-.15-.39s.34-.36.54-.27A.28.28,0,0,1,60.48,48.77Z"/><path class="cls-2" d="M58.3,48.52c0,.33,0,.78.27.87a2.08,2.08,0,0,0,1.14-.06c.34-.18.49-.94.64-1.08s-.14-.22-.14-.22-.19.49-.52.51S58.32,48.1,58.3,48.52Z"/><path class="cls-5" d="M59.73,56.22s-.07.84-.16,2c-.1,1.29-.23,3-.31,4.24h0c0,.24,0,.47,0,.68-.1,2.08-.31,8.12-.31,8.12H57.79s-.57-6.17-.59-8.28.19-6.74.19-6.74Z"/><path class="cls-2" d="M59,70.89s0,.37,0,.37h-1.3l0-.41Z"/><path class="cls-7" d="M59.57,58.19c-.1,1.29-.23,3-.31,4.24h0a22.22,22.22,0,0,1-.34-5.18Z"/><path class="cls-5" d="M58.65,56.22s.63,4.82,1,6.73c.41,2.09,2,8.29,2,8.29h1.22s-1-6-1.17-8.1c-.23-2.24-.7-6.91-.7-6.91Z"/><path class="cls-2" d="M62.83,70.92l.05.34H61.53l-.11-.39Z"/><path class="cls-12" d="M62.34,70.52h0c0-.07-.87-5.44-1.06-7.3-.21-2-.63-6.49-.63-6.53h0s0,0,0,0h0s.43,4.51.63,6.53c.19,1.86,1.06,7.23,1.07,7.29a0,0,0,0,1,0,0Z"/><path class="cls-2" d="M59.35,48s-.05.09-.09.08,0-.06,0-.11.05-.09.09-.08S59.36,47.91,59.35,48Z"/><path class="cls-2" d="M58.76,47.83c0,.05,0,.09-.09.08s-.05,0,0-.11,0-.09.09-.08S58.77,47.78,58.76,47.83Z"/><path class="cls-13" d="M58.94,47.9a1.67,1.67,0,0,1-.36.39.32.32,0,0,0,.24.11Z"/><path class="cls-2" d="M59.57,47.81l0,0a.25.25,0,0,0-.17-.15,0,0,0,0,1,0,0h0s0,0,0,0a.31.31,0,0,1,.22.18,0,0,0,0,1,0,0Z"/><path class="cls-2" d="M58.54,47.56h0a0,0,0,0,1,0,0,.32.32,0,0,1,.27-.11,0,0,0,0,1,0,0h0s0,0,0,0h0a.27.27,0,0,0-.21.09S58.56,47.57,58.54,47.56Z"/><path class="cls-10" d="M60.72,51.25l.93-.3a10.12,10.12,0,0,0,1.16,2.3,13.21,13.21,0,0,0,1.85.73,1,1,0,0,1,.12.48A4.51,4.51,0,0,1,62.1,54,8.62,8.62,0,0,1,60.72,51.25Z"/><path class="cls-5" d="M61.3,50.15c.63.09,1.3,2.28,1.3,2.28l-1.35.74a15.68,15.68,0,0,1-.82-1.81C60.15,50.56,60.63,50.05,61.3,50.15Z"/><path class="cls-11" d="M61.3,50.15c.63.09,1.3,2.28,1.3,2.28l-1.35.74a15.68,15.68,0,0,1-.82-1.81C60.15,50.56,60.63,50.05,61.3,50.15Z"/><path class="cls-5" d="M61.78,72.18a.22.22,0,0,1-.13,0,.11.11,0,0,1,0-.08,0,0,0,0,1,0,0c.08,0,.29.09.31.11a0,0,0,0,1,0,0,0,0,0,0,1,0,0A.57.57,0,0,1,61.78,72.18ZM61.69,72h0a0,0,0,0,0,0,0,.09.09,0,0,0,0,.06.36.36,0,0,0,.23,0,.5.5,0,0,0-.23-.09Z"/><path class="cls-5" d="M62,72.15h0c-.07,0-.19-.18-.18-.25a.05.05,0,0,1,.06,0s0,0,.06,0,.09.25.09.26a0,0,0,0,1,0,0Zm-.13-.26h0s0,0,0,0,.07.15.14.21a.38.38,0,0,0-.07-.21.05.05,0,0,0,0,0Z"/><path class="cls-5" d="M57.77,72.18a.32.32,0,0,1-.16,0,.11.11,0,0,1,0-.08l0,0c.08,0,.35.09.38.1s0,0,0,0,0,0,0,0A.76.76,0,0,1,57.77,72.18ZM57.66,72h0a0,0,0,0,0,0,0,0,0,0,0,0,0,0s.15,0,.3,0A.86.86,0,0,0,57.66,72Z"/><path class="cls-5" d="M58,72.15h0c-.08,0-.23-.18-.22-.25s0,0,.06-.05a.12.12,0,0,1,.09,0,.47.47,0,0,1,.1.26,0,0,0,0,1,0,0Zm-.16-.26h0s.1.16.18.21a.32.32,0,0,0-.08-.21.08.08,0,0,0-.06,0Z"/><path class="cls-10" d="M64.72,54.47l.63,0L65,53.81s-.56,0-.65.42Z"/><polygon class="cls-10" points="65.87 54.16 65.53 53.55 65.02 53.81 65.35 54.5 65.87 54.16"/></g><g id="freepik--character-2--inject-1"><path class="cls-2" d="M71.68,49c-.06-.46-1.3-.82-1.88-.29-.78.72-.66,2.95-.66,4.16a7.86,7.86,0,0,1,3.22,0C72.43,52.3,72.41,49.17,71.68,49Z"/><path class="cls-14" d="M69.29,53.36c0,.21,0,.41-.06.61s-.06.39-.1.59a9.18,9.18,0,0,1-.32,1.17c0,.09-.08.19-.11.28s-.08.19-.13.29a4.93,4.93,0,0,1-.36.53,5,5,0,0,1-.89.83l-.24-.27a10,10,0,0,0,.65-.91A3.45,3.45,0,0,0,68,56c0-.07.07-.16.1-.25l.09-.26a9.45,9.45,0,0,0,.26-1.08c0-.18,0-.37.08-.56a5.14,5.14,0,0,0,.06-.55Z"/><path class="cls-14" d="M68.84,52.49c-.26.07-.4,1.74-.4,1.74l.67.4a6.35,6.35,0,0,0,.35-1.76A.48.48,0,0,0,68.84,52.49Z"/><path class="cls-14" d="M67,57.4l-.57.43.71.16s.3-.34.2-.62Z"/><polygon class="cls-14" points="66.3 58.41 66.89 58.51 67.16 57.99 66.45 57.83 66.3 58.41"/><polygon class="cls-14" points="70.18 72.09 69.61 72.09 69.25 69.47 70.23 69.47 70.18 72.09"/><polygon class="cls-7" points="70.21 70.83 69.44 70.83 69.25 69.47 70.23 69.47 70.21 70.83"/><polygon class="cls-14" points="74.64 71.14 74.08 71.29 72.96 68.9 73.91 68.63 74.64 71.14"/><polygon class="cls-7" points="74.3 69.96 73.54 70.13 72.96 68.9 73.91 68.63 74.3 69.96"/><path class="cls-2" d="M74,71.19l.74-.31a0,0,0,0,1,.07,0l.33.55a.11.11,0,0,1,0,.15h0c-.26.1-.39.14-.72.28s-.48.23-.76.35-.4-.15-.3-.23a1.38,1.38,0,0,0,.6-.73A.2.2,0,0,1,74,71.19Z"/><path class="cls-2" d="M69.53,72h.8a.06.06,0,0,1,.06,0l.09.63a.12.12,0,0,1-.1.13h0l-.76,0-1,0c-.3,0-.31-.3-.19-.32a1.93,1.93,0,0,0,1-.45A.17.17,0,0,1,69.53,72Z"/><path class="cls-5" d="M68.79,52.49s-.34.12.34,4.31H72a13,13,0,0,1,.52-4.33,8.58,8.58,0,0,0-1.24-.16,9.54,9.54,0,0,0-1.31,0C69.43,52.36,68.79,52.49,68.79,52.49Z"/><path class="cls-6" d="M70.93,54h0a1.94,1.94,0,0,0-.64-.56s0,0,0,0h0a2,2,0,0,1,.64.55,2.32,2.32,0,0,0,.73-1.57s0,0,0,0h0a0,0,0,0,1,0,0h0A2.35,2.35,0,0,1,70.94,54Z"/><path class="cls-6" d="M69.42,53.85h0a.34.34,0,0,1-.1-.27,1.88,1.88,0,0,1,.35-1.19h0s0,0,0,0h0a1.93,1.93,0,0,0-.34,1.16.44.44,0,0,0,.08.25,2.36,2.36,0,0,1,.58-.45h0a2.49,2.49,0,0,0-.58.46Z"/><path class="cls-14" d="M71.18,50.83c-.08.42-.16,1.2.13,1.48,0,0,.17,1-1.18,1-1.12,0-.13-1-.13-1,.47-.11.46-.46.38-.79Z"/><path class="cls-7" d="M70.85,51.11l-.47.41a1.85,1.85,0,0,1,0,.23.57.57,0,0,0,.45-.41A.6.6,0,0,0,70.85,51.11Z"/><path class="cls-14" d="M71.63,50.05c-.16.69-.22,1-.64,1.28a.9.9,0,0,1-1.47-.64c0-.65.24-1.66,1-1.82a1,1,0,0,1,1.15.74A.94.94,0,0,1,71.63,50.05Z"/><path class="cls-2" d="M71.09,49.25c.08.67.11,1.35.59,1.18s0-1.18,0-1.18Z"/><path class="cls-2" d="M69.54,49.46a3.13,3.13,0,0,1,2.09.09c-.09-.33-.14-.59-.55-.72S69.75,48.85,69.54,49.46Z"/><path class="cls-2" d="M69.13,56.8s-.56,5.5-.51,7.68.56,5.91.56,5.91l1.16,0s0-3.47,0-5.7c.09-2.42.87-7.85.87-7.85Z"/><polygon class="cls-5" points="70.47 70.56 69.06 70.56 68.96 70.19 70.53 70.15 70.47 70.56"/><path class="cls-7" d="M70.38,58.17c-.71,1.44-.14,4,.11,5,.13-1.46.35-3.24.52-4.55C70.9,57.89,70.71,57.51,70.38,58.17Z"/><path class="cls-2" d="M69.89,56.8s.66,5.72,1.16,7.56a39.74,39.74,0,0,0,2.17,5.42l1.09-.31s-.92-3.82-1.37-5c-1-2.45-.14-6.09-.91-7.7Z"/><polygon class="cls-5" points="74.51 69.61 73.22 69.97 72.98 69.64 74.42 69.16 74.51 69.61"/><path class="cls-2" d="M70.47,50.06c0,.06,0,.1-.09.09s-.06,0,0-.11,0-.1.09-.09A.09.09,0,0,1,70.47,50.06Z"/><path class="cls-2" d="M69.83,50c0,.06,0,.1-.09.09a.09.09,0,0,1,0-.11c0-.06,0-.1.08-.09S69.84,49.89,69.83,50Z"/><path class="cls-2" d="M69.79,49.84l-.13-.06S69.72,49.9,69.79,49.84Z"/><path class="cls-15" d="M70,50.07a2.16,2.16,0,0,1-.27.33.24.24,0,0,0,.2.07Z"/><path class="cls-14" d="M71.66,50.57a.48.48,0,0,1-.28.28c-.17.07-.27-.08-.24-.25s.14-.37.32-.37a.24.24,0,0,1,.22.25A.15.15,0,0,1,71.66,50.57Z"/><path class="cls-2" d="M70.72,49.69l0,0a.32.32,0,0,0-.23-.09s0,0,0,0,0,0,0,0h0a.3.3,0,0,1,.29.11,0,0,0,0,1,0,0Z"/><path class="cls-2" d="M69.67,49.6h0a0,0,0,0,1,0-.05.37.37,0,0,1,.29-.11s0,0,0,0h0s0,0,0,0h0a.28.28,0,0,0-.23.09Z"/><path class="cls-14" d="M72.86,53.24a10.48,10.48,0,0,1,.42,1.23,6.37,6.37,0,0,1,.26,1.3.91.91,0,0,1,0,.17v.22a1.05,1.05,0,0,1-.18.42,2.9,2.9,0,0,1-.48.51,7.09,7.09,0,0,1-1.06.76l-.21-.29c.3-.28.61-.57.88-.87a3.79,3.79,0,0,0,.34-.45.39.39,0,0,0,.06-.15h0V56c0-.05,0-.1,0-.14a9.63,9.63,0,0,0-.28-1.18c-.13-.39-.26-.78-.41-1.16Z"/><path class="cls-14" d="M72.54,52.47c.29.12.64,1.68.64,1.68l-.6.49A6.9,6.9,0,0,1,72,53,.42.42,0,0,1,72.54,52.47Z"/><path class="cls-5" d="M73.63,71.42a.13.13,0,0,1-.06-.07.07.07,0,0,1,0-.06c.06-.07.31,0,.34,0s0,0,0,0h0c-.08.06-.22.15-.3.12Zm.26-.12c-.11,0-.25,0-.28,0v0a.1.1,0,0,0,0,0A.41.41,0,0,0,73.89,71.3Z"/><path class="cls-5" d="M73.81,71.27c-.07,0-.15-.09-.16-.14a.07.07,0,0,1,0-.07h.07c.1,0,.18.23.18.23v0h0Zm0-.18H73.7s0,0,0,0,.13.12.21.15a.49.49,0,0,0-.14-.18Z"/><path class="cls-5" d="M69.27,72.13a.28.28,0,0,1-.18,0,.11.11,0,0,1,0-.08.09.09,0,0,1,0-.05c.09,0,.37.1.41.12s0,0,0,0,0,0,0,0ZM69.14,72h0s0,0,0,0a0,0,0,0,0,0,0,.43.43,0,0,0,.32,0,1.18,1.18,0,0,0-.3-.1Z"/><path class="cls-5" d="M69.48,72.11h0c-.09,0-.26-.2-.24-.27s0,0,.06,0a.16.16,0,0,1,.09,0,.48.48,0,0,1,.11.27l0,0Zm-.17-.29h0s0,0,0,0,.11.17.19.22a.31.31,0,0,0-.09-.22A.08.08,0,0,0,69.31,71.82Z"/><path class="cls-5" d="M72.08,56.63l.07.26s0,0-.05,0h-3s-.05,0-.05,0l0-.26s0,0,0,0H72Z"/><path class="cls-16" d="M72.08,56.63l.07.26s0,0-.05,0h-3s-.05,0-.05,0l0-.26s0,0,0,0H72Z"/><path class="cls-5" d="M71.68,57h.08s0,0,0,0l0-.33s0,0,0,0h-.08s0,0,0,0l0,.33S71.67,57,71.68,57Z"/><path class="cls-5" d="M69.34,57h.08s0,0,0,0l0-.33,0,0H69.3s0,0,0,0l0,.33S69.32,57,69.34,57Z"/><path class="cls-5" d="M70.51,57h.08s0,0,0,0l0-.33,0,0h-.08s0,0,0,0l0,.33S70.49,57,70.51,57Z"/><path class="cls-14" d="M71.7,57.49l-.77.07.52.51s.44-.13.5-.42Z"/><polygon class="cls-14" points="70.49 57.97 70.95 58.37 71.56 58.03 70.93 57.56 70.49 57.97"/><path class="cls-2" d="M70.43,50l-.13-.07S70.36,50,70.43,50Z"/></g><g id="freepik--character-4--inject-1"><polygon class="cls-10" points="79.58 71.92 78.91 71.83 78.95 70.25 79.62 70.35 79.58 71.92"/><polygon class="cls-10" points="84.29 72.13 83.61 72.13 83.44 70.56 84.12 70.56 84.29 72.13"/><path class="cls-2" d="M83.56,72.05h.82a.06.06,0,0,1,.06,0l.14.6a.12.12,0,0,1-.08.12h0l-.8,0-1.11,0c-.28,0-.32-.28-.2-.31a2.65,2.65,0,0,0,1.08-.42A.21.21,0,0,1,83.56,72.05Z"/><path class="cls-2" d="M78.92,71.75l.73.1a.09.09,0,0,1,.06.06l0,.61a.09.09,0,0,1-.09.11h0c-.26,0-.64-.12-1-.16s-.73-.09-1.18-.15c-.28,0-.32-.33-.2-.34a4.25,4.25,0,0,0,1.47-.2A.23.23,0,0,1,78.92,71.75Z"/><path class="cls-10" d="M81.07,51.41c0,.47-.09.92-.16,1.38,0,.23-.07.46-.11.69s0,.23-.07.35l0,.17,0,.09,0,.1a6,6,0,0,1-.26.71l-.33.62a13.24,13.24,0,0,1-.75,1.19l-.45-.26.5-1.25c.09-.21.16-.42.23-.63a4,4,0,0,0,.17-.59s0,0,0-.07v-.08l0-.17,0-.33.08-.67.14-1.35Z"/><path class="cls-5" d="M80.53,50.71c-.63.16-.92,2.39-.92,2.39l1.55.23s.15-.6.39-1.42C81.69,51.4,81.31,50.51,80.53,50.71Z"/><path class="cls-10" d="M79,56.33l-.55.47.7.34a.7.7,0,0,0,.22-.55Z"/><polygon class="cls-10" points="78.12 57.23 78.74 57.47 79.13 57.14 78.42 56.8 78.12 57.23"/><polygon class="cls-7" points="78.95 70.25 78.93 71.06 79.6 71.16 79.62 70.35 78.95 70.25"/><polygon class="cls-7" points="84.12 70.56 83.44 70.56 83.53 71.37 84.21 71.37 84.12 70.56"/><path class="cls-5" d="M84.29,50.87a14.27,14.27,0,0,0-.39,2.23c-.05.53-.08,1-.1,1.48,0,1.07,0,1.88,0,2.15l-3.61-.18c-.11-5.31.33-5.83.33-5.83a8.51,8.51,0,0,1,.86-.13h.19a13.07,13.07,0,0,1,1.53.08l.29,0C83.86,50.76,84.29,50.87,84.29,50.87Z"/><path class="cls-2" d="M81.25,50.59c.08.4.93,3.18,2.61,4.12,0,0,0,0,0,0a2.26,2.26,0,0,1,0,.25,0,0,0,0,1,0,0h0c-.19,0-.93-.26-2-1.95a9.12,9.12,0,0,1-.93-2.43s0-.05,0-.06l.24-.06a0,0,0,0,1,.06,0Z"/><path class="cls-2" d="M81.41,52.1c.1.22-.38,1.18.23,2.15s1.14.18,1.75.53A32.51,32.51,0,0,1,81.41,52.1Z"/><path class="cls-6" d="M82.81,54.57h0a2.84,2.84,0,0,1-1.3-2.1s0,0,0,0h0a0,0,0,0,1,0,0h0a2.81,2.81,0,0,0,1.28,2.07s0,0,0,0Z"/><path class="cls-7" d="M83.4,51.86a2.79,2.79,0,0,0,.48,1.56c0-.11,0-.21,0-.32,0-.39.1-.8.17-1.21Z"/><path class="cls-10" d="M83,48.92c-.12.49-.27,1.39.06,1.74a1.53,1.53,0,0,1-1.21.41c-.42,0-.43-.33-.33-.49.56-.1.57-.51.49-.9Z"/><path class="cls-7" d="M82.62,49.23l-.58.45a2.4,2.4,0,0,1,0,.28.67.67,0,0,0,.54-.46A.82.82,0,0,0,82.62,49.23Z"/><path class="cls-10" d="M83,48c0,.67.1,1.06-.19,1.45a.89.89,0,0,1-1.54-.27c-.22-.58-.26-1.57.36-1.92a.92.92,0,0,1,1.25.34A.93.93,0,0,1,83,48Z"/><path class="cls-2" d="M82.39,47.58c0,.3.27.6.24.79a.5.5,0,0,1-.09.23l.44.1s1.24-1.32.26-1.58c-.46-.87-2.34-1.13-2.73-.36s.72,1,.72,1A1.64,1.64,0,0,1,82.39,47.58Z"/><path class="cls-10" d="M83.4,48.74a.65.65,0,0,1-.36.33c-.21.08-.33-.11-.29-.32s.2-.44.42-.43a.28.28,0,0,1,.26.31A.23.23,0,0,1,83.4,48.74Z"/><path class="cls-2" d="M78.7,70.87l1.13.16s.66-4.12,1-6.52c.09-.63.24-1.52.43-2.48.25-1.2.56-2.5.81-3.52s.48-1.84.48-1.84l-2.38-.12s-1.17,5.59-1.3,7.64S78.7,70.87,78.7,70.87Z"/><path class="cls-7" d="M81.26,62c.25-1.2.56-2.5.81-3.52L81.81,58C81.25,58.7,81.13,60.86,81.26,62Z"/><path class="cls-2" d="M81.45,56.62s.38,5.8.66,7.76c.31,2.14,1.11,6.83,1.11,6.83h1.24s-.11-4.42-.43-6.52a70.45,70.45,0,0,1-.25-8Z"/><polygon class="cls-5" points="83.07 71.24 84.53 71.24 84.53 70.81 82.9 70.78 83.07 71.24"/><polygon class="cls-5" points="78.63 70.89 79.91 71.07 80.03 70.62 78.57 70.41 78.63 70.89"/><path class="cls-2" d="M82,48.36s0,.1-.06.1-.07,0-.07-.09,0-.1,0-.1S82,48.3,82,48.36Z"/><path class="cls-2" d="M81.4,48.44c0,.05,0,.1-.05.1s-.07,0-.07-.09,0-.1,0-.1S81.4,48.38,81.4,48.44Z"/><path class="cls-13" d="M81.6,48.44a2.34,2.34,0,0,1-.19.5.31.31,0,0,0,.26,0Z"/><path class="cls-2" d="M82.18,48.14h0a.27.27,0,0,0-.22-.08s0,0,0,0h0a0,0,0,0,1,0,0h0a.3.3,0,0,1,.27.09s0,0,0,.05h0Z"/><path class="cls-2" d="M81.11,48.26h0s0,0,0,0a.34.34,0,0,1,.21-.21s0,0,0,0,0,0,0,0h0a.25.25,0,0,0-.16.17S81.13,48.26,81.11,48.26Z"/><path class="cls-5" d="M83.33,72.17a.22.22,0,0,1-.13,0,.11.11,0,0,1,0-.08.05.05,0,0,1,0,0c.07,0,.29.1.31.11v0s0,0,0,0A.57.57,0,0,1,83.33,72.17Zm-.1-.14h0s0,0,0,0a.14.14,0,0,0,0,.06.33.33,0,0,0,.24,0A.5.5,0,0,0,83.23,72Z"/><path class="cls-5" d="M83.51,72.15h0c-.07,0-.21-.19-.19-.26s0,0,0,0a.07.07,0,0,1,.07,0c.07.06.09.26.09.27a0,0,0,0,1,0,0Zm-.14-.27h0s0,0,0,0,.08.16.15.21a.49.49,0,0,0-.08-.21l0,0Z"/><path class="cls-5" d="M78.85,71.83h0a.58.58,0,0,1-.38-.07.11.11,0,0,1,0-.08s0,0,0,0,.34.14.36.16v0A0,0,0,0,1,78.85,71.83Zm-.35-.16h0s0,0,0,0a.06.06,0,0,0,0,0s.14.06.29.06A.76.76,0,0,0,78.5,71.67Z"/><path class="cls-5" d="M78.85,71.83h0c-.07,0-.21-.21-.19-.29s0,0,.07,0a.09.09,0,0,1,.08,0,.42.42,0,0,1,.07.27Zm-.16-.29h0s.08.17.16.23a.39.39,0,0,0-.06-.21.09.09,0,0,0-.06,0Z"/><path class="cls-10" d="M84.38,51.24a3,3,0,0,1,.23.3l.22.3q.19.3.39.63a7.72,7.72,0,0,1,.61,1.38v.06l0,.07a.69.69,0,0,1,0,.13,1.77,1.77,0,0,1,0,.23,2.69,2.69,0,0,1,0,.4,6.08,6.08,0,0,1-.16.74,10.57,10.57,0,0,1-.48,1.37l-.49-.15c.08-.46.16-.92.21-1.37,0-.23,0-.45.06-.67s0-.2,0-.3,0-.09,0-.12a.08.08,0,0,0,0-.05h0v0c-.08-.19-.17-.39-.27-.58s-.22-.39-.34-.58-.24-.38-.37-.57l-.2-.28-.19-.26Z"/><path class="cls-5" d="M84.29,50.87c.63.12,1.22,1.66,1.22,1.66l-1.31,1.1s-.44-.78-.81-1.53S83.52,50.73,84.29,50.87Z"/><path class="cls-10" d="M84.8,56.57l-.45.52.84.23s.28-.52,0-.7Z"/><polygon class="cls-10" points="84.33 57.65 85.03 57.82 85.19 57.33 84.36 57.09 84.33 57.65"/></g><g id="freepik--Barrier--inject-1"><path class="cls-5" d="M70.24,62.66a.71.71,0,0,1-.06.28,1.24,1.24,0,0,1-.17.23,2,2,0,0,1-.43.34,6.08,6.08,0,0,1-1,.45,13.67,13.67,0,0,1-2.07.53,25.5,25.5,0,0,1-8.42,0A13.09,13.09,0,0,1,56.05,64a5.7,5.7,0,0,1-1-.45,2.07,2.07,0,0,1-.44-.34,1.19,1.19,0,0,1-.16-.23.71.71,0,0,1-.06-.28,0,0,0,0,1,.09,0h0a.59.59,0,0,0,.26.38,2,2,0,0,0,.43.25,6.32,6.32,0,0,0,1,.31c.34.08.68.14,1,.2l1,.14a40.82,40.82,0,0,0,8.27,0l1-.14c.34,0,.67-.12,1-.2a6.1,6.1,0,0,0,1-.31,2.3,2.3,0,0,0,.43-.25.67.67,0,0,0,.26-.38h0a0,0,0,0,1,0,0A.1.1,0,0,1,70.24,62.66Z"/><path class="cls-17" d="M70.24,62.66a.71.71,0,0,1-.06.28,1.24,1.24,0,0,1-.17.23,2,2,0,0,1-.43.34,6.08,6.08,0,0,1-1,.45,13.67,13.67,0,0,1-2.07.53,25.5,25.5,0,0,1-8.42,0A13.09,13.09,0,0,1,56.05,64a5.7,5.7,0,0,1-1-.45,2.07,2.07,0,0,1-.44-.34,1.19,1.19,0,0,1-.16-.23.71.71,0,0,1-.06-.28,0,0,0,0,1,.09,0h0a.59.59,0,0,0,.26.38,2,2,0,0,0,.43.25,6.32,6.32,0,0,0,1,.31c.34.08.68.14,1,.2l1,.14a40.82,40.82,0,0,0,8.27,0l1-.14c.34,0,.67-.12,1-.2a6.1,6.1,0,0,0,1-.31,2.3,2.3,0,0,0,.43-.25.67.67,0,0,0,.26-.38h0a0,0,0,0,1,0,0A.1.1,0,0,1,70.24,62.66Z"/><path class="cls-5" d="M86,62.66a.48.48,0,0,1-.06.28.87.87,0,0,1-.16.23,2,2,0,0,1-.43.34,5.79,5.79,0,0,1-1,.45,13.25,13.25,0,0,1-2.06.53,25.86,25.86,0,0,1-8.42,0A13.67,13.67,0,0,1,71.81,64a5.7,5.7,0,0,1-1-.45,1.79,1.79,0,0,1-.43-.34,1.24,1.24,0,0,1-.17-.23.71.71,0,0,1-.06-.28,0,0,0,0,1,0,0,0,0,0,0,1,0,0h0a.63.63,0,0,0,.26.38,2,2,0,0,0,.43.25,6.1,6.1,0,0,0,1,.31c.33.08.66.15,1,.2l1,.14a38,38,0,0,0,4.13.21,35.59,35.59,0,0,0,4.13-.21l1-.14c.34,0,.68-.12,1-.2a6.83,6.83,0,0,0,1-.31,2.67,2.67,0,0,0,.43-.25.61.61,0,0,0,.25-.38h0s0,0,0,0a0,0,0,0,1,0,0Z"/><path class="cls-17" d="M86,62.66a.48.48,0,0,1-.06.28.87.87,0,0,1-.16.23,2,2,0,0,1-.43.34,5.79,5.79,0,0,1-1,.45,13.25,13.25,0,0,1-2.06.53,25.86,25.86,0,0,1-8.42,0A13.67,13.67,0,0,1,71.81,64a5.7,5.7,0,0,1-1-.45,1.79,1.79,0,0,1-.43-.34,1.24,1.24,0,0,1-.17-.23.71.71,0,0,1-.06-.28,0,0,0,0,1,0,0,0,0,0,0,1,0,0h0a.63.63,0,0,0,.26.38,2,2,0,0,0,.43.25,6.1,6.1,0,0,0,1,.31c.33.08.66.15,1,.2l1,.14a38,38,0,0,0,4.13.21,35.59,35.59,0,0,0,4.13-.21l1-.14c.34,0,.68-.12,1-.2a6.83,6.83,0,0,0,1-.31,2.67,2.67,0,0,0,.43-.25.61.61,0,0,0,.25-.38h0s0,0,0,0a0,0,0,0,1,0,0Z"/><rect class="cls-5" x="54.25" y="59.71" width="0.49" height="13.2"/><path class="cls-5" d="M54.25,72.73h.5a.13.13,0,0,1,.13.13h0v0h-.76v0A.13.13,0,0,1,54.25,72.73Z"/><rect class="cls-5" x="54.22" y="62.51" width="0.57" height="0.3"/><rect class="cls-18" x="54.25" y="62.8" width="0.49" height="0.07"/><circle class="cls-5" cx="54.5" cy="59.54" r="0.41"/><rect class="cls-5" x="85.68" y="59.71" width="0.49" height="13.2"/><path class="cls-5" d="M85.68,72.73h.5a.13.13,0,0,1,.13.13h0v0h-.76v0A.13.13,0,0,1,85.68,72.73Z"/><rect class="cls-5" x="85.64" y="62.51" width="0.57" height="0.3"/><rect class="cls-18" x="85.68" y="62.8" width="0.49" height="0.07"/><circle class="cls-5" cx="85.93" cy="59.54" r="0.41"/><rect class="cls-5" x="69.97" y="59.71" width="0.49" height="13.2"/><path class="cls-5" d="M70,72.73h.5a.13.13,0,0,1,.13.13h0v0h-.76v0a.13.13,0,0,1,.13-.13Z"/><rect class="cls-5" x="69.93" y="62.51" width="0.57" height="0.3"/><rect class="cls-18" x="69.97" y="62.8" width="0.49" height="0.07"/><circle class="cls-5" cx="70.21" cy="59.54" r="0.41"/></g><g id="freepik--Shadow--inject-17"><ellipse id="freepik--path--inject-17" class="cls-9" cx="34.44" cy="82.79" rx="34.44" ry="2.01"/></g><g id="freepik--character-1--inject-17"><path class="cls-2" d="M38.26,27.86a3.7,3.7,0,0,1-1.31.81,6,6,0,0,0-.27-1.58,4.58,4.58,0,0,1-.28,1.77,9.68,9.68,0,0,1-1.41.35,2.77,2.77,0,0,0-.12-.41,1.8,1.8,0,0,1-.09.45,17,17,0,0,1-5.75.42c-1.2-1.55.06-2.69.18-3.61.16-1.2-1-1.48-.82-2.45s1.22-.38,1.77-1.48a3.57,3.57,0,0,1,3.71-2.06c1.84.36,1.2,3.12,2.62,4A3.51,3.51,0,0,1,38.26,27.86Z"/><path class="cls-2" d="M38.23,28.22h0s0,0,0-.06h0c.39-1.13.57-2.58-1.49-3.8a3,3,0,0,1-1.18-2.05c-.27-1.07-.53-2.08-2.14-2a.05.05,0,0,1,0-.05.07.07,0,0,1,0-.06h0c1.67,0,2,1.07,2.24,2.13a2.91,2.91,0,0,0,1.14,2c2.14,1.28,1.9,2.85,1.53,3.92A.05.05,0,0,1,38.23,28.22Z"/><path class="cls-19" d="M36,41.75S35.87,52,35.23,60.41c-1.39,8.33-2.6,19.76-2.6,19.76H31.3S30,65,31.44,60.12c-.88-6.26-.61-18.2-.61-18.2Z"/><path class="cls-19" d="M37.71,32.72v.36l0,.39c0,.25,0,.51.06.77a13.12,13.12,0,0,0,.27,1.5,8.24,8.24,0,0,0,.48,1.37,3.93,3.93,0,0,0,.77,1.09l.07.08a.21.21,0,0,0-.13-.07h.07a1.76,1.76,0,0,0,.5-.13,7.13,7.13,0,0,0,1.23-.63c.42-.25.83-.52,1.24-.81l1.21-.87h0a.48.48,0,0,1,.68.1.5.5,0,0,1,0,.6c-.35.41-.71.77-1.09,1.14a13.32,13.32,0,0,1-1.19,1.05,8.67,8.67,0,0,1-1.4.92,3.55,3.55,0,0,1-.95.32,1.6,1.6,0,0,1-.69,0,1.43,1.43,0,0,1-.79-.45l.08.08A5.65,5.65,0,0,1,36.89,38a8.33,8.33,0,0,1-.69-1.73,11.81,11.81,0,0,1-.36-1.77c0-.3-.06-.59-.07-.89s0-.3,0-.45v-.47a1,1,0,0,1,1.94,0Z"/><path class="cls-19" d="M45.54,35.77l0-.81a.47.47,0,0,0-.49-.43h0a1.82,1.82,0,0,0-1,.57l-.88.94-.16.88c.71.35,1.7-.37,1.7-.37l.72-.35A.48.48,0,0,0,45.54,35.77Z"/><path class="cls-5" d="M37.07,31.24c1.39,1.12,1.18,2.35,1.49,3.26-.64,1.09-3.19,1.6-3.19,1.6S35.58,30,37.07,31.24Z"/><path class="cls-5" d="M37.69,32.47c.21,2.86-1.53,5-1.68,8l-7.21-.17c.21-2.94.12-2.65-.91-8.33a1.15,1.15,0,0,1,.93-1.35h.08c.53-.06,1.2-.12,1.9-.13a24,24,0,0,1,3.5.09c.75.09,1.56.24,2.17.36A1.57,1.57,0,0,1,37.69,32.47Z"/><path class="cls-6" d="M34.51,33.48c0,.3-.12.54-.34.54a.54.54,0,0,1-.44-.54c0-.29.12-.53.34-.53S34.48,33.19,34.51,33.48Z"/><path class="cls-6" d="M34.12,32.15a1.62,1.62,0,0,1,1.21,1.3,1.73,1.73,0,0,0-1-2.84Z"/><path class="cls-6" d="M33.27,32.26a1.36,1.36,0,0,0-1.53,1.18h0c-1.59-2.07-.93-3-.93-3Z"/><path class="cls-19" d="M31.26,26.57c.19,1.14.35,3.21-.46,3.94a7.48,7.48,0,0,0,3.06,2,1.85,1.85,0,0,0,.44-1.86c-1.25-.34-1.18-1.27-.94-2.14Z"/><path class="cls-7" d="M32.11,27.35l1.25,1.12a3.2,3.2,0,0,0-.13.63A1.56,1.56,0,0,1,32.07,28,1.8,1.8,0,0,1,32.11,27.35Z"/><path class="cls-19" d="M29.93,25.31c.74,1.74,1,2.49,2.23,3.08a2.41,2.41,0,0,0,3.6-2.31c-.18-1.73-1.36-4.28-3.35-4.37a2.58,2.58,0,0,0-2.48,3.6Z"/><path class="cls-2" d="M29.7,23.93c2.36,0,5.66-1.2,4.69-2.43C33.89,19,29.74,21.6,29.7,23.93Z"/><path class="cls-2" d="M30.06,23.52c1.58.88,1.16,2.6.16,2.93C29.16,25.18,28.9,23.3,30.06,23.52Z"/><path class="cls-2" d="M33,26a10.15,10.15,0,0,1,2,0,1.2,1.2,0,0,1-1.31.77.72.72,0,0,1-.72-.7Z"/><path class="cls-20" d="M34,26.28a1.38,1.38,0,0,0-.84.18.82.82,0,0,0,.47.17,1.37,1.37,0,0,0,.84-.18A.73.73,0,0,0,34,26.28Z"/><path class="cls-6" d="M33,26c0,.08,0,.14.17.19a6,6,0,0,0,1.2,0,.74.74,0,0,0,.51-.23A10.73,10.73,0,0,0,33,26Z"/><path class="cls-2" d="M32.77,24.78c0,.14.17.23.27.21s.13-.18.08-.32-.17-.24-.27-.21S32.72,24.64,32.77,24.78Z"/><path class="cls-2" d="M34.63,24.13c0,.15.17.24.26.21S35,24.16,35,24s-.17-.24-.27-.21S34.58,24,34.63,24.13Z"/><path class="cls-2" d="M34.67,23.83l.31-.22S34.89,23.94,34.67,23.83Z"/><path class="cls-20" d="M34.1,24.49a4,4,0,0,0,.84.74.69.69,0,0,1-.49.28Z"/><path class="cls-19" d="M29.88,27a1.38,1.38,0,0,0,1,.45c.48,0,.61-.44.38-.84s-.71-.79-1.15-.62a.64.64,0,0,0-.2,1Z"/><path class="cls-2" d="M31.92,24.52a.07.07,0,0,0,0,0,.74.74,0,0,1,.53-.38.1.1,0,0,0,.09-.1.11.11,0,0,0-.1-.08h0a.87.87,0,0,0-.67.47.08.08,0,0,0,0,.12A.06.06,0,0,0,31.92,24.52Z"/><path class="cls-2" d="M34.78,23.45s0,0,0-.06a.1.1,0,0,0-.06-.11h0a.9.9,0,0,0-.81.13.09.09,0,0,0,0,.13.08.08,0,0,0,.12,0,.73.73,0,0,1,.64-.1A.08.08,0,0,0,34.78,23.45Z"/><path class="cls-2" d="M32.82,24.48l.31-.22S33,24.59,32.82,24.48Z"/><path class="cls-19" d="M34,42a177.59,177.59,0,0,1-3.52,18.75c-3,6.3-6.45,11.17-10,16.34l-1.26-.67c2.45-5.57,5.08-12.16,7.56-16.5,1.8-15.8,1.6-17.91,1.6-17.91Z"/><path class="cls-2" d="M21.36,81.28a6.13,6.13,0,0,0-.76-1.23A8.6,8.6,0,0,1,21,76.63a.17.17,0,0,0-.05-.15l-1.23-1.11a.18.18,0,0,0-.25,0c-.1.11-.44.71-.56.9l-.42.63c-.42.66-1.31,2.17-1.31,2.17l.16.09a13.48,13.48,0,0,1,1-1.29c.37-.39.35.29.21.88a2.14,2.14,0,0,0,1.26,2.09C21,81.53,21.44,81.62,21.36,81.28Z"/><path class="cls-5" d="M36,40.51c1.53,4.83.37,9.74-.36,19a21.48,21.48,0,0,1-9.81-1.05c2.22-10.64-.51-13.29,2.95-18.14Z"/><path class="cls-2" d="M28.68,39.8a3.75,3.75,0,0,0-.09.57.16.16,0,0,0,.11.18c.77.12,5.32.78,7.35.28a.15.15,0,0,0,.09-.15v-.62c0-.09,0-.16-.12-.16-.71,0-4.45,0-7.24-.19A.1.1,0,0,0,28.68,39.8Z"/><path class="cls-6" d="M32.37,39.73a12.83,12.83,0,0,1,2.58.05c.19.09.1,1.22-.06,1.29a9.81,9.81,0,0,1-2.54,0C32,41,32.13,39.8,32.37,39.73Z"/><polygon class="cls-7" points="32.39 52.22 32.67 47.54 34.28 45.33 32.39 52.22"/><path class="cls-19" d="M29.23,33.31c-.28.34-.58.72-.86,1.1s-.55.75-.8,1.14a9.69,9.69,0,0,0-1.21,2.35,1.64,1.64,0,0,0-.07.28l0,.06h0v0a1.07,1.07,0,0,0,.14.39,6.41,6.41,0,0,0,.74,1.05,25.41,25.41,0,0,0,2,2h0a.5.5,0,0,1,0,.69.49.49,0,0,1-.59.09,14.5,14.5,0,0,1-2.5-1.77A6.5,6.5,0,0,1,25,39.52a2.84,2.84,0,0,1-.42-1,2,2,0,0,1,0-.34V38a.33.33,0,0,1,0-.12c0-.16.05-.3.08-.44a8.5,8.5,0,0,1,.55-1.56,13.12,13.12,0,0,1,.76-1.38c.27-.44.55-.87.86-1.28s.61-.8,1-1.21a1,1,0,0,1,1.49,1.26Z"/><path class="cls-5" d="M29,30.63a2.57,2.57,0,0,0-2.29,1.7,13.42,13.42,0,0,0,2.16,3.1S31.47,30.48,29,30.63Z"/><path class="cls-19" d="M28.55,41.39l1.8,0-.94,1.45s-1.08-.27-1.36-1Z"/><path class="cls-19" d="M31.1,42.49l-.34.76a.33.33,0,0,1-.43.18l-.06,0-.86-.51.94-1.45L31,42A.43.43,0,0,1,31.1,42.49Z"/><path class="cls-2" d="M35.7,83.05a4.86,4.86,0,0,0-1.22-.6A12.79,12.79,0,0,1,32.86,79a.19.19,0,0,0-.12-.11l-1.64-.39a.16.16,0,0,0-.21.11v0c0,.15,0,1,0,1.19v.75c0,.79.1,2.54.1,2.54h.18a12.12,12.12,0,0,1,.1-1.59c.09-.52.45.09.66.68a2.34,2.34,0,0,0,2.21,1.23C35.54,83.45,36,83.32,35.7,83.05Z"/></g><path class="cls-2" d="M41.94,41.1a3.29,3.29,0,0,1-3.2-2.52A.32.32,0,0,1,39,38.2a.32.32,0,0,1,.38.24,2.67,2.67,0,0,0,5.19-1.26h0L35.85,1.25a.31.31,0,1,1,.61-.15L45.15,37a3.29,3.29,0,0,1-2.42,4h0A3.46,3.46,0,0,1,41.94,41.1Z"/><path class="cls-5" d="M13.69,17.33c-.1-.86,1.43-1.94,3.5-2.44s4-.22,4.25.65c-.2-.87,1.94-2.14,4.79-2.84s5.34-.54,5.55.34c-.21-.88,2.68-2.33,6.46-3.24s7-.94,7.23-.07c-.21-.87,1.93-2.14,4.78-2.83s5.34-.54,5.55.33c-.21-.87,1.36-2,3.49-2.51s3.93-.25,4.24.57C62.13,0,50-1.59,36.28,1.73S12.51,12,13.69,17.33Z"/><path class="cls-7" d="M21.44,15.54c-.2-.87,1.94-2.14,4.79-2.84s5.34-.54,5.55.34c-.21-.88,2.68-2.33,6.46-3.24s7-.94,7.23-.07c-.21-.87,1.93-2.14,4.78-2.83s5.34-.54,5.55.33c-1.29-5.34-10-7.81-19.52-5.51S20.15,10.2,21.44,15.54Z"/><path class="cls-5" d="M31.78,13c-.21-.88,2.68-2.33,6.46-3.24s7-.94,7.23-.07c-1.29-5.34-5.4-8.92-9.18-8S30.49,7.7,31.78,13Z"/></g></g></svg>