<svg xmlns="http://www.w3.org/2000/svg" viewBox="0 0 100.69 93.58"><defs><style>.cls-1{fill:#0aa;}.cls-2,.cls-4,.cls-5,.cls-7,.cls-8{fill:#fff;}.cls-2{opacity:0.9;}.cls-11,.cls-12,.cls-14,.cls-2,.cls-5,.cls-7,.cls-8{isolation:isolate;}.cls-3{fill:#f4f4f4;}.cls-5{opacity:0.5;}.cls-6{fill:#263238;}.cls-14,.cls-7{opacity:0.3;}.cls-8{opacity:0.8;}.cls-11,.cls-9{opacity:0.2;}.cls-10{fill:#f0887d;}.cls-12{opacity:0.4;}.cls-13{fill:#e95656;}.cls-15{fill:#b55b52;}.cls-16{fill:#a02725;}</style></defs><g id="Layer_2" data-name="Layer 2"><g id="Layer_1-2" data-name="Layer 1"><g id="freepik--background-simple--inject-56"><path class="cls-1" d="M80.7,35.48c-7-15.23-19.24-1-27.8-11.93-5.17-6.58-5-12.72-12.22-16-5-2.28-10.6-1.41-16-4.17C15.5-1.31,3.9-3.43.64,12.81c-1.35,6.77-.92,16,4.79,23.73C10.3,43.09,16.83,39.94,22,45c9.86,9.64,2.44,31.11,16.73,36.8,12.54,5,17.84-13.48,30.62-8C78.91,78,94.63,89.15,100,68.54c2.3-8.78-1.59-15.4-6.56-19.49C86.59,43.4,85.33,45.47,80.7,35.48Z"/><path class="cls-2" d="M80.7,35.48c-7-15.23-19.24-1-27.8-11.93-5.17-6.58-5-12.72-12.22-16-5-2.28-10.6-1.41-16-4.17C15.5-1.31,3.9-3.43.64,12.81c-1.35,6.77-.92,16,4.79,23.73C10.3,43.09,16.83,39.94,22,45c9.86,9.64,2.44,31.11,16.73,36.8,12.54,5,17.84-13.48,30.62-8C78.91,78,94.63,89.15,100,68.54c2.3-8.78-1.59-15.4-6.56-19.49C86.59,43.4,85.33,45.47,80.7,35.48Z"/></g><g id="freepik--Shadow--inject-56"><ellipse id="freepik--path--inject-56" class="cls-3" cx="49.87" cy="90.87" rx="46.43" ry="2.71"/></g><g id="freepik--Shop--inject-56"><rect class="cls-1" x="13.44" y="16.84" width="72.85" height="73.33"/><rect class="cls-4" x="31.85" y="24.26" width="36.02" height="8.22" rx="0.78"/><rect class="cls-1" x="33.26" y="25.33" width="33.21" height="6.09" rx="0.39"/><path class="cls-4" d="M34.84,29.55l1.91-.12a1.5,1.5,0,0,0,.24.71,1.2,1.2,0,0,0,1.56.2.61.61,0,0,0,.24-.48.63.63,0,0,0-.22-.45,2.55,2.55,0,0,0-1-.38,4.33,4.33,0,0,1-1.88-.79A1.61,1.61,0,0,1,35.08,27a1.72,1.72,0,0,1,.29-1,1.93,1.93,0,0,1,.87-.7,4.22,4.22,0,0,1,1.61-.26,3.33,3.33,0,0,1,1.91.47A2,2,0,0,1,40.54,27l-1.9.12a.88.88,0,0,0-.92-.85h-.06a.77.77,0,0,0-.53.15.44.44,0,0,0-.18.36.36.36,0,0,0,.15.28,1.59,1.59,0,0,0,.67.24,8.25,8.25,0,0,1,1.89.57,2,2,0,0,1,.83.72,1.81,1.81,0,0,1,.27,1,2,2,0,0,1-.35,1.15,2.16,2.16,0,0,1-1,.8,4,4,0,0,1-1.57.28,3.26,3.26,0,0,1-2.3-.64A2.5,2.5,0,0,1,34.84,29.55Z"/><path class="cls-4" d="M42.59,25.19h2v2.28h2.2V25.19h2V31.7h-2V29.07H44.6V31.7h-2Z"/><path class="cls-4" d="M50.72,28.45a3.1,3.1,0,0,1,3.37-3.38,3.4,3.4,0,0,1,2.5.88,3.28,3.28,0,0,1,.88,2.45,3.93,3.93,0,0,1-.38,1.87A2.83,2.83,0,0,1,56,31.41a3.76,3.76,0,0,1-1.8.4,4.27,4.27,0,0,1-1.83-.35,2.72,2.72,0,0,1-1.17-1.11A3.71,3.71,0,0,1,50.72,28.45Zm2,0a2.19,2.19,0,0,0,.36,1.41,1.39,1.39,0,0,0,2,0l0,0a2.44,2.44,0,0,0,.35-1.51A2,2,0,0,0,55.09,27a1.27,1.27,0,0,0-1-.42,1.24,1.24,0,0,0-1,.43,2.27,2.27,0,0,0-.37,1.45Z"/><path class="cls-4" d="M59.37,25.19h3.35a2.27,2.27,0,0,1,1.64.52,1.93,1.93,0,0,1,.54,1.48,2,2,0,0,1-.59,1.54,2.58,2.58,0,0,1-1.81.55H61.4V31.7h-2Zm2,2.77h.49a1.25,1.25,0,0,0,.82-.2.64.64,0,0,0,.24-.52.73.73,0,0,0-.21-.52,1.06,1.06,0,0,0-.77-.21h-.57Z"/><path class="cls-5" d="M19,35H80.73a1.33,1.33,0,0,1,1.33,1.33V90.17H17.67V36.32A1.33,1.33,0,0,1,19,35Z"/><path class="cls-6" d="M13.44,90.17h-2.6A1.07,1.07,0,0,1,9.77,89.1V16.84h3.67V90.17Z"/><path class="cls-6" d="M88.89,90.17h-2.6V16.84H90V89.09a1.06,1.06,0,0,1-1.07,1.08Z"/><polygon class="cls-7" points="66.58 34.98 58.33 34.98 43.99 90.17 52.24 90.17 66.58 34.98"/><polygon class="cls-7" points="72.66 34.98 69.14 34.98 54.8 90.17 58.33 90.17 72.66 34.98"/><polygon class="cls-7" points="43.65 34.98 40.13 34.98 25.79 90.17 29.31 90.17 43.65 34.98"/><rect class="cls-1" x="48.59" y="34.15" width="2.56" height="56.03"/><path class="cls-1" d="M94.83,19l-10-13.31H15L4.9,19c-1.15,1.71-.63,3.17,1.2,3.17A6.76,6.76,0,0,0,11.25,19h.08c-1,1.71-.33,3.17,1.5,3.17A6,6,0,0,0,17.68,19h.08c-.82,1.71,0,3.17,1.81,3.17A5.35,5.35,0,0,0,24.12,19h.08a2.17,2.17,0,0,0,2.11,3.17A4.71,4.71,0,0,0,30.55,19h.08a2.38,2.38,0,0,0,2.42,3.17A4.17,4.17,0,0,0,37,19h.09a2.62,2.62,0,0,0,2.71,3.17A3.69,3.69,0,0,0,43.41,19h.09a2.92,2.92,0,0,0,3,3.17A3.28,3.28,0,0,0,49.84,19h.08a3.28,3.28,0,0,0,3.33,3.17,2.93,2.93,0,0,0,3-3.17h.06A3.7,3.7,0,0,0,60,22.2,2.63,2.63,0,0,0,62.68,19h.08a4.16,4.16,0,0,0,3.93,3.17A2.38,2.38,0,0,0,69.11,19h.08a4.71,4.71,0,0,0,4.24,3.17A2.17,2.17,0,0,0,75.54,19h.08a5.32,5.32,0,0,0,4.55,3.17C82,22.2,82.81,20.74,82,19h.08a6,6,0,0,0,4.85,3.17c1.83,0,2.48-1.46,1.5-3.17h.08a6.78,6.78,0,0,0,5.15,3.17C95.47,22.2,96,20.74,94.83,19Z"/><path class="cls-8" d="M94.83,19l-10-13.31H15L4.9,19c-1.15,1.71-.63,3.17,1.2,3.17A6.76,6.76,0,0,0,11.25,19h.08c-1,1.71-.33,3.17,1.5,3.17A6,6,0,0,0,17.68,19h.08c-.82,1.71,0,3.17,1.81,3.17A5.35,5.35,0,0,0,24.12,19h.08a2.17,2.17,0,0,0,2.11,3.17A4.71,4.71,0,0,0,30.55,19h.08a2.38,2.38,0,0,0,2.42,3.17A4.17,4.17,0,0,0,37,19h.09a2.62,2.62,0,0,0,2.71,3.17A3.69,3.69,0,0,0,43.41,19h.09a2.92,2.92,0,0,0,3,3.17A3.28,3.28,0,0,0,49.84,19h.08a3.28,3.28,0,0,0,3.33,3.17,2.93,2.93,0,0,0,3-3.17h.06A3.7,3.7,0,0,0,60,22.2,2.63,2.63,0,0,0,62.68,19h.08a4.16,4.16,0,0,0,3.93,3.17A2.38,2.38,0,0,0,69.11,19h.08a4.71,4.71,0,0,0,4.24,3.17A2.17,2.17,0,0,0,75.54,19h.08a5.32,5.32,0,0,0,4.55,3.17C82,22.2,82.81,20.74,82,19h.08a6,6,0,0,0,4.85,3.17c1.83,0,2.48-1.46,1.5-3.17h.08a6.78,6.78,0,0,0,5.15,3.17C95.47,22.2,96,20.74,94.83,19Z"/><g class="cls-9"><polygon class="cls-1" points="14.96 5.72 19.89 5.72 11.24 19.03 4.9 19.03 14.96 5.72"/><polygon class="cls-1" points="24.94 5.72 29.87 5.72 24.1 19.03 17.76 19.03 24.94 5.72"/><polygon class="cls-1" points="34.93 5.72 39.85 5.72 36.97 19.03 30.62 19.03 34.93 5.72"/><polygon class="cls-1" points="44.91 5.72 49.83 5.72 49.82 19.03 43.48 19.03 44.91 5.72"/><polygon class="cls-1" points="54.89 5.72 59.82 5.72 62.68 19.03 56.34 19.03 54.89 5.72"/><polygon class="cls-1" points="64.87 5.72 69.8 5.72 75.54 19.03 69.2 19.03 64.87 5.72"/><polygon class="cls-1" points="74.86 5.72 79.78 5.72 88.4 19.03 82.06 19.03 74.86 5.72"/><path class="cls-1" d="M82.06,19A6,6,0,0,0,86.9,22.2c1.84,0,2.49-1.46,1.5-3.17"/><path class="cls-1" d="M69.2,19a4.68,4.68,0,0,0,4.23,3.17A2.16,2.16,0,0,0,75.54,19"/><path class="cls-1" d="M56.33,19A3.7,3.7,0,0,0,60,22.2,2.63,2.63,0,0,0,62.68,19"/><path class="cls-1" d="M43.48,19a2.93,2.93,0,0,0,3,3.17A3.28,3.28,0,0,0,49.82,19"/><path class="cls-1" d="M30.62,19A2.37,2.37,0,0,0,33,22.2,4.16,4.16,0,0,0,37,19"/><path class="cls-1" d="M17.76,19c-.82,1.71,0,3.17,1.81,3.17A5.35,5.35,0,0,0,24.12,19"/><path class="cls-1" d="M4.9,19c-1.15,1.71-.64,3.17,1.2,3.17A6.75,6.75,0,0,0,11.24,19"/></g></g><g id="freepik--Character--inject-56"><path class="cls-6" d="M68.57,41.2c.48-1.07,2.38-1.59,4.11-.49s1.58,3.42.82,3.71c2.26.76,3.38,5.52,1.48,5.9.68,1.38.91,6.73-4.79,5.67s-4-5.75-4-5.75-1.61-3.78.92-5.46C66,43.88,66.71,40.67,68.57,41.2Z"/><polygon class="cls-10" points="70.52 87.17 69.13 87.83 66.16 83.82 68.01 82.56 70.52 87.17"/><path class="cls-6" d="M68.81,87.46l1.3-1.15a.11.11,0,0,1,.15,0l1,.83a.24.24,0,0,1,0,.33l0,0c-.46.4-.7.56-1.27,1.07-.35.31-1,1-1.53,1.42s-.9,0-.73-.21a4.49,4.49,0,0,0,1-2.06A.38.38,0,0,1,68.81,87.46Z"/><path class="cls-1" d="M68.54,88a.6.6,0,0,1-.33.18.18.18,0,0,1-.16-.08A.14.14,0,0,1,68,88c.08-.2.74-.39.81-.41a0,0,0,0,1,0,0s0,0,0,0A2.31,2.31,0,0,1,68.54,88Zm-.4,0,0,0a0,0,0,0,0,0,0,.12.12,0,0,0,.1.05c.13,0,.33-.16.55-.43a2,2,0,0,0-.61.28Z"/><path class="cls-1" d="M68.87,87.68h0c-.19.07-.67.08-.75-.07s0-.08,0-.16a.26.26,0,0,1,.19-.09,1,1,0,0,1,.53.26,0,0,0,0,1,0,.06Zm-.66-.19h0s0,.08,0,.08.39.11.6.06a.78.78,0,0,0-.44-.2A.18.18,0,0,0,68.21,87.49Z"/><path class="cls-10" d="M66.33,49.72a19,19,0,0,1-.81,2.76,13,13,0,0,1-.58,1.33,7.08,7.08,0,0,1-.83,1.31L64,55.2l-.11.11a1.21,1.21,0,0,1-.32.22,1.11,1.11,0,0,1-.82,0,1.62,1.62,0,0,1-.5-.27A3.26,3.26,0,0,1,62,55a6.63,6.63,0,0,1-.85-1.26A16,16,0,0,1,60,51.09a.38.38,0,0,1,.25-.47.38.38,0,0,1,.44.17h0c.22.4.44.8.68,1.19s.46.77.71,1.13a5.68,5.68,0,0,0,.79,1,.9.9,0,0,0,.19.15c.06,0,.11.05.1,0a.29.29,0,0,0-.13,0l-.05,0v0l0-.05a5.63,5.63,0,0,0,.6-1.07c.17-.39.33-.8.48-1.22.28-.84.53-1.72.74-2.57v0a.75.75,0,0,1,.93-.52.76.76,0,0,1,.55.87Z"/><polygon class="cls-10" points="72.91 89.81 71.42 89.87 69.85 84.57 71.9 84.32 72.91 89.81"/><path class="cls-6" d="M71.32,89.39H73a.12.12,0,0,1,.11.1l.1,1.32a.27.27,0,0,1-.26.27h0c-.58,0-.86,0-1.59,0-.46,0-1.12,0-1.74.06s-.62-.62-.36-.68a3.16,3.16,0,0,0,1.81-.94A.46.46,0,0,1,71.32,89.39Z"/><path class="cls-1" d="M64.92,49.07a45.62,45.62,0,0,0-.45,8.22l6,.53A26.47,26.47,0,0,1,72.54,50a1.07,1.07,0,0,0-.61-1.39l-.15,0c-.38-.08-.83-.18-1.28-.24a20.66,20.66,0,0,0-2.72-.24c-.66,0-1.38.06-1.88.1A1.07,1.07,0,0,0,64.92,49.07Z"/><path class="cls-11" d="M71.31,49.82a4.65,4.65,0,0,0,.46,2.28c.1-.3.21-.62.34-1Z"/><path class="cls-10" d="M70.72,45.27c-.32.86-.75,2.46-.24,3.1a20.88,20.88,0,0,1-3,1.58c-.62-1.46.32-1.82.32-1.82,1-.15,1.11-.88,1-1.58Z"/><path class="cls-11" d="M70.17,45.92l-1.35.63a4.17,4.17,0,0,1,0,.5,1.68,1.68,0,0,0,1.29-.65A.66.66,0,0,0,70.17,45.92Z"/><path class="cls-10" d="M72,43.9c-.49,1.39-.67,2-1.6,2.52a1.88,1.88,0,0,1-2.92-1.63c.06-1.36.85-3.41,2.39-3.58A2,2,0,0,1,72.08,43,2.05,2.05,0,0,1,72,43.9Z"/><path class="cls-6" d="M69.22,41.2a1.85,1.85,0,0,0,1.92,1.25c-.32.4-.67,2.09.57,2.32a2.1,2.1,0,0,0,.74-3.23C71.7,40.49,69.64,40.46,69.22,41.2Z"/><path class="cls-6" d="M69.22,41c-1.06.24-1.18,1.15-.6,1.1C69.61,42,70.6,40.68,69.22,41Z"/><path class="cls-1" d="M64.47,57.29S61.32,70.65,61.6,74c.32,4,4.64,10.3,4.64,10.3l2-1.8s-2-5.21-3.42-8.6c.46-3.39,4.58-13,4.58-16.2Z"/><path class="cls-12" d="M64.47,57.29S61.32,70.65,61.6,74c.32,4,4.64,10.3,4.64,10.3l2-1.8s-2-5.21-3.42-8.6c.46-3.39,4.58-13,4.58-16.2Z"/><polygon class="cls-1" points="68.57 82.8 66.23 84.55 65.63 84.09 68.2 82.07 68.57 82.8"/><path class="cls-12" d="M66.8,63.17C65.06,65.58,65,70,65.09,72.5c.59-2.29,1.84-5.7,2.84-8.78C67.91,62.54,67.61,62.05,66.8,63.17Z"/><path class="cls-1" d="M65.59,57.31s.87,11.29,1.25,15.19c.46,4.62,2.88,12.21,2.88,12.21l2.19-.39S70.7,78.16,70.34,74c.06-5.5,1.16-12.72.12-16.19Z"/><path class="cls-12" d="M65.59,57.31s.87,11.29,1.25,15.19c.46,4.62,2.88,12.21,2.88,12.21l2.19-.39S70.7,78.16,70.34,74c.06-5.5,1.16-12.72.12-16.19Z"/><polygon class="cls-1" points="72.13 84.7 69.58 84.97 69.3 84.2 72.15 83.73 72.13 84.7"/><path class="cls-6" d="M69.49,43.58c0,.11-.12.19-.2.17s-.11-.13-.07-.24.12-.19.19-.17S69.52,43.47,69.49,43.58Z"/><path class="cls-6" d="M68.19,43.21c0,.11-.13.19-.2.17s-.11-.14-.08-.24.12-.19.2-.17S68.22,43.09,68.19,43.21Z"/><path class="cls-6" d="M68.14,43l-.26-.16S68,43.07,68.14,43Z"/><path class="cls-13" d="M68.6,43.6a3.31,3.31,0,0,1-.62.62.52.52,0,0,0,.39.2Z"/><path class="cls-6" d="M68.93,45a1.38,1.38,0,0,1-.2,0,0,0,0,0,1,0,0s0,0,0,0a1,1,0,0,0,.85-.15,0,0,0,0,1,.05,0,0,0,0,0,1,0,0A1,1,0,0,1,68.93,45Z"/><path class="cls-10" d="M72.08,45.32a1.08,1.08,0,0,1-.77.28c-.38,0-.46-.27-.26-.57a1,1,0,0,1,1-.52C72.36,44.58,72.34,45.08,72.08,45.32Z"/><path class="cls-6" d="M70.41,43.27s0,0,0,0A.55.55,0,0,0,70,43a.07.07,0,0,1-.07-.07h0a.07.07,0,0,1,.07-.07.71.71,0,0,1,.54.36.07.07,0,0,1,0,.09A.07.07,0,0,1,70.41,43.27Z"/><path class="cls-6" d="M67.93,42.6s-.06,0-.06-.08,0,0,0,0a.7.7,0,0,1,.62-.16.07.07,0,0,1,0,.08.07.07,0,0,1-.09.05h0a.54.54,0,0,0-.49.13A.07.07,0,0,1,67.93,42.6Z"/><path class="cls-10" d="M72.66,49.42c.29.85.53,1.68.74,2.55.1.44.2.87.27,1.32a7.76,7.76,0,0,1,.11,1.44,3,3,0,0,1,0,.42l-.06.24,0,.14a1.05,1.05,0,0,1-.42.51,1.42,1.42,0,0,1-.36.14,1.4,1.4,0,0,1-.54,0,4.32,4.32,0,0,1-1.41-.5,14.68,14.68,0,0,1-2.23-1.49.38.38,0,0,1-.07-.54.37.37,0,0,1,.47-.1h0a22.52,22.52,0,0,0,2.3,1,4.63,4.63,0,0,0,.56.19,2.1,2.1,0,0,0,.5.09h.1l-.06,0a.28.28,0,0,0-.1.09s0,0,0,.05v0s0,0,0-.07v-.23a7.24,7.24,0,0,0-.16-1.15c-.09-.41-.18-.81-.29-1.22-.22-.81-.47-1.64-.72-2.43h0a.77.77,0,0,1,.58-.91.74.74,0,0,1,.85.43Z"/><path class="cls-1" d="M70.5,89.56a.17.17,0,0,1,0-.17.12.12,0,0,1,.07-.1c.18-.08.61.21.67.24s0,0,0,0l0,0c-.2,0-.55.1-.68,0Zm.59,0c-.17-.11-.43-.24-.52-.19s0,0,0,0a.11.11,0,0,0,0,.13C70.64,89.6,70.83,89.62,71.09,89.55Z"/><path class="cls-1" d="M71,89.43a.56.56,0,0,1-.17-.4.14.14,0,0,1,.13-.1.15.15,0,0,1,.14,0c.16.14.13.57.13.59a0,0,0,0,1,0,0h0A.85.85,0,0,1,71,89.43Zm.07-.38,0,0A.09.09,0,0,0,71,89s0,0-.06,0a.75.75,0,0,0,.26.46.85.85,0,0,0-.09-.45Z"/><path class="cls-4" d="M70.59,57.48l.07.55s0,.09-.11.08l-6.16-.55a.08.08,0,0,1-.09-.07l0-.54s0-.07.11-.06l6,.54S70.58,57.45,70.59,57.48Z"/><path class="cls-1" d="M69.67,58.09h.16s.06,0,.06,0l0-.7a.06.06,0,0,0-.06,0h-.16s-.06,0-.06,0l0,.72S69.64,58.09,69.67,58.09Z"/><path class="cls-12" d="M69.67,58.09h.16s.06,0,.06,0l0-.7a.06.06,0,0,0-.06,0h-.16s-.06,0-.06,0l0,.72S69.64,58.09,69.67,58.09Z"/><path class="cls-1" d="M64.84,57.66l.16,0s.06,0,.06,0l0-.71s0,0-.06,0h-.16s-.06,0-.06,0l0,.71A.06.06,0,0,0,64.84,57.66Z"/><path class="cls-12" d="M64.84,57.66l.16,0s.06,0,.06,0l0-.71s0,0-.06,0h-.16s-.06,0-.06,0l0,.71A.06.06,0,0,0,64.84,57.66Z"/><path class="cls-1" d="M67.25,57.88h.17s.06,0,.06,0l0-.72s0,0-.06,0h-.17s-.06,0-.06,0l0,.7A.06.06,0,0,0,67.25,57.88Z"/><path class="cls-12" d="M67.25,57.88h.17s.06,0,.06,0l0-.72s0,0-.06,0h-.17s-.06,0-.06,0l0,.7A.06.06,0,0,0,67.25,57.88Z"/><path class="cls-10" d="M60.29,50.11l-.48-.7a.41.41,0,0,0-.51-.16l-.46.17a.44.44,0,0,0-.26.56h0l.19.48a.77.77,0,0,0,.34.37l1.13.59.61-.12C61,50.69,60.29,50.11,60.29,50.11Z"/><path class="cls-10" d="M60.88,51.15a2.05,2.05,0,0,0-.16-1.2c0-.13-.15-.59-.23-.62s-.24.26-.19.45a.26.26,0,0,1-.16.29S60.57,51.11,60.88,51.15Z"/><path class="cls-6" d="M59.18,49.42a.26.26,0,0,1,.15.12L60,46a5.08,5.08,0,0,1,.07,2.16l-.42.28L59.38,50h0c-.05.26-.24.45-.4.41s-.27-.27-.22-.53S59,49.39,59.18,49.42Zm-.17.82c.13,0,.26-.11.3-.3s0-.36-.16-.39-.25.11-.29.3,0,.37.15.39Z"/><path class="cls-6" d="M60.15,49.11a.23.23,0,0,0-.1.16l-2-3a5,5,0,0,0,.77,2l.48.1.87,1.29h0c.15.23.39.33.53.24s.14-.35,0-.58S60.3,49,60.15,49.11Zm.47.69c-.11.07-.28,0-.39-.16s-.11-.35,0-.42.28,0,.39.16S60.72,49.73,60.62,49.8Z"/><path class="cls-6" d="M69.44,43.35l-.25-.16S69.26,43.45,69.44,43.35Z"/><path class="cls-10" d="M69.54,53.87,69,52.72a.7.7,0,0,0-.37-.37l-.46-.21a.43.43,0,0,0-.58.21h0l-.2.45a.45.45,0,0,0,.14.53l.67.5s.55.73,1.18.62Z"/></g><g id="freepik--Sign--inject-56"><path class="cls-6" d="M25.79,64.19H38a1.7,1.7,0,0,1,1.66,1.52l2,22.83a1.38,1.38,0,0,1-1.21,1.52H28.05a1.71,1.71,0,0,1-1.65-1.53l-2-22.83a1.39,1.39,0,0,1,1.22-1.52Z"/><path class="cls-6" d="M39.46,83.73H40.9a.37.37,0,0,1,.36.32L42,92a.3.3,0,0,1-.26.33H40.22a.36.36,0,0,1-.36-.33l-.69-8a.28.28,0,0,1,.25-.32Z"/><path class="cls-6" d="M26.3,83.73h1.44a.37.37,0,0,1,.36.32l.69,8a.29.29,0,0,1-.26.32H27.06A.38.38,0,0,1,26.7,92l-.69-8a.29.29,0,0,1,.26-.32Z"/><path class="cls-1" d="M37.19,64.19H25a1.7,1.7,0,0,0-1.66,1.52l-2,22.83a1.39,1.39,0,0,0,1.22,1.52H34.92a1.71,1.71,0,0,0,1.67-1.53l2-22.83a1.38,1.38,0,0,0-1.21-1.52Z"/><path class="cls-1" d="M23.53,83.73H22.09a.35.35,0,0,0-.35.32L21,92a.29.29,0,0,0,.26.32h1.47a.38.38,0,0,0,.36-.33l.69-8a.29.29,0,0,0-.26-.32Z"/><path class="cls-1" d="M36.68,83.73H35.24a.36.36,0,0,0-.36.32l-.69,8a.29.29,0,0,0,.26.32h1.47a.38.38,0,0,0,.36-.33l.69-8a.28.28,0,0,0-.25-.32Z"/><path class="cls-4" d="M22.78,89.45a.83.83,0,0,1-.84-.81.34.34,0,0,1,0-.1l2-22.83a1,1,0,0,1,1-.91h12.2a.82.82,0,0,1,.84.8s0,.08,0,.11L36,88.54a1,1,0,0,1-1,.91Z"/><path class="cls-1" d="M24.89,70.7l.79,0a.6.6,0,0,0,.08.29.48.48,0,0,0,.62.08.28.28,0,0,0,.12-.19.27.27,0,0,0-.08-.19,1,1,0,0,0-.41-.15,1.58,1.58,0,0,1-.74-.32.58.58,0,0,1-.18-.52.67.67,0,0,1,.15-.38.9.9,0,0,1,.38-.29,1.66,1.66,0,0,1,.66-.1,1.19,1.19,0,0,1,.76.19.73.73,0,0,1,.27.6l-.78,0a.38.38,0,0,0-.11-.26.45.45,0,0,0-.48,0,.24.24,0,0,0-.09.15.14.14,0,0,0,0,.11.52.52,0,0,0,.27.1,3.28,3.28,0,0,1,.75.24.69.69,0,0,1,.31.3.65.65,0,0,1,.07.39.86.86,0,0,1-.18.48,1.1,1.1,0,0,1-.42.32,1.62,1.62,0,0,1-.65.11,1.22,1.22,0,0,1-.92-.26A1,1,0,0,1,24.89,70.7Z"/><path class="cls-1" d="M27.88,68.92h.82l-.08.93h.89l.08-.93h.83l-.24,2.66h-.82l.09-1.08h-.89l-.1,1.08h-.82Z"/><path class="cls-1" d="M30.74,70.25a1.39,1.39,0,0,1,1.4-1.37h.09a1.25,1.25,0,0,1,1,.36,1.27,1.27,0,0,1,.28,1,1.77,1.77,0,0,1-.23.77,1.35,1.35,0,0,1-.49.46,1.62,1.62,0,0,1-.75.17,1.59,1.59,0,0,1-.74-.15,1,1,0,0,1-.43-.45A1.48,1.48,0,0,1,30.74,70.25Zm.82,0a.89.89,0,0,0,.1.58.5.5,0,0,0,.39.18.61.61,0,0,0,.43-.17,1.07,1.07,0,0,0,.2-.62.81.81,0,0,0-.11-.55.45.45,0,0,0-.39-.17.55.55,0,0,0-.42.17,1,1,0,0,0-.2.59Z"/><path class="cls-1" d="M34.05,68.92h1.36a.86.86,0,0,1,.65.22.72.72,0,0,1,.17.6.9.9,0,0,1-.3.63,1.11,1.11,0,0,1-.75.22h-.45l-.09,1h-.82Zm.72,1.14H35a.52.52,0,0,0,.34-.09.31.31,0,0,0,0-.42.44.44,0,0,0-.31-.09h-.24Z"/><path class="cls-1" d="M24.48,74.2l.16-1.84h1a1.33,1.33,0,0,1,.4,0,.36.36,0,0,1,.21.17.49.49,0,0,1,.06.29.44.44,0,0,1-.09.27.66.66,0,0,1-.19.18.86.86,0,0,1-.21.07l.14.07a.43.43,0,0,1,.09.1l.07.11.22.53h-.64l-.25-.56a.42.42,0,0,0-.09-.14.24.24,0,0,0-.14,0h-.05l-.06.75Zm.67-1.09h.24l.16,0a.12.12,0,0,0,.09,0,.22.22,0,0,0,.05-.11.19.19,0,0,0-.05-.14.35.35,0,0,0-.2,0H25.2Z"/><path class="cls-1" d="M26.64,72.37h1.52l0,.4h-1l0,.29H28l0,.38h-.88l0,.36h1l0,.41H26.47Z"/><path class="cls-1" d="M28.34,73.28a1,1,0,0,1,.95-1h.08a.78.78,0,0,1,.88.93,1.3,1.3,0,0,1-.16.53,1,1,0,0,1-.34.32,1,1,0,0,1-.52.11,1.11,1.11,0,0,1-.51-.1.69.69,0,0,1-.3-.31A1,1,0,0,1,28.34,73.28Zm.57,0a.55.55,0,0,0,.06.4.34.34,0,0,0,.28.13.4.4,0,0,0,.29-.12.76.76,0,0,0,.14-.43.56.56,0,0,0-.07-.38.33.33,0,0,0-.28-.12.36.36,0,0,0-.28.12.68.68,0,0,0-.14.41Z"/><path class="cls-1" d="M30.63,72.37h1a.63.63,0,0,1,.45.15.5.5,0,0,1,.11.42.62.62,0,0,1-.2.44.82.82,0,0,1-.53.15h-.31l-.06.68h-.58Zm.5.79h.14a.41.41,0,0,0,.24-.06.18.18,0,0,0,.08-.15.16.16,0,0,0-.05-.14.26.26,0,0,0-.21-.06h-.16Z"/><path class="cls-1" d="M32.49,72.37H34l0,.4H33l0,.29h.89l0,.38H33l0,.36h1l0,.41H32.32Z"/><path class="cls-1" d="M34.35,72.37h.53l.61,1,.08-1h.54L36,74.21h-.54l-.6-1-.09,1h-.53Z"/><path class="cls-1" d="M31.55,83.81l-1.34-.56c.19.78-.57,1.34-1.2,1.66-.3.15-.24.55.12.69L30,86C31.07,86.41,31.55,83.81,31.55,83.81Z"/><path class="cls-1" d="M31.82,83.92l-2.46-1a1.52,1.52,0,0,1-.77-2,.47.47,0,0,1,.05-.1h0a1.77,1.77,0,0,1,2.19-.91l2.45,1a1.52,1.52,0,0,1,.78,2L34,83h0A1.74,1.74,0,0,1,31.82,83.92Z"/><path class="cls-14" d="M31.82,83.92l-2.46-1a1.52,1.52,0,0,1-.77-2,.47.47,0,0,1,.05-.1h0a1.77,1.77,0,0,1,2.19-.91l2.45,1a1.52,1.52,0,0,1,.78,2L34,83h0A1.74,1.74,0,0,1,31.82,83.92Z"/><path class="cls-1" d="M24.85,82.55l4.51,1c.38.15,2.37-3.92,2-4.08L27.56,77C27,76.79,24.31,82.33,24.85,82.55Z"/></g><g id="freepik--character-1--inject-17"><path class="cls-6" d="M22.05,44.86a2.93,2.93,0,0,1-1.09.67,5.2,5.2,0,0,0-.22-1.3,3.73,3.73,0,0,1-.24,1.46,9.12,9.12,0,0,1-1.17.3,2,2,0,0,0-.09-.35,2.57,2.57,0,0,1-.08.38,14.14,14.14,0,0,1-4.77.35c-1-1.29,0-2.24.15-3,.13-1-.8-1.23-.69-2s1-.31,1.47-1.22a3,3,0,0,1,3.08-1.72c1.53.31,1,2.6,2.18,3.33A2.94,2.94,0,0,1,22.05,44.86Z"/><path class="cls-6" d="M22,45.16h0s0,0,0,0h0A2.35,2.35,0,0,0,20.75,42a2.51,2.51,0,0,1-1-1.71c-.23-.88-.45-1.72-1.78-1.7a0,0,0,0,1,0,0s0,0,0,0h0c1.39,0,1.63.88,1.86,1.76a2.46,2.46,0,0,0,.94,1.66,2.44,2.44,0,0,1,1.27,3.25Z"/><path class="cls-15" d="M20.14,56.39s-.07,8.5-.6,15.49c-1.16,6.91-2.17,16.4-2.17,16.4h-1.1s-1.11-12.59.12-16.65c-.73-5.19-.51-15.1-.51-15.1Z"/><path class="cls-15" d="M21.59,48.9v.3l0,.32c0,.21,0,.42.05.63a10.54,10.54,0,0,0,.22,1.25,6.71,6.71,0,0,0,.4,1.14,3.57,3.57,0,0,0,.64.91l.06.06a.24.24,0,0,0-.11-.06h.06a1.19,1.19,0,0,0,.41-.11,6.11,6.11,0,0,0,1-.52c.35-.2.69-.43,1-.67s.68-.48,1-.73h0a.41.41,0,0,1,.56.08.42.42,0,0,1,0,.51c-.29.33-.59.64-.9.94a10.27,10.27,0,0,1-1,.87,7.53,7.53,0,0,1-1.16.77,3.51,3.51,0,0,1-.79.27,1.56,1.56,0,0,1-.57,0,1.27,1.27,0,0,1-.65-.38l.06.06a4.57,4.57,0,0,1-1-1.28,6.65,6.65,0,0,1-.57-1.44,9.12,9.12,0,0,1-.3-1.47c0-.24-.05-.49-.06-.73s0-.25,0-.38v-.39a.81.81,0,0,1,.86-.75.79.79,0,0,1,.75.79Z"/><path class="cls-15" d="M28.09,51.42,28,50.75a.37.37,0,0,0-.4-.35h0a1.54,1.54,0,0,0-.87.46l-.73.79-.13.73c.59.29,1.41-.31,1.41-.31l.6-.29A.38.38,0,0,0,28.09,51.42Z"/><path class="cls-1" d="M21.06,47.67c1.16.93,1,1.95,1.24,2.7-.54.91-2.65,1.33-2.65,1.33S19.82,46.67,21.06,47.67Z"/><path class="cls-1" d="M21.57,48.69c.18,2.37-1.26,4.17-1.39,6.67l-6-.14c.18-2.44.1-2.2-.75-6.91a1,1,0,0,1,.78-1.13h.06a13.79,13.79,0,0,1,1.57-.11,18.83,18.83,0,0,1,2.91.08c.63.07,1.29.19,1.8.29A1.3,1.3,0,0,1,21.57,48.69Z"/><path class="cls-4" d="M18.93,49.53c0,.24-.1.44-.27.44a.45.45,0,0,1-.37-.44c0-.25.1-.45.28-.45S18.91,49.28,18.93,49.53Z"/><path class="cls-4" d="M18.61,48.42a1.35,1.35,0,0,1,1,1.08,1.44,1.44,0,0,0-.85-2.36Z"/><path class="cls-4" d="M17.9,48.51a1.14,1.14,0,0,0-1.27,1h0c-1.32-1.72-.77-2.45-.77-2.45Z"/><path class="cls-15" d="M16.24,43.79c.15.94.29,2.66-.38,3.27a6.07,6.07,0,0,0,2.53,1.62,1.51,1.51,0,0,0,.38-1.54c-1.05-.28-1-1-.79-1.77Z"/><path class="cls-11" d="M17,44.44l1,.93a2.28,2.28,0,0,0-.1.52,1.29,1.29,0,0,1-1-.94A1.25,1.25,0,0,1,17,44.44Z"/><path class="cls-15" d="M15.13,42.75c.62,1.44.85,2.06,1.86,2.55a2,2,0,0,0,3-1.92c-.16-1.43-1.13-3.55-2.79-3.62a2.13,2.13,0,0,0-2.23,2A2.1,2.1,0,0,0,15.13,42.75Z"/><path class="cls-6" d="M15,41.6c2,0,4.69-1,3.89-2C18.42,37.54,15,39.66,15,41.6Z"/><path class="cls-6" d="M15.24,41.26a1.32,1.32,0,0,1,.14,2.43C14.5,42.64,14.28,41.08,15.24,41.26Z"/><path class="cls-6" d="M17.64,43.33a8.53,8.53,0,0,1,1.68,0,1,1,0,0,1-1.08.64.6.6,0,0,1-.6-.59Z"/><path class="cls-16" d="M18.49,43.55a1.22,1.22,0,0,0-.7.15.62.62,0,0,0,.39.14,1.15,1.15,0,0,0,.7-.15A.62.62,0,0,0,18.49,43.55Z"/><path class="cls-4" d="M17.7,43.32c0,.08,0,.12.15.17a5.55,5.55,0,0,0,1,0,.65.65,0,0,0,.42-.19A10.29,10.29,0,0,0,17.7,43.32Z"/><path class="cls-6" d="M17.49,42.31c.05.12.14.19.22.17s.11-.15.07-.27-.14-.19-.22-.17S17.45,42.19,17.49,42.31Z"/><path class="cls-6" d="M19,41.77c0,.12.14.19.22.17s.11-.15.06-.27-.14-.19-.21-.17S19,41.65,19,41.77Z"/><path class="cls-6" d="M19.06,41.52l.26-.19S19.25,41.61,19.06,41.52Z"/><path class="cls-16" d="M18.59,42.06a3.42,3.42,0,0,0,.7.62.54.54,0,0,1-.4.23Z"/><path class="cls-15" d="M15.1,44.14a1.15,1.15,0,0,0,.8.38c.4,0,.5-.37.31-.7s-.58-.66-1-.52A.52.52,0,0,0,15,44,.46.46,0,0,0,15.1,44.14Z"/><path class="cls-6" d="M16.79,42.09l0,0a.61.61,0,0,1,.44-.32.08.08,0,1,0,0-.15h0a.74.74,0,0,0-.56.39.08.08,0,0,0,0,.11Z"/><path class="cls-6" d="M19.16,41.2l0,0a.09.09,0,0,0-.05-.1h0a.79.79,0,0,0-.68.11.08.08,0,0,0,0,.11.08.08,0,0,0,.1,0,.56.56,0,0,1,.53-.08Z"/><path class="cls-6" d="M17.53,42.06l.26-.19S17.72,42.15,17.53,42.06Z"/><path class="cls-15" d="M18.53,56.6a146.48,146.48,0,0,1-2.91,15.56A92,92,0,0,1,7.3,85.72l-1-.56c2-4.62,4.22-10.09,6.28-13.7C14,58.35,13.86,56.6,13.86,56.6Z"/><path class="cls-6" d="M8,89.19a5.18,5.18,0,0,0-.63-1,7.3,7.3,0,0,1,.34-2.85.11.11,0,0,0,0-.12l-1-.92a.14.14,0,0,0-.2,0c-.09.09-.37.59-.47.74s-.25.38-.35.52c-.35.55-1.09,1.81-1.09,1.81l.13.07c.25-.37.52-.73.8-1.07s.29.25.18.73a1.76,1.76,0,0,0,1,1.74C7.72,89.4,8.09,89.48,8,89.19Z"/><path class="cls-1" d="M20.19,55.36c1.27,4,.3,8.08-.3,15.77a17.78,17.78,0,0,1-8.14-.87c1.84-8.82-.43-11,2.45-15.05Z"/><path class="cls-6" d="M14.09,54.77c0,.16-.05.32-.07.47a.13.13,0,0,0,.09.15c.64.1,4.42.65,6.11.23a.11.11,0,0,0,.07-.12V55c0-.08,0-.14-.1-.14-.59,0-3.7,0-6-.16A.11.11,0,0,0,14.09,54.77Z"/><path class="cls-4" d="M17.16,54.71a10,10,0,0,1,2.14,0c.16.07.08,1-.05,1.07a8.28,8.28,0,0,1-2.11,0C16.86,55.79,17,54.77,17.16,54.71Z"/><polygon class="cls-11" points="17.17 65.07 17.41 61.2 18.75 59.36 17.17 65.07"/><path class="cls-15" d="M14.56,49.38c-.23.29-.49.6-.72.91s-.46.63-.67,1a8.43,8.43,0,0,0-1,2c0,.08-.05.16-.06.23v0h0v0a.94.94,0,0,0,.11.32,4.16,4.16,0,0,0,.62.87,21.8,21.8,0,0,0,1.65,1.68h0a.4.4,0,0,1,0,.57A.41.41,0,0,1,14,57,12.52,12.52,0,0,1,12,55.56a5.25,5.25,0,0,1-.92-1,2.13,2.13,0,0,1-.35-.8,1.33,1.33,0,0,1,0-.28V53.3a.25.25,0,0,1,0-.1c0-.13,0-.25.06-.37a6.64,6.64,0,0,1,.47-1.29,10.51,10.51,0,0,1,.62-1.14c.23-.37.46-.72.71-1.06s.51-.67.81-1a.81.81,0,0,1,1.14,0,.82.82,0,0,1,.09,1.1Z"/><path class="cls-1" d="M14.35,47.16a2.15,2.15,0,0,0-1.9,1.41,11.18,11.18,0,0,0,1.8,2.58S16.41,47,14.35,47.16Z"/><path class="cls-15" d="M14,56.09l1.5,0-.79,1.2s-.89-.22-1.12-.85Z"/><path class="cls-15" d="M16.11,57l-.29.63a.27.27,0,0,1-.36.15l0,0-.72-.43.79-1.2.53.49A.36.36,0,0,1,16.11,57Z"/><path class="cls-6" d="M19.92,90.67a3.94,3.94,0,0,0-1-.5,10.55,10.55,0,0,1-1.34-2.87.13.13,0,0,0-.1-.09l-1.37-.33a.14.14,0,0,0-.17.09v0c0,.12,0,.8,0,1v.62c0,.65.08,2.11.08,2.11h.15a11.72,11.72,0,0,1,.09-1.33c.07-.42.37.08.54.57a2,2,0,0,0,1.84,1C19.79,91,20.14,90.89,19.92,90.67Z"/></g></g></g></svg>