<svg xmlns="http://www.w3.org/2000/svg" viewBox="0 0 41.49 33.56"><defs><style>.cls-1{opacity:0.9;isolation:isolate;}.cls-2{fill:#fff;}.cls-3{fill:#1d1d1b;}.cls-4{fill:#f8ad17;}</style></defs><g id="Layer_2" data-name="Layer 2"><g id="Layer_1-2" data-name="Layer 1"><g class="cls-1"><path class="cls-2" d="M35.78,14.08C43,10.93,44.62,1.27,33.36.15,26.18-1.3,12.52,8,28.69,14.18A9.31,9.31,0,0,0,35.78,14.08Z"/></g><path class="cls-3" d="M34,5.05a2,2,0,0,1-.48,1.37,2.57,2.57,0,0,1-1.37.77v0a2.64,2.64,0,0,1,1.57.63,1.74,1.74,0,0,1,.54,1.35,2.28,2.28,0,0,1-.9,1.92,4.13,4.13,0,0,1-2.56.69,6.15,6.15,0,0,1-2.47-.46V9.82a6.34,6.34,0,0,0,1.09.41,4.85,4.85,0,0,0,1.19.15,2.34,2.34,0,0,0,1.32-.3,1.13,1.13,0,0,0,.43-1,.87.87,0,0,0-.5-.85A3.56,3.56,0,0,0,30.3,8h-.65V6.61h.67a3,3,0,0,0,1.45-.27.93.93,0,0,0,.46-.89c0-.65-.4-1-1.22-1a2.85,2.85,0,0,0-.85.14,3.54,3.54,0,0,0-1,.49l-.84-1.25A4.6,4.6,0,0,1,31.14,3a3.59,3.59,0,0,1,2.1.54A1.72,1.72,0,0,1,34,5.05Z"/><path class="cls-4" d="M16.23,12.78A52.39,52.39,0,0,0,7,16.37a20.18,20.18,0,0,0-4.09,2.68,7.74,7.74,0,0,0-1.55,1.79,5.11,5.11,0,0,0-.49,1A4.2,4.2,0,0,0,.78,23a5.48,5.48,0,0,0,2.39,3.77c.3.26.65.48,1,.72a8,8,0,0,0,1,.67l1,.64,1.08.58c2.86,1.57,5.94,2.78,9,4.11l0,.09a48.71,48.71,0,0,1-9.4-3.34,20.73,20.73,0,0,1-4.26-2.74l-.92-.9-.81-1A5,5,0,0,1,0,23,4.74,4.74,0,0,1,.2,21.65a6,6,0,0,1,.6-1.18,8.5,8.5,0,0,1,1.73-1.9,20.78,20.78,0,0,1,4.28-2.63,51.75,51.75,0,0,1,9.4-3.25Z"/></g></g></svg>