<svg xmlns="http://www.w3.org/2000/svg" viewBox="0 0 20.37 14.83"><defs><style>.cls-1{opacity:0.9;isolation:isolate;}.cls-2{fill:#fff;}.cls-3{fill:#1d1d1b;}</style></defs><g id="Layer_2" data-name="Layer 2"><g id="Layer_1-2" data-name="Layer 1"><g class="cls-1"><path class="cls-2" d="M14.66,14.08C21.83,10.93,23.51,1.27,12.25.15,5.07-1.3-8.6,8,7.58,14.18A9.29,9.29,0,0,0,14.66,14.08Z"/></g><path class="cls-3" d="M12.9,5.05a2,2,0,0,1-.49,1.37,2.53,2.53,0,0,1-1.36.77v0a2.67,2.67,0,0,1,1.57.63,1.77,1.77,0,0,1,.53,1.35,2.28,2.28,0,0,1-.9,1.92,4.11,4.11,0,0,1-2.56.69,6.18,6.18,0,0,1-2.47-.46V9.82a6.45,6.45,0,0,0,1.1.41,4.77,4.77,0,0,0,1.18.15,2.3,2.3,0,0,0,1.32-.3,1.11,1.11,0,0,0,.43-1,.87.87,0,0,0-.49-.85A3.59,3.59,0,0,0,9.19,8H8.54V6.61H9.2a3,3,0,0,0,1.46-.27,1,1,0,0,0,.46-.89c0-.65-.41-1-1.22-1A2.92,2.92,0,0,0,9,4.62a3.84,3.84,0,0,0-1,.49L7.23,3.86A4.61,4.61,0,0,1,10,3a3.63,3.63,0,0,1,2.1.54A1.74,1.74,0,0,1,12.9,5.05Z"/></g></g></svg>