<svg xmlns="http://www.w3.org/2000/svg" viewBox="0 0 41.19 67.66"><defs><style>.cls-1{opacity:0.9;isolation:isolate;}.cls-2{fill:#fff;}.cls-3{fill:#1d1d1b;}</style></defs><g id="Layer_2" data-name="Layer 2"><g id="Layer_1-2" data-name="Layer 1"><g class="cls-1"><path class="cls-2" d="M35.48,14.08C42.65,10.93,44.32,1.27,33.06.15,25.88-1.3,12.22,8,28.39,14.18A9.31,9.31,0,0,0,35.48,14.08Z"/></g><path class="cls-2" d="M16.24,12.84a42.47,42.47,0,0,0-11,11.63A26.64,26.64,0,0,0,.78,39.56a25.13,25.13,0,0,0,1.49,7.77c.2.63.5,1.23.74,1.84l.39.92.45.88.92,1.77,1.05,1.7A63.52,63.52,0,0,0,16.24,66.62l-.06.07A50,50,0,0,1,5,55a31.46,31.46,0,0,1-3.64-7.32A26,26,0,0,1,0,39.57,27.46,27.46,0,0,1,4.82,24.21,43,43,0,0,1,16.18,12.76Z"/><path class="cls-2" d="M7.09,64.87l4.9.85,4.89.89-.49.61a14,14,0,0,1-1.23-3.77A15.6,15.6,0,0,1,15,59.53h.1c.34,1.26.65,2.5,1,3.73l.54,1.82c.18.6.37,1.22.59,1.78l.31.81-.8-.2-4.81-1.23L7.07,65Z"/><path class="cls-3" d="M34,11.76H28V10.5l2.15-2.17c.64-.65,1-1.11,1.25-1.36a3.16,3.16,0,0,0,.42-.7A1.9,1.9,0,0,0,32,5.6a1,1,0,0,0-.29-.76,1.09,1.09,0,0,0-.76-.26,2.19,2.19,0,0,0-1,.23,5,5,0,0,0-1,.65L28,4.3a6.89,6.89,0,0,1,1-.77A4.28,4.28,0,0,1,30,3.19a4.69,4.69,0,0,1,1.1-.12,3.33,3.33,0,0,1,1.42.29,2.29,2.29,0,0,1,1,.83,2.21,2.21,0,0,1,.34,1.2,2.89,2.89,0,0,1-.21,1.11,4.14,4.14,0,0,1-.65,1.07,16,16,0,0,1-1.53,1.55l-1.11,1v.08H34Z"/></g></g></svg>