<svg xmlns="http://www.w3.org/2000/svg" viewBox="0 0 20.37 14.83"><defs><style>.cls-1{opacity:0.9;isolation:isolate;}.cls-2{fill:#fff;}.cls-3{fill:#1d1d1b;}</style></defs><g id="Layer_2" data-name="Layer 2"><g id="Layer_1-2" data-name="Layer 1"><g class="cls-1"><path class="cls-2" d="M14.66,14.08C21.83,10.93,23.51,1.27,12.25.15,5.07-1.3-8.6,8,7.58,14.18A9.29,9.29,0,0,0,14.66,14.08Z"/></g><path class="cls-3" d="M13.19,11.76h-6V10.5L9.35,8.33A17.66,17.66,0,0,0,10.6,7a2.54,2.54,0,0,0,.42-.7,1.7,1.7,0,0,0,.13-.67,1,1,0,0,0-.28-.76,1.09,1.09,0,0,0-.76-.26,2.23,2.23,0,0,0-1,.23,5,5,0,0,0-1,.65l-1-1.16a6.42,6.42,0,0,1,1.05-.77,4.28,4.28,0,0,1,.91-.34,4.57,4.57,0,0,1,1.1-.12,3.37,3.37,0,0,1,1.42.29,2.26,2.26,0,0,1,.95.83A2.13,2.13,0,0,1,13,5.39a2.89,2.89,0,0,1-.21,1.11,4.38,4.38,0,0,1-.64,1.07,16.45,16.45,0,0,1-1.54,1.55l-1.1,1v.08h3.73Z"/></g></g></svg>