<?xml version="1.0" encoding="iso-8859-1"?>
<!-- Generator: Adobe Illustrator 19.0.0, SVG Export Plug-In . SVG Version: 6.00 Build 0)  -->
<svg version="1.1" id="Capa_1" xmlns="http://www.w3.org/2000/svg" xmlns:xlink="http://www.w3.org/1999/xlink" x="0px" y="0px"
	 viewBox="0 0 511.999 511.999" style="enable-background:new 0 0 511.999 511.999;" xml:space="preserve">
<g>
	<g>
		<path d="M51.006,396.994v59.998c0,8.284,6.716,14.999,14.999,14.999H181v-74.997H51.006z"/>
	</g>
</g>
<g>
	<g>
		<path d="M330.994,396.994v74.997H445.99c8.284,0,14.999-6.716,14.999-14.999v-59.998H330.994z"/>
	</g>
</g>
<g>
	<g>
		<path d="M365.952,256.808c-30.074,20.013-68.812,31.163-109.955,31.163s-79.881-11.15-109.954-31.163
			c-28.191,18.844-61.998,28.436-95.037,30.666v79.522h129.995v-39.998c0-8.284,6.716-14.999,14.999-14.999h119.995
			c8.284,0,14.999,6.716,14.999,14.999v39.998h129.995v-79.521C427.949,285.243,394.148,275.656,365.952,256.808z"/>
	</g>
</g>
<g>
	<g>
		<path d="M106.005,40.008c-5.736,0-10.971,3.272-13.483,8.429L1.525,235.169c-4.512,9.262,1.46,20.253,11.723,21.466
			c33.771,3.995,70.529-0.862,101.188-16.162l70.616-200.465H106.005z"/>
	</g>
</g>
<g>
	<g>
		<path d="M295.139,40.008h-78.283l-64.794,183.936c25.941,21.616,63.026,34.027,103.936,34.028
			c40.906,0,77.997-12.412,103.937-34.028L295.139,40.008z"/>
	</g>
</g>
<g>
	<g>
		<path d="M510.472,235.17L419.476,48.438c-2.514-5.157-7.748-8.429-13.483-8.429h-79.048l70.617,200.465
			c30.277,15.11,66.916,20.217,101.189,16.162C508.981,255.426,514.998,244.46,510.472,235.17z"/>
	</g>
</g>
<g>
</g>
<g>
</g>
<g>
</g>
<g>
</g>
<g>
</g>
<g>
</g>
<g>
</g>
<g>
</g>
<g>
</g>
<g>
</g>
<g>
</g>
<g>
</g>
<g>
</g>
<g>
</g>
<g>
</g>
</svg>
