<?xml version="1.0" standalone="no"?>
<!DOCTYPE svg PUBLIC "-//W3C//DTD SVG 20010904//EN"
 "http://www.w3.org/TR/2001/REC-SVG-20010904/DTD/svg10.dtd">
<svg version="1.0" xmlns="http://www.w3.org/2000/svg"
 width="700.000000pt" height="700.000000pt" viewBox="0 0 700.000000 700.000000"
 preserveAspectRatio="xMidYMid meet">
<metadata>
Created by potrace 1.11, written by Peter Selinger 2001-2013
</metadata>
<g transform="translate(0.000000,700.000000) scale(0.100000,-0.100000)"
fill="#000000" stroke="none">
<path d="M25 6975 l-25 -24 0 -3451 0 -3451 25 -24 24 -25 3451 0 3451 0 24
25 25 24 0 3451 0 3451 -25 24 -24 25 -3451 0 -3451 0 -24 -25z m3930 -875
c61 -11 155 -27 210 -36 793 -122 1378 -428 1758 -917 506 -651 574 -1598 180
-2507 -352 -813 -1071 -1486 -1804 -1690 -413 -114 -836 -104 -1242 31 -290
96 -870 413 -1237 677 -236 170 -498 407 -660 597 -266 314 -431 650 -496
1010 -21 121 -24 410 -5 530 88 553 418 1086 947 1529 527 441 1201 736 1815
796 139 13 405 3 534 -20z"/>
<path d="M3250 5505 c-209 -29 -442 -101 -624 -192 -323 -162 -571 -420 -736
-766 -179 -377 -250 -769 -222 -1239 18 -310 55 -517 129 -733 145 -420 426
-745 795 -920 177 -83 340 -130 583 -166 133 -20 597 -18 738 4 217 33 508
112 670 181 l37 16 0 450 c0 248 -4 450 -8 450 -5 0 -80 -27 -168 -59 -390
-145 -605 -189 -873 -178 -164 6 -258 29 -373 89 -192 100 -322 282 -388 543
-41 159 -54 291 -54 535 -1 236 9 311 65 494 109 354 285 549 559 617 74 19
103 21 230 16 85 -4 185 -14 241 -26 120 -26 322 -93 479 -161 67 -29 125 -48
130 -44 9 10 320 809 320 823 0 10 -132 68 -269 118 -136 49 -374 108 -537
133 -185 28 -570 36 -724 15z"/>
</g>
</svg>
